<svg width="381" height="381" viewBox="0 0 381 381" fill="none" xmlns="http://www.w3.org/2000/svg">
<path d="M0 381V0H381V381H224.814L327.755 280.654L339.587 221.074L331.304 194.42L327.755 191.284L339.587 166.198L356.152 108.185L337.22 83.0988L237.829 37.6296H228.363L210.615 48.6049L188.134 67.4198L160.919 90.9383L158.553 94.0741L147.904 103.481L140.804 109.753L133.705 117.593L127.789 122.296L120.689 130.136L118.323 131.704L56.795 192.852L29.5807 225.778L31.9472 246.16L21.2981 291.63L41.413 322.988L80.4596 362.185L92.2919 381H0Z" fill="#47464D"/>
<path d="M210.615 48.6049L228.363 37.6296H230.73L214.165 51.7408L210.615 48.6049Z" fill="#E36830"/>
<path d="M214.165 51.7407L230.73 37.6296H237.829L337.22 83.0988L240.196 181.877L215.348 180.309L207.065 175.605L195.233 169.333L166.835 150.519L163.286 147.383L158.553 142.679L153.82 137.975L158.553 133.272L163.286 136.407L172.752 144.247L176.301 147.383L184.584 150.519L204.699 164.63L207.065 166.198L220.081 174.037L239.012 172.469L222.447 158.358L214.165 155.222L209.432 148.951L204.699 147.383L198.783 144.247L186.95 134.84L182.217 131.704L176.301 130.136L170.385 125.432L152.637 128.568L147.904 131.704L119.506 150.519L110.04 159.926L73.3602 192.852L118.323 131.704L120.689 130.136L127.789 122.296L133.705 117.593L140.804 109.753L147.904 103.481L158.553 94.0741L160.919 90.9383L196.416 68.9877L214.165 51.7407Z" fill="#2C271C"/>
<path d="M188.134 67.4197L210.615 48.6049L214.165 51.7407L196.416 68.9876L188.134 67.4197Z" fill="#BF592A"/>
<path d="M221.264 116.025L176.301 100.346L231.913 53.3086L241.379 58.0123L247.295 61.1481L255.578 65.8518L259.127 67.4197L267.41 76.8271L221.264 116.025Z" fill="#F7AA7C"/>
<path d="M259.127 67.4197L299.357 90.9383L293.441 111.321L257.944 147.383L221.264 116.025L267.41 76.8271L259.127 67.4197ZM160.919 90.9383L188.134 67.4197L196.416 68.9876L160.919 90.9383ZM215.348 180.309L240.196 181.877L337.22 83.0988L356.152 108.185L339.587 166.198L324.205 186.58L320.655 191.284L305.273 203.827L278.059 230.481L272.143 236.753L239.012 271.247L202.332 308.877L189.317 321.42L150.27 351.21L72.177 310.444L53.2453 264.975L120.689 315.148L49.6957 260.272L39.0466 261.839L31.9472 246.16L29.5807 225.778L56.795 192.852L118.323 131.704L73.3603 192.852L72.177 195.988L39.0466 225.778L65.0776 252.432L56.795 227.346L79.2764 235.185L82.8261 233.617L85.1926 236.753L76.9099 249.296L99.3913 268.111L108.857 252.432L88.7422 235.185L98.2081 227.346L100.575 233.617L117.14 243.025L127.789 250.864L152.637 266.543L164.469 263.407L152.637 264.975L147.904 261.839L146.72 244.593L152.637 235.185L169.202 244.593L181.034 233.617L152.637 221.074L149.087 225.778L146.72 230.481L126.606 216.37L147.904 210.099L151.453 205.395L156.186 202.259L165.652 208.531L179.851 217.938L196.416 210.099L194.05 208.531L185.767 203.827L177.484 199.123L175.118 185.012L184.584 174.037L188.134 183.444L185.767 188.148L207.065 205.395L215.348 191.284L212.981 189.716L215.348 180.309Z" fill="#E36830"/>
<path d="M332.488 112.889L178.668 290.062L169.202 333.963L160.919 321.42L186.95 257.136L332.488 112.889Z" fill="#2C271C"/>
<path d="M152.637 128.568L170.385 125.432L163.286 136.407L158.553 133.272L152.637 128.568Z" fill="#F5DCCE"/>
<path d="M163.286 136.407L170.385 125.432L176.301 130.136L172.752 142.679V144.247L163.286 136.407Z" fill="#BF592A"/>
<path d="M119.506 150.519L147.904 131.704L153.82 137.975L158.553 142.679L153.82 152.086L131.338 148.951L128.972 166.198L125.422 161.494H120.689L119.506 150.519Z" fill="#2C271C"/>
<path d="M147.904 131.704L152.637 128.568L158.553 133.272L153.82 137.975L147.904 131.704Z" fill="#E36830"/>
<path d="M172.752 142.679L176.301 130.136L182.217 131.704L179.851 139.543L172.752 142.679Z" fill="#F5DCCE"/>
<path d="M179.851 139.543L182.217 131.704L186.95 134.84L184.584 144.247L179.851 139.543Z" fill="#47464D"/>
<path d="M184.584 144.247L186.95 134.84L198.783 144.247L196.416 145.815H186.95L184.584 144.247Z" fill="#F5DCCE"/>
<path d="M172.752 142.679L179.851 139.543L184.584 144.247L186.95 145.815L176.301 147.383L172.752 144.247V142.679Z" fill="#F7AA7C"/>
<path d="M131.339 148.951L153.82 152.086L136.071 153.654L131.339 148.951Z" fill="#E36830"/>
<path d="M153.82 152.086L158.553 142.679L163.286 147.383L153.82 169.333L164.469 178.741L175.118 185.012L177.484 199.124L170.385 202.259L164.469 191.284L156.186 185.012L147.904 178.741L138.438 183.445L136.071 170.901L128.972 166.198L131.339 148.951L136.071 153.654L153.82 152.086Z" fill="#BF592A"/>
<path d="M196.416 145.815L198.783 144.247L204.699 147.383H196.416V145.815Z" fill="#E36830"/>
<path d="M176.301 147.383L186.95 145.815H196.416V147.383L184.584 150.519L176.301 147.383Z" fill="#BF592A"/>
<path d="M153.82 169.333L163.286 147.383L166.835 150.518L164.469 159.926L156.186 169.333H155.003H153.82Z" fill="#2C271C"/>
<path d="M184.584 150.518L196.416 147.383H204.699L209.432 148.951L204.699 164.63L184.584 150.518Z" fill="#F5DCCE"/>
<path d="M204.699 164.63L209.432 148.951L214.165 155.222L207.065 166.197L204.699 164.63Z" fill="#F7AA7C"/>
<path d="M110.04 159.926L119.506 150.518L120.689 161.494L119.506 167.765L124.239 177.173L133.705 188.148L132.522 205.395L128.972 200.691L123.056 199.123L118.323 188.148L111.224 183.444L98.2081 188.148L107.674 197.556L117.14 206.963L126.606 216.37L146.72 230.481L152.637 235.185L146.72 244.593H132.522L130.155 246.16L126.606 230.481L113.59 219.506L110.04 217.938L99.3913 225.778L98.2081 227.346L88.7422 235.185L85.1925 236.753L82.8261 233.617L73.3602 217.938L56.795 227.346L65.0776 252.432L39.0466 225.778L72.177 195.988L82.8261 197.556L78.0932 203.827L76.9099 206.963L86.3758 217.938L95.8416 203.827L89.9255 197.556L93.4751 183.444L104.124 180.309L114.773 174.037L112.407 166.198L110.04 159.926ZM164.469 159.926L166.835 150.518L195.233 169.333L196.416 180.309L188.134 183.444L184.584 174.037L182.217 172.469L178.668 169.333L169.202 167.765L165.652 163.062L164.469 159.926Z" fill="#BF592A"/>
<path d="M207.065 166.198L214.165 155.222L222.447 158.358L220.081 174.037L207.065 166.198Z" fill="#E36830"/>
<path d="M220.081 174.037L222.447 158.358L239.012 172.469L220.081 174.037Z" fill="#F5DCCE"/>
<path d="M73.3602 192.852L110.04 159.926L112.407 166.198L114.773 174.037L104.124 180.309L93.4751 183.444L89.9255 197.556H82.8261L72.177 195.988L73.3602 192.852Z" fill="#2C271C"/>
<path d="M156.186 169.333L164.469 159.926L165.652 163.062L156.186 169.333Z" fill="#2C271C"/>
<path d="M119.506 167.765L120.689 161.494H125.422L119.506 167.765Z" fill="#F7AA7C"/>
<path d="M119.506 167.765L125.422 161.494L128.972 166.198L136.071 170.901L124.239 177.173L119.506 167.765Z" fill="#E36830"/>
<path d="M156.186 169.333L165.652 163.062L169.202 167.765L173.935 170.901L182.217 172.469L184.584 174.037L175.118 185.012L164.469 178.741L155.003 169.333H156.186Z" fill="#F7AA7C"/>
<path d="M169.202 167.765L178.668 169.333L173.935 170.901L169.202 167.765Z" fill="#E36830"/>
<path d="M314 204.5L356 133L323.692 221L314 204.5Z" fill="#47464D"/>
<path d="M164.469 178.741L153.82 169.333H155.003L164.469 178.741Z" fill="#E36830"/>
<path d="M173.935 170.901L178.668 169.333L182.217 172.469L173.935 170.901Z" fill="#2C271C"/>
<path d="M196.416 180.309L195.233 169.333L207.065 175.605L202.332 181.877L196.416 180.309Z" fill="#E36830"/>
<path d="M124.239 177.173L136.071 170.901L138.438 183.444L137.255 186.58L136.071 188.148H133.705L124.239 177.173Z" fill="#2C271C"/>
<path d="M202.332 181.877L207.065 175.605L215.348 180.309L212.981 189.716L201.149 192.852L202.332 183.444V181.877Z" fill="#BF592A"/>
<path d="M138.438 183.444L147.904 178.741L137.255 186.58L138.438 183.444Z" fill="#2C271C"/>
<path d="M137.255 186.58L147.904 178.741L156.186 185.012L150.27 192.852V197.556H146.72L136.071 188.148L137.255 186.58Z" fill="#F7AA7C"/>
<path d="M188.134 183.444L196.416 180.309L191.683 191.284H190.5L185.767 188.148L188.134 183.444Z" fill="#2C271C"/>
<path d="M191.683 191.284L196.416 180.309L202.332 181.876V183.444L191.683 191.284Z" fill="#F7AA7C"/>
<path d="M107.674 197.556L98.2081 188.148L111.224 183.444L107.674 197.556Z" fill="#F7AA7C"/>
<path d="M107.674 197.556L111.224 183.444L118.323 188.148L107.674 197.556Z" fill="#E36830"/>
<path d="M150.27 192.852L156.186 185.012L164.469 191.284L150.27 197.556V192.852Z" fill="#2C271C"/>
<path d="M191.683 191.284L202.332 183.444L201.149 192.852L198.783 195.988L190.5 191.284H191.683ZM133.705 188.148H136.071L146.721 197.556L145.537 199.123V210.099L132.522 214.802L131.339 211.667L124.239 210.099L132.522 205.395L133.705 188.148Z" fill="#E36830"/>
<path d="M201.149 192.852L212.981 189.716L215.348 191.284L198.783 195.988L201.149 192.852Z" fill="#2C271C"/>
<path d="M320.655 191.284L324.205 186.58L327.755 191.284L331.304 194.42L183.401 340.235L256.761 260.272L259.127 257.136L320.655 191.284Z" fill="#2C271C"/>
<path d="M107.674 197.556L118.323 188.148L123.056 199.123L118.323 203.827L117.14 206.963L107.674 197.556Z" fill="#2C271C"/>
<path d="M215.348 191.284L207.065 205.395L185.767 188.148L190.5 191.284L198.783 195.988L215.348 191.284Z" fill="#F7AA7C"/>
<path d="M150.27 197.556L164.469 191.284L170.385 202.259L166.835 206.963H165.652L156.186 202.259L151.453 205.395L145.537 199.123L146.72 197.556H150.27ZM305.273 203.827L320.655 191.284L259.127 257.136L272.143 236.753L278.059 230.481L305.273 203.827Z" fill="#2C271C"/>
<path d="M183.401 340.235L331.304 194.42L339.587 221.074L170.385 376.296L80.4596 362.185L41.413 322.988L44.9627 308.877L114.773 365.321L181.034 340.235H183.401Z" fill="#47464D"/>
<path d="M78.0931 203.827L82.8261 197.556H89.9254L95.8416 203.827V205.395L82.8261 210.099L78.0931 203.827Z" fill="#E36830"/>
<path d="M123.056 199.123L128.972 200.691L123.056 208.531L118.323 203.827L123.056 199.123Z" fill="#2C271C"/>
<path d="M145.537 210.099V199.123L151.453 205.395L147.904 210.099H145.537Z" fill="#BF592A"/>
<path d="M170.385 202.259L177.485 199.123L178.668 202.259L166.835 206.963L170.385 202.259Z" fill="#2C271C"/>
<path d="M178.668 202.259L177.484 199.123L185.767 203.827L183.401 210.099L178.668 214.802V202.259Z" fill="#BF592A"/>
<path d="M123.056 208.531L128.972 200.691L132.522 205.395L124.239 210.099L123.056 208.531Z" fill="#F7AA7C"/>
<path d="M156.186 202.259L165.652 206.963V208.531L156.186 202.259Z" fill="#BF592A"/>
<path d="M166.835 206.963L178.668 202.259V214.802L181.034 217.938H179.851L165.652 208.531V206.963H166.835Z" fill="#F7AA7C"/>
<path d="M76.9099 206.963L78.0931 203.827L82.8261 210.099L95.8416 205.395V203.827L86.3758 217.938L76.9099 206.963ZM117.14 206.963L118.323 203.827L123.056 208.531L124.239 210.099L131.338 211.667L132.522 214.802L145.537 210.099H147.904L126.606 216.37L117.14 206.963ZM183.401 210.099L185.767 203.827L194.05 208.531L186.95 211.667L183.401 210.099Z" fill="#F7AA7C"/>
<path d="M186.95 211.667L194.05 208.531L196.416 210.099L182.217 217.938L186.95 211.667Z" fill="#2C271C"/>
<path d="M56.795 227.346L73.3603 217.938L79.2764 235.185L56.795 227.346Z" fill="#FD0101"/>
<path d="M178.668 214.803L183.401 210.099L186.95 211.667L182.217 217.938H181.034L178.668 214.803Z" fill="#2C271C"/>
<path d="M181.034 217.938H179.851L196.416 210.099L182.217 217.938H181.034Z" fill="#F7AA7C"/>
<path d="M110.04 217.938L113.59 219.506L106.491 233.617H100.575L98.2081 227.346L99.3913 225.778L110.04 217.938ZM152.637 221.074L181.034 233.617H179.851H178.668L170.385 232.049L163.286 238.321L159.736 235.185L155.003 232.049L152.637 221.074Z" fill="#F7AA7C"/>
<path fill-rule="evenodd" clip-rule="evenodd" d="M79.2764 235.185L73.3602 217.938L82.8261 233.617L79.2764 235.185ZM106.491 233.617L113.59 219.506L126.606 230.481L115.957 241.457L106.491 233.617ZM152.637 221.074L155.003 232.049L149.087 225.778L152.637 221.074Z" fill="#2C271C"/>
<path d="M80.4596 362.185L170.385 376.296L339.587 221.074L327.755 280.654L224.814 381H92.2919L80.4596 362.185Z" fill="#47464D"/>
<path d="M146.721 230.481L149.087 225.778L155.003 232.049L159.736 235.185L163.286 238.321L168.019 239.889L178.668 233.617H179.851L169.202 244.593L152.637 235.185L146.721 230.481Z" fill="#F7AA7C"/>
<path d="M170.385 232.049L178.668 233.617L168.019 239.889L170.385 232.049Z" fill="#2C271C"/>
<path d="M115.957 241.457L126.606 230.482L130.155 246.161L128.972 247.728L127.789 250.864L117.14 243.025L115.957 241.457Z" fill="#2C271C"/>
<path d="M163.286 238.321L170.385 232.049L168.019 239.889L163.286 238.321ZM117.14 243.025L100.575 233.617H106.491L115.957 241.457L117.14 243.025Z" fill="#BF592A"/>
<path d="M169.202 244.593L179.851 233.617H181.034L169.202 244.593Z" fill="#2C271C"/>
<path d="M85.1925 236.753L88.7422 235.185L108.857 252.432L99.3913 268.111L76.9099 249.296L85.1925 236.753Z" fill="#F3FC1F"/>
<path d="M239.012 271.247L272.143 236.753L259.127 257.136L256.761 260.272L239.012 271.247Z" fill="#BF592A"/>
<path fill-rule="evenodd" clip-rule="evenodd" d="M49.6956 260.272L120.689 315.148L53.2453 264.975L49.6956 260.272ZM134.888 254L147.904 261.84L146.72 244.593H132.522L134.888 254Z" fill="#2C271C"/>
<path d="M130.155 246.16L132.522 244.593L134.888 254L128.972 247.728L130.155 246.16Z" fill="#E36830"/>
<path d="M41.413 322.988L21.2981 291.63L31.9472 246.16L39.0465 261.839L44.9627 271.247L46.1459 305.741L44.9627 308.877L41.413 322.988Z" fill="#47464D"/>
<path d="M127.789 250.864L128.972 247.728L134.888 254L147.904 261.84L152.637 264.975V266.543L127.789 250.864Z" fill="#F7AA7C"/>
<path d="M152.637 264.975L164.469 263.407L152.637 266.543V264.975Z" fill="#2C271C"/>
<path d="M39.0466 261.84L49.6956 260.272L53.2453 264.975L72.177 310.444L150.27 351.21L102.941 346.506L54.4286 286.926L48.5124 275.951L44.9627 271.247L39.0466 261.84Z" fill="#BF592A"/>
<path d="M106.491 272.815L140.804 274.383L126.606 288.494L106.491 272.815Z" fill="#07DE4B"/>
<path d="M239.012 271.247L256.761 260.272L183.401 340.235H181.034L100.575 355.914L54.4286 286.926L102.941 346.506L150.27 351.21L189.317 321.42L202.332 308.877L239.012 271.247Z" fill="#2C271C"/>
<path d="M46.1459 305.741L44.9627 271.247L48.5124 275.951L46.1459 305.741Z" fill="#47464D"/>
<path d="M140.804 274.383L125.422 291.63L106.491 272.815L126.606 288.494L140.804 274.383Z" fill="#2C271C"/>
<path d="M46.1459 305.741L48.5124 275.951L54.4285 286.926L100.575 355.914L181.034 340.235L114.773 365.321L44.9627 308.877L46.1459 305.741Z" fill="#47464D"/>
</svg>
