<svg width="381" height="382" viewBox="0 0 381 382" fill="none" xmlns="http://www.w3.org/2000/svg">
<rect width="381" height="381" fill="#47464D"/>
<path d="M360.709 101.151C360.54 101.363 360.438 101.916 360.438 102.426C360.438 103.277 360.201 103.404 358.337 103.617C357.15 103.745 354.337 103.872 352.066 103.915C348.54 103.957 344.303 104.468 343.998 104.85C343.93 104.935 344.236 106.253 344.608 107.827C345.083 109.613 345.524 110.633 345.761 110.506C345.998 110.421 347.727 110.208 349.591 110.038C352.269 109.825 352.981 109.613 352.845 109.187C352.744 108.847 352.811 108.592 352.981 108.592C353.184 108.592 353.32 108.89 353.32 109.23C353.32 109.783 353.862 109.868 356.879 109.783C358.845 109.698 360.438 109.783 360.438 109.953C360.438 110.166 359.489 110.293 358.337 110.293C353.523 110.378 345.964 110.888 345.727 111.186C345.659 111.271 345.964 113.227 346.473 115.481C347.422 120.116 347.727 120.413 349.354 118.457C350.303 117.352 350.337 117.309 350.812 118.16C351.422 119.18 351.252 119.861 350.405 119.861C350.032 119.861 349.32 120.286 348.812 120.754C347.829 121.732 347.625 122.284 348.337 121.987C349.218 121.604 351.489 121.476 352.133 121.774C352.574 121.987 351.998 122.157 350.337 122.369C348.507 122.582 347.896 122.837 347.896 123.305C347.896 123.73 348.1 123.858 348.507 123.73C348.812 123.603 351.693 123.39 354.879 123.22C360.608 122.922 360.675 122.965 360.879 123.858C360.981 124.496 361.32 124.751 362.031 124.793C362.54 124.836 364.37 124.878 366.065 124.963C367.794 125.006 369.353 125.218 369.556 125.346C369.963 125.686 370.065 129.003 369.692 129.045C369.523 129.045 369.116 129.13 368.743 129.258C368.37 129.343 366.54 129.513 364.709 129.641C362.845 129.768 361.286 129.938 361.218 130.023C361.15 130.108 362.743 130.279 364.709 130.406C366.709 130.534 368.438 130.874 368.573 131.129C368.675 131.384 369.082 131.512 369.455 131.469C369.794 131.427 371.251 131.512 372.641 131.682C374.031 131.809 376.437 132.065 377.997 132.192L380.776 132.447V130.959V129.428L378.505 129.343C377.217 129.301 375.692 129.258 375.116 129.301C374.505 129.301 373.997 129.216 373.997 129.045C373.827 124.028 373.827 122.199 374.031 121.349C374.166 120.754 374.573 118.925 374.946 117.309C377.827 104.893 377.793 104.935 378.709 104.553C379.556 104.255 379.692 102.426 378.912 102.086C378.641 101.916 377.285 101.704 375.861 101.533L373.319 101.236V102.384C373.319 102.979 373.183 103.49 373.014 103.49C372.878 103.49 372.811 103.022 372.912 102.426C373.048 101.363 373.048 101.363 370.539 101.363C369.15 101.363 366.404 101.236 364.472 101.108C362.54 100.938 360.845 100.981 360.709 101.151Z" fill="#F7AA7C"/>
<path d="M26.9954 107.657C26.0124 108.677 25.1989 109.655 25.1989 109.868C25.1989 110.761 26.6564 111.058 31.3681 111.186L36.317 111.356L37.5712 109.06C38.2152 107.784 38.6559 106.594 38.5203 106.424C38.3847 106.253 36.1136 106.041 33.5036 105.956L28.7919 105.828L26.9954 107.657Z" fill="#F7AA7C"/>
<path d="M38.622 109.102C37.978 110.548 37.4695 111.781 37.5034 111.824C37.8763 112.207 46.5878 116.671 46.9606 116.671C47.2657 116.671 51.13 118.202 55.5704 120.031L63.6718 123.432L61.299 123.39C60.0109 123.39 57.8754 123.645 56.5534 123.943C55.2654 124.24 54.079 124.453 53.9434 124.411C53.3332 124.198 48.5877 125.303 48.5877 125.644C48.5877 125.856 48.2826 126.026 47.8759 126.026C47.503 126.026 47.2996 126.239 47.4013 126.452C47.503 126.707 47.3674 127.004 47.0623 127.132C46.4522 127.43 41.6389 126.622 39.4356 125.814C35.8086 124.538 34.351 124.24 33.8765 124.708C33.6392 124.963 33.1647 125.091 32.8596 124.921C32.5545 124.793 32.3172 124.878 32.3172 125.133C32.3172 125.389 31.9783 125.601 31.5715 125.559C29.436 125.516 23.5719 126.111 22.8261 126.452C22.3516 126.622 20.9618 127.047 19.7076 127.302C18.4195 127.6 17.4026 127.982 17.4026 128.152C17.4026 128.323 16.8264 128.62 16.1485 128.79C15.4366 128.96 14.6909 129.428 14.4536 129.853C14.2163 130.279 13.5045 130.746 12.8944 130.916C12.0131 131.129 10.7589 131.724 10.0131 132.235C9.94535 132.277 10.1487 133 10.4199 133.85C11.0639 135.806 16.5891 142.993 19.3687 145.502C21.1991 147.117 21.5042 147.543 21.3347 148.393C21.0974 149.414 21.6397 149.839 21.9109 148.861C22.0126 148.478 22.216 148.478 22.6905 148.861C30.6563 155.112 33.4019 156.983 40.6897 161.15L43.4693 162.723L43.6727 164.679C44.0794 168.379 44.2489 168.974 45.198 169.824C45.7065 170.292 46.2827 170.675 46.4522 170.675C46.6217 170.675 46.7912 171.313 46.7912 172.078C46.7912 173.354 46.6895 173.481 45.9776 173.311C45.5709 173.226 45.198 173.311 45.198 173.566C45.198 173.821 45.0963 174.289 44.9946 174.629C44.8929 175.055 45.1641 175.395 45.8421 175.692C47.0623 176.245 47.2996 177.308 46.1471 176.883C42.6219 175.607 42.3168 175.607 40.3847 176.713C35.1646 179.732 33.1308 189.129 36.3171 195.55C37.2323 197.379 39.0288 199.59 39.605 199.59C39.8084 199.547 39.7067 199.335 39.4356 199.037C38.4526 198.017 37.4695 196.401 37.2323 195.38L36.995 194.36L37.978 195.253C38.5542 195.763 39.7745 197.039 40.7236 198.102L42.4524 200.058L43.9438 199.165C44.7574 198.654 45.8082 197.804 46.2149 197.209C46.6556 196.656 47.3335 196.188 47.7064 196.188C48.2826 196.231 48.1131 196.571 46.7234 198.144C44.2489 200.951 43.0286 201.503 39.4017 201.376C38.2492 201.291 37.6051 200.993 36.8933 200.185C35.2663 198.314 35.5035 199.505 37.1645 201.631C38.0458 202.779 39.0627 204.352 39.4017 205.16C40.0457 206.691 41.3338 207.542 40.8931 206.138C40.7914 205.756 40.8253 205.501 40.9948 205.586C41.1643 205.713 42.893 206.776 44.859 207.967C46.8251 209.157 49.6385 210.646 51.13 211.241C52.6214 211.836 54.1468 212.559 54.5196 212.772C55.5704 213.41 60.0448 214.855 62.4854 215.366C63.7396 215.621 65.4683 216.386 66.4852 217.109C67.9767 218.172 68.2817 218.257 68.4512 217.704C68.5868 217.279 69.0614 217.024 69.841 217.024C71.2985 217.024 75.434 217.747 77.2644 218.342C79.2643 218.98 81.0947 218.257 82.8913 216.046C84.8573 213.665 85.8742 210.986 85.8742 208.137C85.8742 205.926 85.9081 205.883 86.7216 206.138C87.3995 206.351 87.6029 206.223 87.7724 205.373C87.8741 204.778 87.8741 204.097 87.7385 203.8C87.5351 203.46 87.6368 203.417 88.0775 203.715C88.8571 204.267 90.3824 203.885 90.1452 203.162C90.0435 202.822 90.7553 202.141 92.2129 201.333C93.4332 200.611 94.5179 200.015 94.6534 200.015C94.789 200.015 95.8059 201.078 96.8906 202.396C98.0092 203.672 99.1278 204.905 99.399 205.075C99.8058 205.373 99.8058 205.756 99.4668 207.329C99.2295 208.35 99.0939 210.05 99.1617 211.071C99.2634 212.729 99.4329 213.112 100.789 214.303C103.433 216.684 103.704 217.152 104.178 219.916C104.585 222.127 104.789 222.637 105.467 222.85C105.975 222.977 106.178 223.317 106.077 223.7C105.975 224.04 105.873 224.508 105.873 224.721C105.873 224.933 105.467 225.103 104.958 225.103C104.009 225.146 104.009 225.146 104.789 225.656C105.365 226.081 105.467 226.294 105.128 226.719C104.619 227.357 104.992 227.825 105.738 227.485C106.043 227.357 106.212 226.974 106.077 226.592C105.975 226.209 106.077 225.954 106.382 225.954C107.026 225.954 107.026 226.124 106.382 227.697C105.873 228.888 105.873 228.973 106.585 229.313C107.127 229.526 107.229 229.738 106.924 229.951C106.687 230.164 106.28 229.951 105.941 229.441C105.229 228.42 102.28 227.91 100.518 228.463C96.9245 229.696 95.2975 236.925 97.433 242.367C98.2465 244.536 100.382 246.365 102.111 246.365C103.433 246.365 105.5 245.301 106.077 244.323C106.483 243.643 106.551 243.643 107.297 244.536C108.11 245.472 110.212 246.365 111.67 246.365C113.059 246.365 115.33 244.026 116.11 241.815C117.127 238.881 116.89 233.991 115.602 231.524C114.517 229.441 112.144 227.867 110.585 228.165C109.771 228.335 109.636 228.207 109.771 227.655C109.873 227.229 109.738 226.677 109.466 226.422C108.653 225.571 109.093 217.449 110.212 212.857C110.619 211.114 110.856 210.688 111.263 210.901C113.941 212.304 114.653 210.646 112.924 206.861C112.585 206.096 112.348 205.373 112.415 205.288C112.551 205.118 117.534 207.116 118.313 207.669C120.347 209.072 138.516 217.662 143.16 219.448C148.075 221.276 158.888 223.402 163.43 223.402C166.142 223.402 169.904 225.316 170.582 227.017C170.989 228.08 170.989 228.335 170.481 229.313C168.582 232.927 168.209 237.903 169.599 241.432C170.718 244.323 171.904 245.174 174.752 245.004C176.751 244.876 177.158 244.706 178.073 243.601L179.124 242.325L179.734 243.345C180.514 244.621 183.327 245.557 185.022 245.089C187.565 244.366 189.259 241.049 189.259 236.84C189.259 235.989 189.327 235.309 189.429 235.309C189.497 235.309 190.344 235.691 191.293 236.159C196.852 238.923 213.462 242.75 224.783 243.898C228.41 244.281 229.936 244.579 229.936 244.961C229.936 245.557 230.139 245.727 231.393 246.109C232.207 246.365 232.342 246.279 232.173 245.642C232.003 244.919 232.681 244.876 246.308 244.876C256.545 244.876 260.714 245.004 260.951 245.344C261.188 245.727 262.51 245.727 265.832 245.429C269.832 245.046 270.476 245.089 271.324 245.684C272.612 246.662 273.018 246.535 272.781 245.344L272.612 244.366L277.798 244.111C280.645 243.941 284.272 243.643 285.865 243.388C287.458 243.175 289.424 242.92 290.272 242.835C291.56 242.75 291.865 242.58 292.238 241.517C293.255 238.923 293.187 235.606 292.102 234.246C291.797 233.863 291.662 233.438 291.797 233.268C291.899 233.098 295.865 232.842 300.543 232.672C309.83 232.375 322.542 231.779 335.931 231.014L344.473 230.504L341.659 228.675C340.134 227.697 338.27 226.677 337.524 226.464C335.727 225.869 327.863 225.188 317.05 224.678C312.101 224.466 303.424 223.998 297.729 223.658C292.034 223.317 283.357 222.892 278.408 222.765C273.459 222.637 269.29 222.339 269.12 222.127C268.883 221.829 269.798 221.702 271.561 221.702C273.866 221.702 274.273 221.617 274.137 221.064C273.832 220.171 274.476 220.256 275.188 221.276C275.696 221.999 276.239 222.127 278.374 222.127H280.95L279.188 220.851C277.255 219.448 277.255 219.448 277.696 217.619C277.866 216.939 278.34 214.941 278.747 213.197C279.154 211.454 279.628 209.625 279.764 209.157C279.899 208.69 280.713 205.373 281.594 201.759C282.442 198.144 283.221 195.083 283.323 194.998C283.391 194.87 284.272 195.295 285.255 195.848C290.34 198.867 291.187 198.357 289.289 193.509L288.34 191.086H289.187C289.763 191.086 289.933 190.915 289.831 190.49C289.662 190.022 290.001 189.81 291.051 189.64C291.831 189.555 294.475 189.129 296.882 188.789C299.322 188.407 301.695 188.109 302.237 188.109C302.746 188.109 303.153 187.981 303.153 187.769C303.153 187.599 302.305 186.536 301.254 185.388L299.39 183.346L294.238 183.602C291.39 183.772 288.34 183.984 287.391 184.069C286.204 184.197 285.967 184.154 286.543 183.899C287.357 183.559 296.102 182.794 298.238 182.879C298.814 182.879 300 183.176 300.882 183.517C302.068 183.942 303.085 184.027 304.441 183.772C307.593 183.219 320.271 181.433 325.016 180.88C332.202 180.072 337.49 179.222 338.744 178.754C339.388 178.541 340.744 178.329 341.761 178.329C343.795 178.329 343.863 178.414 345.591 182.241C347.286 186.025 347.659 185.855 347.422 181.518C347.32 179.562 347.354 177.478 347.524 176.926C347.693 176.373 348.574 174.927 349.49 173.736L351.117 171.483L358.676 171.695C362.845 171.78 366.336 171.993 366.472 172.163C366.607 172.376 366.37 172.376 365.93 172.248C364.913 171.95 364.743 172.971 364.709 179.69L364.675 185.132L360.608 185.217C356.879 185.26 353.083 185.388 344.1 185.6C339.998 185.728 339.185 186.238 342.439 186.663C343.998 186.833 344.744 187.088 344.439 187.301C344.1 187.599 344.1 187.684 344.439 187.684C345.422 187.684 344.744 188.492 343.592 188.662L342.303 188.832L343.558 188.874C344.71 188.959 344.812 189.087 344.913 190.32C345.015 191.723 345.015 191.723 347.151 191.851L349.252 191.978V194.487C349.252 197.124 349.591 197.889 350.269 196.826C350.574 196.358 351.422 196.188 353.354 196.188C355.523 196.188 356.574 196.443 359.32 197.676C363.286 199.505 364.472 200.738 364.438 202.949C364.336 206.308 364.506 209.413 364.811 209.2C365.082 208.945 365.489 214.813 365.353 217.449C365.15 221.276 365.15 221.149 364.845 220.213C364.641 219.618 364.54 220.086 364.54 221.872C364.506 223.7 364.641 224.508 365.048 224.891C365.523 225.316 365.557 225.826 365.353 228.122C365.116 230.291 365.014 230.631 364.811 229.781C364.675 229.1 364.54 230.078 364.472 232.545C364.37 237.265 364.472 238.413 364.913 238.753C365.15 238.923 365.116 239.093 364.845 239.221C364.54 239.348 364.438 243.856 364.472 258.058C364.54 290.715 364.438 300.793 363.997 320.141C363.862 325.073 363.862 331.069 363.997 333.45L364.235 337.873L365.387 338.468C365.997 338.808 366.641 339.063 366.777 339.021C366.946 338.978 367.116 338.978 367.218 339.063C367.319 339.106 368.743 339.191 370.438 339.276C373.183 339.446 373.556 339.361 374.234 338.553C375.183 337.447 375.183 337.15 374.336 335.789C373.624 334.641 373.421 332.472 373.997 332.047C374.2 331.919 374.336 331.026 374.336 330.091C374.336 328.645 374.234 328.433 373.556 328.433C371.861 328.433 371.556 327.667 371.726 323.755C371.794 321.757 371.997 319.588 372.133 318.95C372.302 318.142 372.234 317.547 371.861 317.037C371.489 316.526 371.319 315.251 371.285 312.487C371.217 306.534 371.522 294.84 371.76 294.542C372.099 294.117 371.997 292.076 371.59 291.566C371.319 291.226 371.285 289.61 371.455 286.038C371.692 281.275 371.794 271.113 371.624 267.413C371.59 266.478 371.624 256.017 371.658 244.111C371.726 232.247 371.692 222.51 371.59 222.424C371.489 222.382 371.522 220.596 371.692 218.512C371.828 216.386 371.929 211.624 371.929 207.882C371.895 204.14 371.895 199.122 371.895 196.698L371.963 192.361L373.421 192.319C375.895 192.276 376.166 191.978 376.2 189.342V187.046L378.404 186.833L380.607 186.621L380.709 160.852L380.776 135.084L376.302 134.828C373.827 134.701 370.641 134.616 369.251 134.701L366.709 134.828L366.302 140.314C366.065 143.333 365.963 146.267 366.065 146.862L366.235 147.968L353.93 148.053C338.982 148.138 332.304 148.563 332.304 149.456C332.304 149.669 332.88 149.839 333.592 149.839C334.304 149.839 335.016 150.009 335.219 150.222C335.388 150.434 337.524 150.477 340.27 150.307C342.88 150.137 347.524 150.051 350.608 150.137C353.693 150.179 358.371 150.264 361.048 150.264C363.726 150.307 365.862 150.519 365.862 150.732C365.862 151.115 361.794 151.327 355.015 151.327H351.795L351.761 153.411C351.727 154.559 351.795 156.345 351.896 157.365L352.066 159.236L353.964 159.109L355.862 158.981L356.066 156.642L356.269 154.304L356.303 156.515C356.337 157.705 356.438 158.981 356.54 159.279C356.676 159.747 356.269 159.832 354.405 159.704L352.1 159.534L352.235 162.425C352.303 164.552 352.235 165.189 351.998 164.722C351.795 164.381 351.625 163.063 351.625 161.83V159.576L349.862 159.704C348.1 159.832 348.066 159.874 348.1 161.107C348.1 161.788 348.235 163.489 348.405 164.807L348.642 167.273H350.303C351.218 167.273 351.964 167.06 351.964 166.848C351.964 166.593 352.134 166.423 352.303 166.423C352.506 166.423 352.642 166.678 352.642 166.933C352.642 167.358 354.133 167.486 358.777 167.528C362.675 167.571 365.014 167.783 365.15 168.038C365.285 168.294 365.726 168.676 366.167 168.889C366.777 169.144 366.37 169.272 364.641 169.314C346.066 169.909 337.524 170.335 337.253 170.675C337.016 170.972 337.422 171.1 338.338 171.1C339.253 171.1 339.761 171.27 339.761 171.61C339.761 172.036 340.744 172.121 343.897 172.036C346.744 171.908 347.964 171.993 347.727 172.291C347.252 172.928 342.778 175.012 341.964 175.012C340.71 174.97 335.524 173.651 334.914 173.226C334.575 172.971 333.253 172.503 331.931 172.206C329.931 171.738 329.457 171.738 329.084 172.206C328.846 172.546 328.27 172.801 327.83 172.801C326.88 172.801 326.406 173.184 326.135 174.119C325.897 174.884 326.067 174.842 309.424 176.033C296.983 176.926 296.272 176.968 291.289 177.266C288.95 177.393 284.984 177.606 282.476 177.776C279.967 177.904 277.527 178.031 277.052 178.031C276.578 177.989 271.696 178.244 266.205 178.584C245.562 179.775 185.124 180.923 184.717 180.115C184.412 179.477 186.582 176.798 187.734 176.415L188.751 176.075L187.802 175.735C186.548 175.31 185.904 175.65 185.497 176.926C185.192 177.946 185.09 177.989 182.548 177.776C181.09 177.691 179.497 177.308 178.955 176.968C178.04 176.373 178.175 176.33 181.836 176.033C183.972 175.863 185.768 175.565 185.802 175.352C185.87 175.097 186.31 174.927 186.785 174.927C188.005 174.927 187.598 174.544 186.276 174.417C185.666 174.374 185.192 174.162 185.192 173.992C185.192 173.821 184.819 173.651 184.344 173.651C183.531 173.651 181.87 172.631 181.429 171.823C181.294 171.61 180.785 171.398 180.243 171.313C178.751 171.1 177.633 170.717 177.429 170.335C177.158 169.824 176.04 169.314 175.091 169.229C174.65 169.187 174.175 168.931 174.04 168.634C173.904 168.294 173.26 167.953 172.65 167.868C172.04 167.741 171.328 167.358 171.057 167.018C170.786 166.678 170.413 166.423 170.243 166.423C170.074 166.423 169.26 166.04 168.413 165.53C167.599 165.062 166.752 164.764 166.549 164.934C166.345 165.104 166.243 164.977 166.277 164.679C166.345 164.381 166.006 163.999 165.532 163.871C165.057 163.744 164.108 163.276 163.43 162.893C162.718 162.511 162.04 162.17 161.871 162.17C161.362 162.17 159.769 161.107 159.769 160.767C159.769 160.554 159.634 160.554 159.43 160.682C159.261 160.81 158.447 160.469 157.634 159.874C156.82 159.236 155.668 158.769 155.091 158.769C154.515 158.769 153.973 158.598 153.837 158.386C153.736 158.173 153.193 157.833 152.617 157.705C152.041 157.535 151.295 157.068 150.956 156.642C150.21 155.707 149.295 155.452 148.651 155.962C148.38 156.175 148.041 156.09 147.804 155.792C147.499 155.367 147.499 155.324 147.838 155.537C148.041 155.707 148.244 155.664 148.244 155.452C148.244 155.197 147.871 154.899 147.397 154.771C146.922 154.601 146.583 154.346 146.685 154.134C146.787 153.964 146.685 153.793 146.448 153.751C146.21 153.708 145.6 153.581 145.058 153.411C144.346 153.198 144.143 153.241 144.312 153.623C144.651 154.261 144.448 154.219 143.295 153.411L142.312 152.73L143.261 152.986C143.77 153.156 144.177 153.071 144.177 152.858C144.177 152.645 143.329 152.348 142.245 152.178C141.194 152.007 140.007 151.71 139.634 151.54C138.957 151.157 138.957 151.157 139.601 151.115C140.041 151.072 139.906 150.902 139.16 150.647C138.55 150.392 137.296 149.669 136.414 148.988C135.499 148.266 134.448 147.713 134.042 147.713C133.669 147.713 133.33 147.5 133.33 147.288C133.33 147.032 132.923 146.862 132.414 146.862C130.923 146.905 127.228 145.459 127.228 144.821C127.228 144.524 127.093 144.396 126.889 144.524C126.72 144.651 126.55 144.609 126.55 144.439C126.55 143.673 124.11 142.482 122.415 142.397C120.686 142.312 118.754 141.632 118.754 141.122C118.754 140.952 118.957 140.994 119.195 141.164C119.466 141.377 119.466 141.249 119.127 140.782C118.652 140.016 118.246 139.804 118.585 140.441C118.686 140.654 118.618 140.952 118.415 141.122C118.246 141.249 118.076 141.079 118.076 140.739C118.076 140.016 117.805 139.761 116.686 139.463C114.246 138.783 112.653 138.06 112.89 137.763C113.026 137.55 112.788 137.55 112.314 137.72C111.602 138.018 111.534 137.975 111.907 137.422C112.246 136.87 112.212 136.784 111.534 136.955C111.093 137.082 110.144 136.742 109.399 136.274C108.687 135.764 107.839 135.381 107.534 135.381C107.229 135.381 106.585 134.999 106.111 134.531C105.161 133.595 104.687 133.425 105.06 134.148C105.195 134.446 104.822 134.318 104.212 133.85C103.636 133.425 103.162 132.872 103.162 132.66C103.162 132.447 103.06 132.362 102.958 132.532C102.856 132.66 102.246 132.405 101.602 131.979C100.823 131.427 100.111 131.214 99.3651 131.384C98.6194 131.554 98.3821 131.512 98.6872 131.214C99.06 130.916 98.9922 130.789 98.4499 130.576C98.077 130.491 97.7381 130.534 97.6703 130.704C97.5008 131.214 96.0432 130.364 96.0432 129.726C96.0432 129.13 94.6873 128.152 93.8399 128.152C93.5687 128.152 93.3315 127.94 93.3315 127.727C93.3315 127.472 93.1281 127.302 92.8569 127.302C92.5857 127.302 92.3146 127.132 92.2468 126.877C92.2129 126.664 91.5688 126.409 90.8909 126.281C90.1791 126.196 89.4333 125.941 89.1961 125.729C88.4164 125.133 86.4165 124.325 85.5352 124.325C84.8573 124.325 84.7895 124.24 85.1962 123.9C85.5013 123.645 85.5352 123.475 85.2979 123.475C85.0945 123.475 84.6539 123.347 84.3149 123.177C83.976 123.007 83.8065 123.092 83.9421 123.305C84.0437 123.56 83.8065 123.73 83.3997 123.773C82.9929 123.773 82.8574 123.73 83.0946 123.603C83.9082 123.22 83.4675 122.752 81.976 122.497C81.1286 122.327 80.0439 122.114 79.5355 121.987C78.6203 121.732 78.6203 121.732 79.2304 122.369C80.01 123.135 79.705 123.262 78.7219 122.582C78.3491 122.369 78.1457 121.987 78.2813 121.732C78.383 121.476 78.1457 121.434 77.6711 121.562C77.2305 121.689 76.417 121.604 75.8746 121.349C75.1289 121.009 74.8577 121.009 74.6204 121.434C74.4509 121.817 74.3832 121.604 74.4171 120.924C74.4848 119.818 73.2307 114.758 72.6205 113.695C72.3154 113.142 72.2816 113.142 72.451 113.695C73.2646 116.671 74.0781 120.158 73.9764 120.243C73.9086 120.328 72.3154 119.733 70.4511 118.968C68.5868 118.202 66.892 117.564 66.7225 117.564C66.4852 117.522 66.4174 118.16 66.4852 119.095C66.5869 119.988 66.553 120.583 66.4174 120.456C66.3157 120.328 66.1462 119.138 66.0445 117.82C65.8412 115.396 64.7904 110.591 64.1802 109.443C63.6718 108.422 63.7735 109.443 64.4853 111.781C64.8243 112.929 65.1971 114.545 65.2988 115.268C65.57 116.969 65.3327 117.012 62.4176 115.821C58.2483 114.12 57.1975 113.737 54.6891 113.015C52.8248 112.462 51.8757 111.909 50.9605 110.888C49.5368 109.273 49.0284 108.975 44.6896 107.529C40.0457 105.998 40.0118 105.998 38.622 109.102ZM146.719 164.807C147.634 165.317 147.871 166.72 147.16 167.656C146.787 168.123 146.821 168.166 147.193 167.911C147.499 167.698 147.6 167.783 147.499 168.166C147.397 168.506 147.126 168.719 146.922 168.634C146.685 168.591 146.583 168.719 146.719 168.974C146.821 169.229 147.092 169.272 147.295 169.144C147.532 168.931 147.6 169.101 147.465 169.527C147.363 169.909 147.397 170.335 147.6 170.462C147.77 170.632 147.838 170.887 147.736 171.1C147.634 171.313 147.736 171.61 147.939 171.78C148.21 171.95 148.244 171.908 148.109 171.61C147.77 170.887 148.109 170.972 149.126 171.78C149.804 172.376 150.142 172.418 150.82 171.993C151.295 171.738 151.939 171.525 152.312 171.525C153.024 171.525 153.024 170.165 152.278 169.909C151.905 169.782 151.871 169.824 152.244 170.165C152.617 170.462 152.583 170.59 152.142 170.845C151.634 171.057 151.6 170.887 151.803 169.527C152.041 167.783 152.312 167.23 152.549 167.953C152.617 168.251 153.024 168.379 153.43 168.251C154.007 168.081 154.075 168.123 153.668 168.506C153.261 168.846 153.261 168.974 153.769 169.229C154.346 169.484 154.346 169.569 153.803 170.292C153.464 170.76 153.329 171.228 153.43 171.398C153.566 171.525 153.668 171.44 153.668 171.1C153.668 170.675 153.769 170.675 154.176 171.1C154.549 171.483 154.685 171.483 154.685 171.143C154.685 170.845 154.854 170.76 155.091 170.93C155.329 171.143 155.803 171.313 156.108 171.313C156.549 171.355 156.685 171.185 156.515 170.59C156.312 169.739 156.617 169.612 157.396 170.25C157.735 170.505 157.769 170.675 157.498 170.675C156.413 170.675 157.295 171.44 160.04 172.758C161.667 173.566 165.294 175.607 168.108 177.351C170.921 179.052 173.362 180.455 173.565 180.455C173.769 180.455 174.108 180.753 174.345 181.093C175.023 182.113 174.243 181.858 172.074 180.455C170.989 179.732 169.803 179.094 169.43 178.967C169.057 178.882 168.243 178.626 167.667 178.371C166.04 177.776 164.311 178.201 163.328 179.434L162.447 180.54L161.227 178.159C160.583 176.798 159.973 175.82 159.871 175.948C159.769 176.033 159.905 176.543 160.108 177.053C160.312 177.563 160.413 178.286 160.278 178.669C160.176 179.052 160.006 181.348 159.973 183.687C159.871 187.726 159.769 188.237 158.651 191.086C156.413 196.571 153.702 198.952 149.837 198.91C147.973 198.867 147.329 198.654 146.21 197.719C143.261 195.295 141.736 188.492 142.956 183.261C143.295 181.901 143.499 180.71 143.431 180.625C143.363 180.54 141.838 180.455 140.075 180.455C136.855 180.37 134.55 179.902 134.177 179.179C133.838 178.499 134.923 175.863 135.77 175.31C136.279 174.927 137.94 174.714 140.516 174.714C142.719 174.672 144.583 174.544 144.685 174.417C144.787 174.289 144.651 173.949 144.346 173.651C144.075 173.354 143.838 172.758 143.838 172.333C143.838 171.865 143.702 171.525 143.567 171.525C143.397 171.525 142.99 171.228 142.617 170.845C142.007 170.25 142.007 170.25 142.787 170.717L143.634 171.228L142.787 169.909C141.939 168.549 141.431 168.166 141.601 169.059C141.634 169.357 141.634 169.484 141.567 169.272C141.465 169.101 141.295 169.059 141.16 169.144C141.024 169.272 140.889 168.634 140.855 167.783C140.787 166.678 140.889 166.38 141.092 166.805C141.262 167.145 141.329 167.698 141.194 168.038C141.092 168.421 141.16 168.591 141.363 168.421C141.736 168.123 144.177 168.974 144.177 169.442C144.177 169.612 144.414 169.867 144.719 169.994C145.16 170.207 145.194 170.122 144.922 169.739C144.685 169.357 144.719 168.931 145.092 168.336C145.431 167.783 145.566 167.741 145.431 168.166C145.329 168.549 145.431 168.846 145.702 168.846C146.041 168.846 146.075 168.549 145.838 167.826C145.533 166.763 145.397 164.296 145.702 164.296C145.77 164.296 146.244 164.509 146.719 164.807ZM60.6211 171.738C62.8582 172.843 65.1632 173.906 65.7056 174.119C66.2818 174.332 68.4173 175.352 70.4511 176.458C72.5188 177.521 75.2306 178.882 76.5187 179.434C77.8406 180.03 79.366 180.838 79.9083 181.22L80.9591 181.943L78.9253 182.198C77.8067 182.368 75.3662 182.496 73.5357 182.539C70.2477 182.581 70.18 182.581 69.2308 181.305C68.6885 180.625 68.2478 179.945 68.2478 179.86C68.2478 179.775 68.7563 179.562 69.3664 179.392L70.4511 179.052L69.4342 178.882C67.9089 178.669 61.2312 176.628 58.994 175.735C57.9432 175.267 56.1128 174.927 54.8925 174.927C51.1977 174.927 49.2995 175.777 51.6723 176.373C52.2824 176.5 54.1468 177.478 55.8755 178.499C58.8923 180.285 60.0109 181.305 58.9601 181.305C58.6889 181.305 58.35 181.093 58.2483 180.88C57.9771 180.327 55.2654 180.327 54.8247 180.88C54.6213 181.135 54.0451 181.433 53.5027 181.561C52.3163 181.816 50.9944 180.327 51.6045 179.434C52.113 178.669 51.7062 177.478 50.7571 177.053C50.2147 176.798 50.0114 176.415 50.1469 175.99C50.2486 175.65 50.1808 175.352 49.9775 175.352C49.7741 175.352 49.6046 174.97 49.6046 174.544C49.6046 173.609 50.5876 173.014 51.0961 173.651C51.8757 174.629 52.5536 174.119 52.7909 172.376C52.9943 170.717 53.401 170.207 53.8417 171.1C54.1807 171.78 54.5535 171.61 55.0281 170.42C55.5704 169.187 55.2315 169.101 60.6211 171.738ZM245.867 195.423C245.867 195.55 246.206 195.593 246.647 195.465C247.359 195.253 247.359 195.253 246.748 195.848C246.24 196.358 246.24 196.486 246.647 196.486C247.291 196.486 249.494 197.762 249.765 198.314C249.867 198.569 250.274 198.74 250.613 198.74C250.952 198.74 251.291 198.867 251.358 199.037C251.494 199.505 253.562 201.291 253.968 201.291C254.138 201.291 254.341 201.546 254.443 201.886C254.579 202.311 254.443 202.396 253.901 202.226C253.494 202.141 252.951 201.844 252.748 201.589C252.477 201.376 252.307 201.333 252.307 201.589C252.307 201.801 253.867 202.907 255.765 204.055C257.629 205.203 259.561 206.521 259.968 206.946C260.409 207.372 262.409 208.775 264.409 210.093C269.358 213.325 273.391 216.641 272.984 217.194C272.815 217.364 268.51 214.855 265.697 212.942C264.002 211.794 260.816 210.05 259.426 209.54C255.867 208.265 253.968 207.031 254.206 206.223C254.375 205.628 253.867 204.99 252.85 204.523C252.24 204.267 252.24 204.31 252.782 205.33C253.087 205.926 253.189 206.394 253.019 206.394C252.85 206.394 252.443 205.628 252.104 204.735C251.494 202.949 251.223 202.737 248.003 201.206C246.816 200.696 245.867 199.973 245.867 199.675C245.867 199.42 245.426 198.357 244.85 197.379C243.596 195.21 243.596 194.913 244.85 195.04C245.392 195.083 245.867 195.253 245.867 195.423Z" fill="#E36830"/>
<path d="M149.6 173.821C144.651 177.138 142.583 184.962 144.956 191.298C146.617 195.763 148.346 197.421 151.159 197.294C154.99 197.124 158.549 191.511 158.99 184.877C159.193 181.56 158.82 179.477 157.532 176.968C155.6 173.226 152.414 171.95 149.6 173.821Z" fill="#F7AA7C"/>
<path d="M285.526 133.298C284.509 133.808 282.476 136.189 282.476 136.912C282.476 137.167 282.238 137.677 281.933 137.975C281.628 138.315 281.018 139.251 280.611 140.059C280.205 140.867 279.289 142.27 278.611 143.12C277.933 143.971 277.391 144.864 277.391 145.119C277.391 145.331 276.781 146.309 276.035 147.287C275.289 148.265 274.679 149.243 274.679 149.456C274.679 149.669 274.544 149.839 274.374 149.839C274.205 149.839 273.934 150.264 273.798 150.774C273.662 151.327 272.849 152.603 272.001 153.708C271.154 154.771 270.408 155.834 270.374 156.09C270.341 156.302 269.629 157.365 268.815 158.386C267.358 160.172 265.866 162.978 265.866 163.914C265.866 164.169 265.154 165.232 264.273 166.337C263.358 167.443 262.341 168.889 261.968 169.612C261.595 170.292 260.951 171.228 260.544 171.695C260.104 172.163 259.765 172.886 259.765 173.311C259.765 173.736 259.629 174.077 259.426 174.077C259.256 174.077 259.087 174.332 259.087 174.672C259.087 175.012 258.883 175.352 258.68 175.48C257.9 175.82 261.46 176.33 262.849 176.033C263.561 175.905 266.951 175.692 270.374 175.565C273.764 175.437 278.137 175.225 280.103 175.097C282.069 174.97 284.645 174.842 285.865 174.799L288.035 174.714L288.78 171.95C290.543 165.189 292.238 158.386 292.645 156.43C292.882 155.239 293.323 153.708 293.594 153.028C293.865 152.305 294.136 151.157 294.204 150.392C294.272 149.669 294.611 148.265 294.984 147.33C295.39 146.394 295.695 145.246 295.695 144.821C295.695 143.843 296.746 139.931 297.051 139.633C297.187 139.506 297.187 139.038 297.051 138.57C296.882 138.018 295.831 137.252 293.933 136.359C292.407 135.636 290.102 134.531 288.814 133.935C287.56 133.34 286.509 132.83 286.442 132.872C286.408 132.872 286.001 133.085 285.526 133.298Z" fill="#F7AA7C"/>
<path d="M344.71 151.455C342.88 151.625 342.981 151.285 343.659 155.792C343.761 156.6 343.93 157.663 343.964 158.131C344.032 158.598 344.1 159.151 344.134 159.321C344.134 159.534 344.812 159.619 345.625 159.534L347.049 159.406V156.77C347.049 155.367 347.151 154.049 347.32 153.836C347.456 153.666 347.557 154.091 347.557 154.771C347.557 155.452 347.659 156.727 347.761 157.578L347.998 159.194H349.828H351.693L351.456 156.94C351.286 155.749 351.218 154.006 351.252 153.113C351.252 152.263 351.184 151.54 351.015 151.54C347.422 151.242 347.218 151.285 347.185 152.39C347.151 153.241 347.117 153.283 346.981 152.603C346.744 151.412 346.574 151.327 344.71 151.455Z" fill="#F5DCCE"/>
<path d="M337.151 151.922C336.948 152.05 336.711 152.475 336.609 152.815C336.473 153.283 336.405 153.283 336.405 152.645C336.372 152.007 336.202 151.922 335.456 152.178C334.914 152.348 334.1 152.475 333.592 152.433C332.643 152.39 332.236 153.326 332.982 153.878C333.151 154.006 333.287 154.644 333.287 155.282C333.253 157.025 333.49 158.471 334.1 160.044C334.439 160.81 334.677 161.873 334.677 162.383C334.677 162.851 334.812 163.446 334.982 163.659C335.117 163.914 335.456 164.977 335.66 166.04C336.1 167.996 336.1 168.038 337.592 168.038C338.778 168.081 339.083 167.953 339.117 167.358C339.117 166.933 339.219 166.848 339.321 167.145C339.388 167.443 339.931 167.698 340.473 167.698C341.253 167.698 341.456 167.528 341.49 166.72V165.785L341.795 166.72C342.032 167.486 342.371 167.698 343.354 167.698H344.575L344.439 165.997C344.371 165.062 344.439 164.296 344.575 164.296C344.744 164.296 344.846 164.849 344.846 165.53C344.846 166.252 344.981 166.89 345.185 167.06C345.558 167.358 347.829 167.486 348.032 167.23C348.269 166.89 347.388 159.832 347.151 159.917C346.981 160.002 346.269 160.044 345.524 160.044H344.168L344.337 162.043C344.507 164.041 344.473 164.041 344.134 162.596C343.931 161.788 343.727 160.895 343.659 160.682C343.592 160.427 342.948 160.172 342.236 160.129L340.88 160.002L341.117 161.958C341.253 163.021 341.219 163.871 341.049 163.871C340.914 163.871 340.778 163.233 340.778 162.468C340.778 160.384 340.405 159.917 339.049 160.342C338.066 160.682 337.117 160.725 335.219 160.512C334.507 160.427 335.456 159.874 336.304 159.832C337.049 159.832 337.253 159.576 337.388 158.556L337.592 157.28L337.829 158.726C337.999 159.789 338.202 160.087 338.609 159.874C338.914 159.747 339.422 159.619 339.761 159.619C340.304 159.619 340.337 159.406 340.066 158.003C339.897 157.153 339.795 156.132 339.795 155.792C339.829 155.452 340.032 156.09 340.236 157.28C340.643 159.364 340.643 159.406 342.066 159.534C343.422 159.661 343.49 159.619 343.456 158.471C343.456 157.833 343.253 156.047 343.015 154.516L342.609 151.752L341.015 151.625L339.422 151.497L339.592 152.9L339.761 154.304L339.422 152.985C339.185 151.965 338.88 151.625 338.27 151.625C337.829 151.625 337.321 151.752 337.151 151.922Z" fill="#F7AA7C"/>
<path d="M22.4871 183.261C22.4871 183.346 23.0972 184.58 23.809 185.983C24.5548 187.386 25.2327 189.3 25.3683 190.235C25.5039 191.256 25.8428 192.106 26.2157 192.361C26.7581 192.744 26.8936 192.574 27.2326 191.213C27.436 190.32 27.6733 188.747 27.8089 187.769C27.9105 186.748 28.1817 185.813 28.419 185.728C28.6563 185.6 29.8427 185.813 31.0968 186.153C32.351 186.536 33.4357 186.833 33.5035 186.833C33.5713 186.833 33.7747 186.28 33.9442 185.6C34.2492 184.494 34.2154 184.367 33.4696 184.154C32.9951 184.069 31.0968 183.942 29.2664 183.899C27.4021 183.857 25.131 183.644 24.1819 183.474C23.2667 183.304 22.4871 183.176 22.4871 183.261Z" fill="#E36830"/>
<path d="M97.2838 261.087V262.363H94.8094C93.4535 262.363 92.1993 262.193 92.0298 261.98C91.8265 261.725 91.657 267.083 91.6231 276.523C91.5892 284.772 91.4875 297.911 91.4197 305.735C91.318 313.56 91.3858 321.299 91.5214 322.957C91.657 324.573 91.7926 325.338 91.8265 324.615C91.8603 323.637 92.0637 323.212 92.5722 323.042C93.1823 322.829 93.284 322.532 93.1484 321.086L93.0128 319.343H94.4704H95.928V321.044V322.744L97.3855 322.829C102.097 323.042 101.86 323.085 101.962 321.554C102.063 320.321 101.995 320.193 101.216 320.193C100.741 320.193 100.335 319.98 100.335 319.768C100.335 319.215 101.182 319.215 102.64 319.725C103.25 319.98 103.656 319.98 103.555 319.768C103.453 319.555 103.487 319.3 103.656 319.173C104.199 318.79 104.809 319.683 104.945 321.044C105.012 321.851 105.182 322.574 105.283 322.702C105.385 322.829 109.419 322.957 114.266 322.957C121.012 322.957 123.147 323.085 123.35 323.51C123.554 323.935 123.791 323.893 124.605 323.425C125.384 322.915 127.554 322.744 134.808 322.659C140.943 322.574 144.163 322.362 144.4 322.064C144.841 321.511 145.18 308.84 145.214 290.512L145.248 277.628L141.519 277.501C137.214 277.331 136.028 277.033 135.858 276.055C135.791 275.63 135.757 272.781 135.791 269.677L135.858 264.064H133.689C131.994 264.064 131.52 263.936 131.52 263.426C131.52 262.745 130.977 262.575 130.706 263.171C130.57 263.383 129.282 263.553 127.791 263.553C125.757 263.511 125.079 263.383 125.079 262.958C125.079 262.618 124.842 262.363 124.571 262.363C124.3 262.363 124.062 262.66 124.062 263.043C124.062 263.681 123.689 263.723 120.944 263.468C119.249 263.341 117.419 263.213 116.842 263.213C115.995 263.213 115.893 263.128 116.266 262.575C116.605 262.065 116.605 261.937 116.164 261.937C115.893 261.937 115.114 262.235 114.47 262.575C112.944 263.383 112.198 263.383 112.198 262.618C112.198 261.64 111.215 261.47 110.843 262.363C110.368 263.511 108.131 263.596 108.131 262.448C108.097 261.767 108.097 261.767 107.792 262.448C107.487 263.043 107.012 263.128 104.131 262.916C100.775 262.66 100.335 262.405 100.335 260.747C100.335 259.939 100.165 259.811 98.8092 259.811C97.3516 259.811 97.2838 259.854 97.2838 261.087Z" fill="#3C2F2D"/>
<path d="M87.1148 261.3C87.1148 261.64 86.9114 262.065 86.708 262.15C86.369 262.32 86.3012 263.596 86.3351 266.828C86.369 270.017 86.2673 271.292 85.9962 271.335C85.7589 271.377 84.8098 271.377 83.8268 271.292L82.0641 271.207L81.9625 272.866L81.8608 274.482L79.9964 274.609C78.1999 274.737 78.166 274.737 78.7423 273.929C79.0473 273.504 79.3185 272.781 79.2846 272.313C79.2507 271.718 79.1829 271.76 79.0134 272.568C78.8439 273.333 78.5728 273.589 78.0643 273.504C77.5898 273.419 77.3186 273.674 77.183 274.312C77.0135 275.034 76.8101 275.162 76.2 274.949C75.217 274.567 62.2684 273.886 56.2009 273.844C51.7604 273.844 51.5231 273.801 51.5231 272.993C51.5231 271.803 49.9978 271.845 49.4893 273.036C49.1165 273.844 48.9131 273.886 44.4726 273.631C41.9303 273.504 39.1508 273.163 38.3034 272.951C37.2526 272.653 36.4391 272.653 35.8628 272.951C35.1849 273.291 34.9137 273.248 34.7781 272.738C34.5747 272.058 33.5578 271.93 33.5578 272.568C33.5578 273.291 29.9648 273.078 29.4902 272.355C29.1512 271.845 28.9479 271.803 28.6089 272.185C28.3377 272.483 27.6598 272.568 26.9818 272.398C26.3378 272.228 25.7277 272.27 25.6599 272.441C25.4904 272.781 5.59297 272.1 4.2371 271.718C4.06762 271.675 3.01681 271.633 1.96601 271.675L0 271.718V291.916C0 309.605 0.0677936 312.114 0.508452 312.114C0.779626 312.114 1.0169 312.284 1.0169 312.539C1.0169 313.177 1.66094 313.049 2.23719 312.326C2.67785 311.816 2.91512 311.774 3.49137 312.199C4.50827 312.879 5.76246 313.092 5.76246 312.539C5.76246 312.284 6.84715 312.114 8.4742 312.114C10.9487 312.114 11.1859 312.029 11.1859 311.263C11.1859 310.583 11.4232 310.413 12.2028 310.413C12.9825 310.413 13.2198 310.583 13.2198 311.263C13.2198 312.071 13.457 312.199 14.9146 312.199C17.8975 312.199 17.9653 312.199 17.9653 310.838C17.9653 309.563 17.9653 309.563 19.9652 309.563C21.9312 309.563 21.999 309.605 22.1007 310.711C22.2024 311.859 22.2363 311.901 24.4057 311.859C27.4903 311.859 28.236 311.561 28.5072 310.37C28.7445 309.35 28.8801 309.52 28.9479 311.051C28.9818 311.646 29.3207 311.944 30.3037 312.199C31.6596 312.582 32.5409 312.114 32.5409 311.051C32.5409 310.413 33.7951 310.03 35.5916 310.03C36.2357 310.073 36.9475 309.988 37.117 309.903C37.3204 309.86 37.456 309.903 37.456 310.03C37.456 310.583 38.4051 311.689 38.8796 311.689C39.1508 311.689 39.4559 311.306 39.5576 310.838C39.6593 310.37 39.9643 309.988 40.2694 309.988C40.5406 309.988 40.6762 310.115 40.5745 310.243C40.0999 310.881 41.0829 312.114 42.032 312.114H43.0489L43.0828 317.514C43.0828 320.533 43.0828 325.721 43.0489 329.123L43.015 335.289L43.8964 335.799C44.4726 336.139 45.1166 336.139 45.8624 335.884C47.3199 335.374 48.9131 335.374 48.6419 335.926C48.5402 336.139 48.608 336.352 48.7775 336.352C48.9809 336.352 49.1504 336.181 49.1504 335.969C49.1504 335.756 49.7605 335.629 50.5062 335.671C51.252 335.714 51.8621 335.586 51.8621 335.416C51.8621 335.203 52.4383 335.161 53.1502 335.331C53.8281 335.459 55.0145 335.629 55.7602 335.671C56.506 335.714 57.3873 335.926 57.7262 336.139C58.0991 336.309 58.7093 336.267 59.1838 336.011C59.7601 335.629 59.9973 335.629 59.9973 335.969C59.9973 336.607 62.7769 336.096 63.0819 335.416C63.4548 334.651 64.4717 335.926 64.2683 336.862C64.1327 337.627 64.1666 337.627 65.2852 336.819C65.9293 336.309 66.5055 336.139 66.6072 336.394C66.7428 336.607 67.2512 336.522 67.8953 336.096C69.8952 334.778 70.1664 334.651 70.8104 334.651C71.6578 334.651 71.9968 335.289 71.2511 335.416C68.641 335.756 68.2004 336.011 68.4037 336.904C68.641 338.265 69.1156 338.903 69.6918 338.605C69.9969 338.478 70.1664 338.648 70.1664 339.073C70.1664 339.711 70.2342 339.711 71.0138 339.03C71.4544 338.605 71.8612 338.01 71.8612 337.755C71.8612 336.819 73.895 335.884 76.0305 335.799L78.1321 335.714L78.2338 331.462C78.3016 329.123 78.4033 326.231 78.4372 325.083L78.5389 322.957L84.1657 323C89.1486 323.042 89.8265 322.957 89.8604 322.362C89.8943 321.979 89.9282 316.791 89.996 310.838C90.0299 304.885 90.1655 296.338 90.3011 291.916C90.5722 282.051 90.8773 267.083 90.8434 264.489C90.8095 262.065 90.8773 262.15 88.9113 262.023C88.4706 261.98 88.1656 261.725 88.2334 261.427C88.2673 261.172 88.03 260.832 87.7249 260.747C87.352 260.662 87.1148 260.874 87.1148 261.3Z" fill="#3C2F2D"/>
<path d="M164.23 274.949C163.62 275.29 161.756 275.502 159.417 275.545H155.654L155.451 278.606C155.349 280.307 155.18 289.322 155.078 298.677C154.976 307.989 154.841 315.771 154.739 315.941C154.637 316.111 153.383 316.239 151.959 316.196L149.315 316.153L149.349 296.891L149.417 277.671H148.265C147.621 277.671 147.112 277.458 147.112 277.246C147.112 276.99 147.01 276.82 146.875 276.82C146.705 276.82 146.604 291.491 146.604 309.477V342.092L145.519 343.58C144.909 344.388 144.4 345.324 144.4 345.706C144.4 346.259 144.367 346.259 144.061 345.706C143.824 345.239 143.722 345.239 143.722 345.621C143.722 345.919 143.587 346.047 143.383 345.919C143.214 345.792 143.045 345.919 143.045 346.302C143.045 346.642 143.248 347.025 143.485 347.152C143.689 347.237 143.18 347.322 142.299 347.28C141.079 347.195 140.672 347.025 140.672 346.514C140.672 346.047 139.96 345.621 137.96 345.069C135.214 344.261 134.638 343.708 135.248 342.305C135.723 341.157 135.655 340.179 135.079 340.179C134.808 340.179 134.503 340.816 134.367 341.752C134.062 343.793 133.858 343.921 131.926 343.665C130.096 343.453 129.825 343.24 130.469 342.772C131.079 342.305 131.587 338.903 131.045 338.903C130.808 338.903 130.503 339.073 130.333 339.286C130.13 339.456 129.554 339.753 128.977 339.923C128.333 340.094 128.13 340.051 128.435 339.838C128.774 339.541 128.774 339.371 128.469 339.116C128.266 338.945 127.893 339.158 127.621 339.583C127.384 340.051 127.045 340.264 126.91 340.051C126.774 339.881 126.876 339.753 127.147 339.711C127.418 339.711 127.35 339.541 126.944 339.328L126.266 338.945L126.944 338.903C127.52 338.818 127.486 338.775 126.774 338.435L125.927 338.095L126.774 338.18C127.249 338.223 127.859 338.052 128.13 337.882C128.401 337.67 128.537 337.627 128.401 337.84C128.266 338.01 128.367 338.435 128.638 338.733C129.181 339.413 130.299 339.541 129.994 338.903C129.893 338.648 130.028 338.478 130.367 338.478C130.74 338.478 130.876 338.223 130.74 337.627C130.638 337.032 130.74 336.777 131.113 336.734C131.452 336.692 130.842 336.522 129.825 336.352C128.198 336.096 127.893 336.181 127.418 336.904C126.842 337.797 126.164 337.245 126.638 336.309C126.774 336.011 126.672 335.884 126.401 336.011C126.13 336.139 125.961 336.522 126.028 336.904C126.096 337.457 125.893 337.542 124.91 337.415C123.825 337.245 123.723 337.287 123.723 338.223C123.723 339.243 124.808 340.179 125.011 339.371C125.079 339.158 125.35 339.073 125.622 339.201C126.503 339.626 126.13 340.051 124.91 339.966C123.554 339.923 123.52 340.051 124.232 342.177C124.639 343.41 124.672 343.58 124.266 343.198C123.859 342.772 123.791 343.368 123.825 347.195C123.825 349.619 123.723 351.787 123.622 351.957C123.283 352.34 123.35 356.039 123.689 356.72C123.859 357.06 124.232 357.188 124.706 356.975C125.859 356.55 126.842 357.102 126.605 358.08C126.333 359.144 126.977 360.207 127.723 359.866C128.232 359.611 128.232 359.654 127.825 360.292C127.418 360.929 127.418 361.015 127.825 360.887C128.096 360.802 127.96 360.929 127.554 361.185C126.672 361.652 126.537 362.29 127.283 362.29C127.554 362.29 127.791 362.46 127.791 362.715C127.791 363.481 129.655 363.183 130.062 362.333C130.401 361.695 130.401 361.482 130.062 361.312C129.825 361.227 130.062 361.057 130.571 360.929C131.079 360.802 131.418 360.844 131.35 361.015C131.248 361.227 131.418 361.482 131.723 361.61C132.503 361.993 132.774 361.908 132.265 361.482C131.926 361.227 132.028 361.057 132.672 360.844C133.282 360.674 133.553 360.292 133.553 359.696C133.553 358.888 133.384 358.803 132.028 359.016C130.876 359.144 130.299 359.016 129.757 358.421C129.384 357.953 128.672 357.613 128.232 357.613C127.757 357.613 127.452 357.358 127.452 356.975C127.452 356.465 127.588 356.422 128.062 356.72C128.74 357.145 131.147 357.102 131.757 356.635C131.994 356.465 132.469 356.507 132.808 356.72C133.147 356.932 134.401 357.06 135.621 356.975C136.808 356.847 138.401 356.805 139.146 356.847C139.892 356.847 141.417 356.89 142.536 356.932C144.672 356.975 144.604 356.89 144.705 359.314C144.739 360.207 145.044 360.547 146.265 361.1C147.146 361.525 147.858 361.652 147.96 361.397C148.095 361.185 147.993 361.015 147.824 361.015C147.621 361.015 147.451 360.207 147.451 359.186C147.451 357.4 147.485 357.358 148.705 357.273C149.383 357.188 150.061 357.06 150.197 356.932C150.468 356.72 153.892 348.428 153.892 348.003C153.892 347.875 153.756 347.875 153.586 348.045C153.417 348.173 153.18 348.088 153.044 347.833C152.942 347.62 151.722 347.407 150.332 347.407C147.892 347.407 146.604 346.77 148.095 346.259C148.502 346.132 148.807 345.877 148.807 345.706C148.807 345.494 149.146 345.451 149.587 345.536C150.129 345.664 150.061 345.579 149.383 345.239C148.739 344.941 148.536 344.601 148.739 344.303C148.909 344.006 148.943 343.41 148.773 342.943C148.536 342.135 148.502 342.135 148.502 343.028C148.468 343.538 148.332 344.091 148.129 344.218C147.926 344.346 147.892 344.176 147.993 343.836C148.129 343.368 147.993 343.155 147.654 343.155C147.349 343.155 147.112 342.985 147.112 342.73C147.112 342.517 147.349 342.432 147.621 342.56C147.892 342.73 148.129 342.645 148.129 342.39C148.129 342.135 147.993 341.879 147.824 341.794C147.18 341.497 146.875 329.08 147.316 322.617L147.553 319.343L148.671 319.258C149.315 319.258 149.993 319.215 150.231 319.173C150.434 319.13 150.671 319.683 150.739 320.406C150.942 322.617 150.976 322.659 153.79 322.574L156.434 322.532L156.332 321.129C156.23 319.768 156.23 319.768 157.756 319.768C159.112 319.768 159.281 319.895 159.213 320.618C159.146 321.086 159.01 321.596 158.874 321.724C158.23 322.532 158.807 322.787 160.806 322.617C161.993 322.489 163.145 322.277 163.315 322.149C163.518 322.022 163.755 322.064 163.891 322.319C164.196 322.915 165.688 322.829 165.654 322.192C165.586 319.938 165.721 319.768 167.315 319.768C168.84 319.768 168.874 319.81 168.637 320.916C168.535 321.554 168.23 322.234 168.026 322.404C167.349 322.915 167.891 323 170.128 322.787L172.297 322.532L172.399 317.217C172.467 314.282 172.603 310.115 172.704 307.904C172.84 305.225 172.772 303.737 172.501 303.354C172.297 303.014 172.196 302.291 172.264 301.738C172.365 301.186 172.264 299.612 172.026 298.252C171.586 295.53 171.687 294.254 172.365 294.254C172.874 294.254 173.179 287.749 172.874 282.986C172.738 281.115 172.806 279.244 172.942 278.819C173.484 277.458 172.433 276.055 170.603 275.757C169.687 275.587 168.128 275.204 167.111 274.907C165.62 274.524 165.044 274.524 164.23 274.949Z" fill="#3C2F2D"/>
<path d="M189.822 287.493C187.246 288.131 184.941 288.471 184.06 288.344C183.585 288.301 181.687 288.216 179.823 288.174C175.992 288.089 176.263 287.749 176.772 291.788C177.043 294.042 176.467 294.765 176.06 292.639C175.585 290.215 174.636 289.662 174.67 291.873C174.704 293.021 174.806 293.234 175.348 293.064C175.755 292.936 175.958 293.064 175.924 293.447C175.755 294.722 175.958 295.105 176.636 295.105C177.348 295.105 177.348 295.275 177.212 298.932C177.145 301.016 176.975 302.844 176.874 302.972C176.772 303.099 176.297 303.099 175.789 302.929C175.009 302.716 174.907 302.461 174.907 300.93C174.907 299.995 174.806 299.315 174.704 299.442C174.467 299.74 174.501 327.464 174.738 327.762C174.84 327.89 174.907 326.827 174.907 325.381V322.787L176.738 322.532C177.755 322.362 179.178 322.362 179.89 322.532C181.416 322.829 182.161 322.149 181.958 320.533C181.856 319.683 182.026 319.555 183.28 319.428L184.704 319.3L184.805 320.916L184.907 322.532H196.568H208.194L208.262 327.039L208.296 331.589L206.093 331.802C204.872 331.929 200.296 331.929 195.924 331.802L187.958 331.589L188.059 334.821C188.161 337.287 188.059 338.35 187.653 339.116C187.178 340.008 187.178 340.136 187.619 339.923C187.958 339.753 188.127 339.923 188.127 340.519C188.127 341.667 187.585 342.05 186.195 341.965C185.077 341.837 184.873 342.22 185.043 343.878C185.077 344.133 184.941 344.473 184.738 344.643C184.568 344.771 184.399 344.601 184.399 344.218C184.399 342.985 183.314 343.708 182.602 345.366C182.263 346.259 181.822 346.982 181.619 346.982C181.45 346.982 181.416 346.812 181.517 346.557C181.619 346.344 181.382 346.089 180.941 346.089C180.5 346.047 179.924 346.004 179.653 345.962C179.382 345.919 178.738 345.579 178.195 345.111C177.518 344.516 177.314 344.091 177.484 343.453C177.619 342.9 177.551 342.73 177.314 342.9C176.738 343.368 176.84 345.281 177.45 345.281C177.721 345.281 177.958 345.451 177.958 345.706C177.958 346.344 177.551 346.217 176.602 345.239C176.128 344.771 175.958 344.473 176.196 344.643C176.433 344.814 176.602 344.601 176.602 344.048C176.602 343.623 176.704 342.9 176.84 342.517C177.009 341.922 176.907 341.837 176.331 342.092C175.924 342.22 175.585 342.262 175.585 342.177C175.585 342.05 175.348 340.434 175.077 338.605C174.772 336.564 174.602 333.758 174.704 331.632C174.806 328.953 174.738 328.485 174.535 329.761C174.162 332.014 174.263 339.838 174.67 340.476C174.975 341.029 174.941 341.072 174.162 341.199C173.924 341.199 173.687 341.624 173.619 342.05C173.518 342.645 173.619 342.772 174.06 342.56C174.535 342.347 174.602 342.475 174.399 343.028C174.128 343.835 174.128 343.878 174.331 346.047C174.399 346.812 174.263 347.577 174.094 347.748C173.789 347.96 165.484 348.385 163.722 348.258C161.993 348.13 158.129 348.385 157.315 348.683C156.807 348.853 156.129 348.853 155.824 348.641C155.383 348.3 155.315 348.428 155.417 349.108C155.552 350.086 154.536 352.978 154.298 352.127C154.23 351.83 153.824 352.212 153.349 353.105C152.502 354.679 152.264 355.572 152.942 354.721C153.18 354.424 153.519 354.211 153.722 354.211C153.891 354.211 153.79 354.424 153.485 354.679C153.146 354.891 152.875 355.359 152.875 355.699C152.875 356.039 152.671 356.209 152.4 356.082C151.79 355.784 151.485 356.422 151.451 358.166C151.417 358.888 151.18 359.781 150.875 360.079C150.57 360.419 150.536 360.547 150.773 360.377C151.01 360.207 151.18 360.419 151.214 360.887C151.214 361.312 151.315 361.44 151.383 361.185C151.62 360.462 153.146 361.015 153.315 361.865C153.417 362.418 153.281 362.63 152.671 362.63C151.756 362.588 151.586 362.035 152.366 361.737C152.739 361.567 152.705 361.567 152.298 361.61C151.959 361.652 151.654 361.993 151.586 362.375C151.485 362.928 151.858 363.141 153.315 363.353C154.298 363.523 155.79 363.481 156.603 363.268C157.925 362.971 158.095 362.758 158.129 361.78C158.129 361.185 158.4 360.292 158.739 359.866C159.044 359.399 159.315 358.888 159.315 358.718C159.315 357.528 162.976 356.932 170.094 357.017L171.857 357.06V355.274C171.857 353.19 172.501 352.297 173.687 352.68C174.399 352.893 174.535 353.233 174.636 355.104C174.67 356.295 174.67 357.443 174.569 357.613C174.467 357.825 173.823 358.08 173.145 358.251C172.297 358.463 171.958 358.718 172.094 359.101C172.162 359.441 172.094 359.994 171.925 360.419C171.348 361.695 171.823 362.588 173.213 362.885C174.569 363.141 175.552 364.119 174.907 364.629C174.738 364.756 174.399 364.756 174.162 364.586C173.924 364.416 173.145 364.289 172.433 364.374C171.45 364.416 171.179 364.331 171.382 363.906C171.586 363.481 171.552 363.481 171.145 363.821C170.806 364.161 167.213 364.289 158.705 364.161L146.739 364.034L146.841 365.607C146.909 366.585 146.807 367.18 146.536 367.18C146.332 367.18 146.027 367.308 145.892 367.478C145.349 368.201 144.4 367.776 144.231 366.755C144.129 366.16 143.96 365.182 143.858 364.544C143.756 363.906 143.587 363.566 143.451 363.821C143.146 364.289 135.486 364.076 135.757 363.608C136.062 362.928 135.079 362.418 133.825 362.588C132.875 362.758 132.638 362.971 132.774 363.481C132.943 363.991 132.808 364.076 131.994 363.864C131.452 363.736 130.774 363.864 130.469 364.119C129.926 364.629 129.35 366.075 129.418 366.67C129.452 366.84 129.282 366.968 129.011 366.968C128.74 366.968 128.435 367.435 128.333 367.988C128.13 369.009 128.096 369.009 127.181 368.413C125.452 367.308 123.147 367.776 123.079 369.306C123.079 369.519 122.808 369.817 122.469 369.902C121.961 370.029 121.995 369.817 122.706 368.881L123.554 367.733L122.639 368.031C121.317 368.456 121.486 367.818 123.045 366.372C123.791 365.649 124.401 364.842 124.401 364.501C124.401 364.161 124.605 363.991 124.842 364.119C125.452 364.416 126.605 363.311 126.096 362.928C125.859 362.758 125.52 362.843 125.316 363.098C125.113 363.353 124.706 363.566 124.435 363.566C124.13 363.566 124.401 363.226 125.045 362.843C125.757 362.375 126.028 362.035 125.723 361.907C125.486 361.822 125.045 361.44 124.774 361.142C124.367 360.632 124.401 360.504 125.045 360.292C125.418 360.164 125.655 359.909 125.554 359.654C125.452 359.441 125.147 359.484 124.842 359.781C124.469 360.207 124.3 360.207 124.096 359.824C123.961 359.526 123.859 360.504 123.859 361.95C123.825 363.566 123.689 364.629 123.452 364.756C122.944 364.969 122.435 363.268 122.537 361.652C122.571 360.929 122.537 360.717 122.469 361.1C122.401 361.525 122.096 361.865 121.825 361.865C121.181 361.865 121.215 362.29 121.927 362.971C122.978 363.906 122.096 364.204 118.164 364.246C116.063 364.246 114.164 364.416 113.961 364.586C113.758 364.714 113.52 364.671 113.385 364.459C113.283 364.204 113.69 363.821 114.3 363.608C115.317 363.268 115.351 363.226 114.571 363.141C113.758 363.056 113.792 363.013 114.741 362.715C115.452 362.503 115.554 362.375 115.08 362.333C114.673 362.333 114.164 362.035 113.961 361.78C113.622 361.355 113.486 361.44 113.351 362.078C113.215 362.8 112.944 362.928 111.826 362.8C110.436 362.63 110.232 362.375 110.876 361.567C111.351 360.972 110.944 360.036 110.402 360.462C110.165 360.632 110.165 360.462 110.436 360.036C111.08 359.058 113.419 359.229 113.351 360.292C113.317 360.844 113.554 361.015 114.605 361.015C115.554 361.015 115.927 360.844 115.927 360.377C115.927 359.951 116.266 359.739 116.808 359.739C117.317 359.739 117.927 359.399 118.164 358.973C118.571 358.293 118.605 358.293 118.639 358.973C118.639 359.569 118.876 359.654 119.825 359.441C120.639 359.271 121.012 359.356 121.012 359.739C121.012 360.164 121.113 360.164 121.52 359.739C121.791 359.441 122.028 358.718 122.028 358.166C122.028 357.4 121.893 357.145 121.52 357.358C121.249 357.485 121.012 357.4 121.012 357.188C121.012 356.932 121.317 356.762 121.69 356.762C122.571 356.762 122.944 355.699 122.876 353.36C122.842 352.297 122.774 348.768 122.706 345.494C122.639 342.22 122.503 339.923 122.401 340.391C122.3 340.859 121.927 341.284 121.622 341.284C120.978 341.369 120.808 340.816 121.351 340.391C121.52 340.264 121.418 339.583 121.045 338.775C120.605 337.797 120.232 337.457 119.723 337.542C118.91 337.712 118.774 337.202 119.351 336.479C119.622 336.139 119.113 335.969 117.452 335.841C116.198 335.799 115.012 335.841 114.775 336.011C114.571 336.181 115.317 336.352 116.436 336.352C117.554 336.352 118.266 336.522 118.063 336.692C117.825 336.904 116.774 336.904 115.724 336.777C113.927 336.522 113.859 336.564 113.995 337.415C114.097 338.308 114.029 338.35 112.741 337.967C111.826 337.712 111.317 337.712 111.249 338.01C111.182 338.265 110.639 338.478 110.063 338.435C109.012 338.393 109.012 338.393 109.826 338.052C110.775 337.67 110.639 337.627 108.504 337.372C105.69 337.074 106.199 336.224 109.148 336.267C110.266 336.267 111.182 336.181 111.182 336.011C111.182 335.374 107.249 335.884 105.521 336.734C104.47 337.245 103.656 337.457 103.555 337.202C103.182 336.437 102.809 336.777 102.809 337.84C102.809 338.435 102.945 338.903 103.114 338.903C103.351 338.903 103.351 339.073 103.148 339.413C102.945 339.711 102.775 342.432 102.741 345.494C102.707 348.513 102.606 351.107 102.538 351.277C102.436 351.404 102.301 352.638 102.199 353.956C102.029 355.784 102.097 356.38 102.47 356.55C102.707 356.677 102.945 357.06 102.945 357.4C102.945 357.74 102.809 357.91 102.64 357.783C102.504 357.655 102.368 357.698 102.334 357.91C102.334 358.08 102.233 359.696 102.165 361.44C101.962 365.054 101.623 365.82 100.741 364.671C100.335 364.119 100.335 363.991 100.674 364.246C101.114 364.544 101.114 364.459 100.741 363.906C100.402 363.353 100.368 362.971 100.674 362.29C100.877 361.78 100.979 361.27 100.877 361.142C100.64 360.802 99.9956 362.971 99.9956 364.119C99.9956 364.756 99.8939 364.884 99.7244 364.501C99.4871 364.076 99.2498 364.076 98.4702 364.586C97.8262 365.012 97.3516 365.097 97.1143 364.842C96.7076 364.416 94.6399 365.437 94.1992 366.245C94.0636 366.457 93.4874 366.5 92.8433 366.287C92.1993 366.075 91.3858 365.905 91.0129 365.905C89.2164 365.734 89.2164 365.777 89.1825 363.651C89.1825 362.545 89.1147 360.674 89.0469 359.526C89.013 358.336 89.0808 357.145 89.2503 356.89C89.4198 356.592 89.4876 355.869 89.4198 355.274C89.2842 354.509 89.3859 354.211 89.7587 354.211C90.1994 354.211 90.1655 354.083 89.657 353.616C89.1147 353.148 89.0808 352.893 89.4198 352.382C89.7587 351.872 89.6909 351.66 89.0808 351.149L88.3012 350.511L88.3351 359.824C88.369 365.224 88.2334 369.221 88.0639 369.349C87.5893 369.732 80.3354 369.859 80.1659 369.519C80.0642 369.349 79.3524 369.349 78.5728 369.561C77.1152 369.902 72.1324 369.647 71.1833 369.221C70.9121 369.051 70.4714 369.009 70.2003 369.051C69.9291 369.094 69.8613 368.966 69.9969 368.669C70.2003 368.286 70.0647 368.286 69.5562 368.626C69.1834 368.881 68.3021 369.094 67.658 369.094C66.5394 369.094 66.4377 369.179 66.4377 370.369C66.4377 371.05 66.3021 371.645 66.0988 371.645C65.9293 371.645 65.7598 371.177 65.7598 370.582C65.7598 369.604 65.6242 369.519 64.1666 369.476C63.2514 369.434 61.4888 369.476 60.1668 369.561C58.8787 369.647 57.2517 369.689 56.6077 369.647C55.9636 369.647 53.1502 369.604 50.3368 369.561C43.998 369.476 43.998 369.434 44.2692 367.563C44.4387 366.372 44.337 365.862 43.7269 365.054C43.1167 364.246 43.0489 363.906 43.354 363.226C43.5574 362.715 43.7269 362.035 43.7269 361.652C43.7269 361.27 44.0319 360.419 44.4048 359.739C44.7438 359.101 45.1166 357.825 45.1505 356.847C45.2183 355.912 45.3539 355.231 45.4895 355.317C45.6251 355.402 45.7946 355.104 45.9302 354.636C46.0319 354.168 46.3369 353.786 46.6081 353.786C46.8454 353.786 47.1504 353.531 47.2521 353.233C47.4216 352.85 47.4894 352.85 47.6589 353.275C47.9301 353.956 50.3706 353.913 50.913 353.233C51.3198 352.638 52.54 352.765 52.54 353.36C52.54 353.956 54.9467 354.296 55.4552 353.743C55.828 353.36 56.0653 353.36 56.3365 353.701C56.5738 353.998 57.4551 354.211 58.3364 354.211H59.9634L59.6245 352.85C59.2177 350.937 59.2177 350.809 59.9973 350.809C60.3702 350.809 60.6753 350.597 60.6753 350.341C60.6753 350.129 60.8109 350.001 60.9803 350.129C61.1159 350.256 61.5566 350.086 61.8956 349.746C62.5396 349.151 62.5396 349.151 61.8617 349.066C58.5059 348.726 45.7268 348.513 43.6252 348.811C42.7439 348.896 42.371 348.768 42.371 348.385C42.371 348.088 42.6761 347.833 43.015 347.833C43.3879 347.833 43.7947 347.577 43.9303 347.28C44.0658 347.025 44.0658 346.897 43.8964 347.067C43.7608 347.237 43.3879 347.152 43.1167 346.855C42.6761 346.429 42.6422 346.472 42.8795 346.94C43.0828 347.365 43.015 347.492 42.6761 347.322C42.4049 347.195 41.8625 347.365 41.5236 347.705C40.9473 348.215 40.9134 348.343 41.3541 348.683C41.7948 349.023 41.7609 349.108 41.2863 349.108C40.9473 349.108 40.6762 349.278 40.6762 349.533C40.6762 349.746 40.2355 350.469 39.7271 351.107C39.1847 351.787 38.5746 353.105 38.3712 354.126C38.1339 355.104 37.7949 355.912 37.6593 355.912C37.4899 355.912 37.1848 356.507 36.9814 357.188C36.778 357.953 36.778 358.378 36.9475 358.251C37.1509 358.08 37.2865 358.166 37.2865 358.421C37.2865 358.676 36.9814 359.058 36.6424 359.314C36.2696 359.526 35.8628 360.122 35.7611 360.589C35.4899 361.61 35.151 361.652 34.473 360.802C34.0324 360.249 33.7951 360.292 32.6765 360.972C31.6257 361.61 31.4901 361.822 32.0325 361.993C32.4731 362.12 32.3375 362.163 31.6935 362.205C30.3376 362.205 28.7106 362.673 28.4733 363.141C28.1343 363.821 26.8124 363.098 26.8802 362.248C26.9141 361.652 27.1174 361.525 27.6937 361.695C28.1343 361.865 28.8462 361.822 29.3207 361.695C30.0665 361.44 30.1682 361.227 30.1004 359.739C30.0665 358.761 29.9309 358.166 29.7275 358.336C29.5241 358.506 29.5919 358.208 29.8631 357.698C30.202 357.145 30.3376 356.124 30.2698 355.019L30.1682 353.275L31.4223 353.403C33.5239 353.531 34.6425 353.403 34.4053 352.935C34.3036 352.723 33.9985 352.638 33.7273 352.808C33.3206 352.978 33.2189 352.638 33.2189 351.234C33.2189 350.171 33.3545 349.576 33.5578 349.746C33.7612 349.874 33.8968 349.831 33.8968 349.576C33.8968 349.363 34.2358 349.108 34.6764 348.981C35.4222 348.811 33.8968 348.768 24.7786 348.555L20.2703 348.47L20.4737 351.234C20.7448 354.296 20.8465 354.594 21.4228 353.871C21.7278 353.488 21.7278 353.36 21.4228 353.36C21.1855 353.36 21.016 353.02 21.016 352.638C21.016 352 21.0838 352.042 21.4906 352.723C21.7617 353.19 21.8973 353.701 21.8295 353.828C21.7617 353.998 22.5414 354.126 23.5583 354.126C24.7447 354.126 25.4226 353.956 25.4226 353.658C25.4226 353.36 25.5921 353.488 25.7955 353.913C25.9988 354.296 26.0327 355.061 25.8972 355.614C25.7616 356.124 25.5921 356.72 25.5582 356.975C25.5243 357.188 25.2531 358.08 24.9819 358.888C24.7108 359.696 24.3718 361.142 24.2701 362.035C24.0328 363.693 24.0328 363.693 25.0158 363.438C25.5582 363.311 26.8463 363.523 27.9988 363.991L29.9987 364.756L28.6428 364.842C27.8971 364.884 27.1852 364.927 27.0157 364.884C25.9988 364.671 9.01655 365.012 8.30472 365.224C8.13523 365.309 6.44039 365.352 4.57607 365.309C0.406762 365.309 0 365.437 0 366.883C0 367.988 0.0677936 368.031 1.59315 367.946C2.50836 367.861 3.62696 367.691 4.13541 367.563C4.74555 367.393 5.08452 367.478 5.08452 367.776C5.08452 368.498 3.76254 368.924 1.79653 368.839L0 368.754V374.877V380.957L18.5077 381C31.8291 381 37.1848 380.872 37.4899 380.532C37.8288 380.192 37.9644 380.192 37.9644 380.49C37.9644 380.83 45.32 380.957 62.5057 381H87.047L87.2504 380.065L87.4876 379.086L87.8605 380.065C88.0639 380.575 88.4368 381 88.7079 381C88.9791 381 89.1147 380.83 89.013 380.617C88.8774 380.405 88.9791 379.682 89.1825 379.001C89.996 376.493 90.1316 375.004 89.6231 374.749C88.9452 374.452 88.5384 375.004 89.1147 375.43C89.4537 375.727 89.4875 375.982 89.1825 376.578C88.8435 377.343 88.8435 377.343 88.8096 376.493C88.8096 375.302 87.6571 374.919 85.9284 375.515C84.7081 375.94 81.115 375.77 80.7083 375.217C80.4032 374.834 81.4879 374.154 82.132 374.367C82.437 374.452 82.7082 374.324 82.7082 374.069C82.7082 373.729 82.0641 373.601 80.9117 373.644C77.6915 373.729 77.6915 373.729 78.8101 374.409C79.3863 374.707 79.7592 375.004 79.6575 375.047C78.9456 375.345 77.8271 375.557 75.9288 375.855C74.7085 376.025 73.4883 376.323 73.1832 376.493C72.8103 376.705 72.4375 376.535 72.1663 376.025C71.7934 375.43 71.4206 375.302 70.5053 375.515C69.3529 375.77 69.319 375.77 70.3359 375.855C71.2511 375.897 71.285 375.982 70.7087 376.365C70.2681 376.705 69.8952 376.705 69.2851 376.323C68.641 375.855 68.4037 375.855 67.9631 376.323C67.6919 376.62 67.4546 376.663 67.4546 376.408C67.4546 375.897 65.8954 375.472 65.5225 375.94C65.3869 376.11 64.5056 376.11 63.5565 375.897C62.4718 375.685 61.2854 375.77 60.2685 376.11C59.3872 376.365 58.7432 376.493 58.8109 376.323C58.8787 376.152 57.0144 376.025 54.6416 376.067C51.0147 376.11 50.3368 376.025 50.3368 375.472C50.3368 374.962 50.8113 374.877 53.0824 374.962C55.828 375.132 55.828 375.132 56.0653 373.984L56.3026 372.836L59.9973 373.091C62.5735 373.303 63.726 373.218 63.726 372.921C63.726 372.666 63.5565 372.581 63.387 372.708C63.2175 372.836 63.048 372.581 63.048 372.07C63.048 371.135 63.8616 371.05 63.9294 371.985C63.9633 372.283 63.9972 372.666 64.0311 372.921C64.0311 373.133 64.4039 373.346 64.8446 373.303C65.2513 373.303 67.1496 373.303 69.0817 373.346C71.7934 373.431 72.6069 373.559 72.8442 374.069C73.2849 375.089 76.0983 375.515 76.7763 374.664C77.2508 374.069 77.2169 373.941 76.539 373.474C75.6577 372.878 75.556 372.878 84.0641 372.751L88.9791 372.708L89.0808 371.092C89.1486 370.072 89.352 369.519 89.6909 369.519C89.9621 369.519 90.1655 369.306 90.1655 369.009C90.1655 368.754 90.3689 368.881 90.64 369.306C90.9112 369.817 91.2841 369.987 91.6908 369.817C92.1654 369.561 92.1993 369.391 91.8603 368.839C91.5553 368.413 91.5214 368.073 91.7586 367.776C91.9959 367.478 92.2332 367.776 92.5383 368.626C92.9789 370.029 92.7755 370.795 91.962 370.795C91.5892 370.795 91.4875 371.092 91.5892 371.858C91.6908 372.453 91.6231 372.921 91.4536 372.921C91.2841 372.921 91.2502 373.091 91.3519 373.346C91.4875 373.601 91.8603 373.431 92.2671 372.921C92.6739 372.453 93.1145 372.198 93.3179 372.368C93.4874 372.496 93.4196 372.751 93.1823 372.963C92.9111 373.176 92.8772 373.346 93.0806 373.346C93.284 373.346 93.6569 373.048 93.8941 372.708C94.1314 372.368 94.4365 372.198 94.606 372.325C94.7755 372.453 94.8093 372.283 94.7077 371.943C94.606 371.603 94.7416 371.177 94.9788 370.965C95.2161 370.795 95.3178 370.795 95.1822 371.007C94.7416 371.603 95.6229 372.496 96.7415 372.538C97.6906 372.538 97.7245 372.581 97.0126 372.921C96.6059 373.133 95.9957 373.176 95.6568 373.048C95.1822 372.793 95.1483 372.878 95.4873 373.389C95.8263 373.941 95.8263 374.069 95.4873 374.154C94.8432 374.281 92.7755 374.537 92.1315 374.579C91.7925 374.622 91.5214 374.834 91.5214 375.089C91.5214 375.43 92.2671 375.472 93.9958 375.302C96.9109 374.919 98.1651 375.259 98.4024 376.365C98.5041 376.79 98.4363 377.088 98.3007 376.96C97.7245 376.535 96.233 377.258 96.4025 377.853C96.5042 378.194 96.4364 378.449 96.2669 378.449C96.0635 378.449 95.9279 378.279 95.9279 378.066C95.9279 377.853 95.1822 378.151 94.2331 378.704C91.8942 380.107 91.962 381 94.4026 381C96.0635 381 96.2669 380.915 96.2669 380.15C96.2669 379.639 96.572 378.831 96.9787 378.321C97.4533 377.641 97.5889 377.598 97.4533 378.108C97.2499 378.746 97.4533 378.789 99.0464 378.661C104.911 378.108 106.097 378.321 105.927 379.937C105.86 380.957 105.894 381 108.165 381C109.656 381 110.504 380.83 110.639 380.447C110.809 380.065 110.876 380.065 111.046 380.447C111.317 381.213 138.638 381.255 138.638 380.49C138.638 380.107 138.74 380.107 139.045 380.49C139.553 381.128 140.672 381.17 140.672 380.532C140.672 380.192 140.807 380.192 141.146 380.532C141.451 380.872 142.909 381 145.451 380.915C148.604 380.83 149.315 380.66 149.315 380.15C149.315 379.809 149.587 379.469 149.926 379.384C150.434 379.257 150.536 379.384 150.332 380.107C150.129 380.957 150.231 381 153.722 381C157.281 381 157.315 381 157.213 380.022C157.146 379.384 156.908 379.129 156.434 379.172C156.061 379.257 155.146 379.342 154.4 379.342C153.654 379.384 152.705 379.554 152.298 379.767C151.315 380.235 150.942 379.469 151.858 378.874C152.705 378.321 157.586 378.023 157.824 378.534C157.925 378.704 158.366 378.874 158.84 378.874C159.281 378.874 159.654 379.044 159.654 379.299C159.654 379.512 159.315 379.724 158.874 379.724C158.4 379.724 158.061 379.979 158.061 380.362C158.061 380.915 160.332 381 176.501 381C191.008 381 194.907 380.872 194.907 380.447C194.907 380.107 195.042 380.15 195.279 380.575C195.551 381.085 195.618 380.957 195.483 380.065C195.415 379.384 195.483 378.874 195.618 378.874C195.788 378.874 195.924 379.342 195.924 379.937C195.924 380.702 196.093 381 196.601 381C196.974 381 197.279 380.745 197.279 380.447C197.279 380.107 197.415 380.15 197.652 380.575C197.923 381.085 197.991 380.957 197.856 380.022C197.754 379.129 197.856 378.874 198.33 378.874C199.076 378.874 199.11 379.044 198.601 380.192C198.262 381 198.364 381.043 202.703 380.957C206.465 380.915 207.076 380.83 206.737 380.32C206.432 379.852 206.567 379.724 207.482 379.639C208.126 379.639 208.872 379.639 209.143 379.682C209.719 379.767 212.33 379.724 213.38 379.597C213.855 379.554 214.024 379.724 213.957 380.235C213.855 380.915 214.194 381 216.77 381C218.363 381 219.651 380.83 219.651 380.617C219.651 380.405 219.922 380.107 220.261 379.979C220.566 379.852 220.126 379.852 219.211 379.937C217.956 380.107 217.685 380.022 217.956 379.597C218.126 379.342 218.634 378.534 219.041 377.896C219.889 376.578 221.177 376.28 223.482 376.875C224.295 377.088 224.736 377.045 224.736 376.748C224.736 376.535 224.092 376.323 223.312 376.323C221.855 376.28 221.855 376.28 222.736 375.685C223.854 374.919 226.837 374.707 227.041 375.387C227.109 375.727 227.922 375.897 229.244 375.897C231.142 375.897 231.38 376.025 231.719 376.96C232.024 377.768 232.024 378.151 231.651 378.746C231.413 379.172 231.176 379.852 231.176 380.235C231.176 380.957 231.719 381 237.888 381C244.803 380.957 245.752 380.745 245.752 379.129C245.752 378.746 245.921 378.449 246.091 378.449C246.565 378.449 246.531 377.343 246.023 375.557C245.65 374.281 245.65 374.069 246.26 373.516C246.599 373.176 247.175 372.921 247.548 372.921C248.057 372.921 248.158 373.133 247.989 374.111C247.481 377.216 247.481 377.938 247.921 378.406C248.192 378.704 248.362 379.384 248.294 379.979C248.226 380.872 248.328 381 249.175 380.915C249.718 380.872 250.158 380.702 250.158 380.532C250.158 379.937 252.396 379.809 253.107 380.405C253.65 380.83 255.107 381 258.599 381H263.344L263.31 379.724C263.276 378.194 263.48 377.811 264.192 378.151C264.531 378.321 264.7 378.831 264.598 379.639L264.497 380.872L282.259 380.957L300.021 381.043L299.58 380.15C298.834 378.619 297.343 378.108 294.428 378.364C292.767 378.491 291.682 378.406 291.546 378.108C291.377 377.726 285.886 377.045 283.377 377.045C282.903 377.045 282.733 376.96 282.97 376.875C283.174 376.748 283.377 376.45 283.377 376.11C283.377 375.812 283.615 375.345 283.886 375.047C284.292 374.622 284.394 374.622 284.394 375.089C284.394 375.387 284.631 375.217 284.936 374.707C285.445 373.771 285.513 373.771 292.733 373.899C298.563 374.069 300.054 373.984 300.36 373.516C300.868 372.751 301.343 372.751 301.343 373.559C301.343 374.452 301.682 374.367 302.834 373.218C303.851 372.198 303.817 371.05 302.8 371.518C302.427 371.688 302.326 371.603 302.427 371.177C302.495 370.837 303.478 369.987 304.563 369.306L306.597 368.031L306.495 365.054C306.427 363.396 306.393 360.844 306.427 359.314C306.427 357.783 306.427 355.784 306.427 354.849C306.461 353.36 306.495 353.275 306.766 354.126C306.936 354.679 307.139 358.038 307.173 361.61L307.241 368.073L308.834 367.818C309.715 367.648 310.393 367.691 310.291 367.903C310.19 368.073 309.851 368.243 309.546 368.243C309.241 368.286 308.596 368.541 308.122 368.924L307.275 369.561L308.122 369.306C308.834 369.094 308.902 369.136 308.461 369.604C308.156 369.902 307.986 370.497 308.054 370.965C308.122 371.39 308.02 371.943 307.817 372.198C307.546 372.538 307.444 372.453 307.444 371.9C307.444 371.262 307.241 371.177 306.02 371.432C304.156 371.815 303.987 371.985 304.224 372.963C304.393 373.644 304.258 373.771 303.478 373.814H302.529L303.376 374.324C303.851 374.579 304.325 375.047 304.461 375.302C304.902 376.195 308.122 377.003 311.444 377.13C312.461 377.173 312.867 377.343 312.867 377.811C312.867 378.151 312.562 378.449 312.156 378.449C311.783 378.449 311.579 378.279 311.681 378.023C311.918 377.513 310.495 377.471 309.885 377.981C309.647 378.151 309.376 378.704 309.342 379.129C309.274 379.682 308.868 380.022 308.088 380.192C305.749 380.66 314.02 380.872 337.341 380.957C360.187 381 362.052 380.915 361.17 379.809C361.035 379.639 356.866 379.597 351.917 379.682C340.798 379.937 337.917 379.852 337.544 379.384C337.375 379.172 336.663 379.129 335.985 379.299C333.138 380.065 330.968 380.15 330.324 379.554C329.748 379.044 329.782 378.959 330.968 378.449C331.646 378.194 332.528 378.023 332.9 378.151C333.239 378.279 333.545 378.236 333.545 378.066C333.545 377.896 333.748 377.726 333.985 377.683C334.189 377.641 335.172 377.428 336.087 377.216C338.663 376.578 340.426 376.62 340.222 377.301C340.087 377.768 341.307 377.896 346.832 377.896H353.611L353.917 376.79C354.086 376.195 355.103 374.919 356.188 373.984L358.12 372.283H362.255C364.526 372.283 366.492 372.155 366.628 371.985C366.763 371.773 367.475 371.645 368.221 371.645H369.543L369.34 369.817C369.238 368.839 369.034 366.67 368.865 365.054C368.695 363.396 368.357 360.972 368.085 359.611C367.679 357.4 367.543 357.188 366.696 357.188C365.984 357.188 365.746 356.975 365.746 356.337C365.746 355.614 365.984 355.487 367.136 355.487C368.763 355.487 369.814 354.891 369.814 353.913C369.814 353.318 369.102 353.275 362.797 353.531C358.933 353.701 355.442 354.083 355.069 354.296C354.222 354.891 353.51 355.784 353.578 356.209C353.713 357.06 353.069 359.399 352.561 359.866C352.086 360.292 351.069 362.673 351.001 363.566C350.798 365.479 349.679 366.542 349.171 365.309C348.934 364.756 349.001 364.204 349.51 363.183C349.849 362.46 350.154 361.652 350.154 361.355C350.154 361.1 350.493 360.207 350.9 359.399C352.018 357.102 352.086 354.509 350.934 355.954C350.459 356.55 348.798 355.997 348.798 355.231C348.798 354.891 348.968 354.636 349.137 354.636C349.781 354.636 349.476 353.318 348.73 352.978L347.951 352.638L348.73 352.34C349.137 352.17 349.476 351.702 349.51 351.319C349.679 348.173 349.645 345.196 349.442 345.026C349.307 344.941 349.273 343.665 349.307 342.22C349.612 335.671 349.578 334.055 349.205 333.885C348.561 333.63 348.73 329.208 349.476 326.571C350.188 323.935 350.086 323.425 348.9 323.807C348.425 323.935 347.849 323.85 347.646 323.595C347.035 323 337.612 322.702 320.562 322.744C310.529 322.744 306.02 322.617 305.071 322.277C304.054 321.894 303.512 321.894 302.868 322.234L302.054 322.702L302.156 329.846C302.224 333.758 302.359 337.33 302.495 337.712C302.631 338.095 302.597 338.775 302.393 339.243C301.987 340.179 301.614 352.935 301.987 352.935C302.156 352.935 302.156 353.743 301.987 354.764C301.851 355.742 301.715 357.91 301.682 359.569C301.682 362.29 301.343 363.566 300.597 363.566C300.461 363.566 300.36 358.718 300.427 352.765C300.461 346.812 300.597 342.05 300.699 342.135C300.8 342.22 300.902 340.306 300.868 337.925C300.868 335.544 300.902 332.907 300.97 332.099C301.004 331.291 301.037 328.995 301.004 326.997C300.936 322.404 300.834 322.277 295.648 321.894C293.546 321.724 291.784 321.511 291.716 321.426C291.648 321.341 291.479 320.491 291.377 319.513L291.14 317.769L293.411 317.514C294.665 317.344 295.919 316.961 296.19 316.664C297.038 315.558 297.241 313.134 296.631 311.604C296.089 310.243 296.021 310.2 293.207 309.903C291.614 309.733 287.75 309.52 284.564 309.35C281.411 309.222 278.259 308.925 277.547 308.755C276.7 308.499 275.852 308.542 275.005 308.925C274.191 309.265 273.479 309.35 272.937 309.095C271.92 308.584 270.124 308.627 269.48 309.137C269.073 309.435 269.005 310.455 269.073 314.325C269.107 316.961 269.005 319.768 268.836 320.491C268.632 321.426 268.632 322.277 268.869 323.127C269.174 324.063 269.141 324.658 268.7 325.764C267.785 328.272 267.615 329.548 268.293 329.548C268.802 329.548 268.802 329.676 268.463 330.186C268.225 330.569 268.124 330.951 268.259 331.121C268.361 331.249 268.463 331.121 268.463 330.781C268.463 330.313 268.53 330.313 268.734 330.696C268.903 330.994 268.903 332.525 268.768 334.098C268.632 335.714 268.598 340.349 268.666 344.473C268.836 352.553 268.7 353.36 267.107 352.723C266.463 352.468 266.395 352.212 266.598 350.937C266.937 348.555 266.836 337.84 266.429 336.054C266.056 334.225 265.548 333.077 265.276 333.418C265.175 333.545 265.039 334.736 265.005 336.054C264.937 338.138 264.836 338.478 264.226 338.52C263.853 338.563 262.26 338.648 260.666 338.69C259.073 338.733 256.87 338.86 255.717 338.903C254.599 338.988 253.514 338.945 253.345 338.818C252.904 338.52 250.023 338.69 249.582 339.03C249.345 339.201 249.243 339.626 249.379 339.966C249.48 340.391 249.311 340.604 248.803 340.604C248.226 340.604 248.125 340.434 248.294 339.753C248.565 338.733 249.819 338.818 236.566 338.733C226.973 338.648 225.787 338.563 225.278 337.925C224.939 337.542 224.363 337.202 223.99 337.202C223.38 337.202 223.312 337.372 223.549 338.563C223.685 339.328 223.753 341.242 223.719 342.815C223.685 344.941 223.787 345.706 224.126 345.706C224.431 345.706 224.431 345.834 224.058 346.132C223.685 346.429 224.193 346.557 225.753 346.642C226.973 346.684 228.566 346.77 229.312 346.812C231.549 346.897 231.854 346.982 231.854 347.407C231.854 347.662 230.363 347.833 228.058 347.833C225.956 347.833 224.092 348.003 223.888 348.173C223.719 348.343 223.515 350.256 223.482 352.468C223.38 356.635 222.736 359.016 222.668 355.444C222.634 354.424 222.6 352.382 222.566 350.937C222.566 349.448 222.668 348.258 222.838 348.258C223.007 348.258 223.075 348.13 222.973 348.003C222.838 347.875 218.499 347.79 213.245 347.79C205.008 347.833 203.788 347.748 203.923 347.195C204.059 346.812 203.923 346.557 203.584 346.557C203.245 346.557 203.144 346.812 203.245 347.195C203.415 347.662 203.313 347.79 202.838 347.577C202.466 347.407 202.296 347.407 202.432 347.62C202.703 348.003 201.72 350.597 201.449 350.214C201.211 349.916 199.652 353.871 199.856 354.253C199.923 354.424 199.618 354.934 199.144 355.444C198.567 355.954 198.195 356.847 198.059 357.91C197.686 360.972 196.093 363.651 195.415 362.29C195.11 361.695 192.941 361.78 192.805 362.375C192.703 362.673 192.432 362.928 192.161 362.971C191.89 362.971 191.415 363.056 191.11 363.056C190.771 363.098 190.5 363.396 190.5 363.736C190.5 364.076 190.161 364.289 189.585 364.289C189.042 364.289 187.89 364.416 186.975 364.586C185.687 364.842 185.382 364.799 185.483 364.331C185.585 364.034 186.161 363.736 186.805 363.651C187.449 363.566 188.093 363.311 188.297 363.098C188.466 362.885 188.805 362.715 189.076 362.715C189.348 362.715 190.331 362.12 191.246 361.44C192.195 360.717 193.483 360.079 194.127 359.994C195.313 359.866 196.025 359.101 195.788 358.166C195.686 357.91 195.923 357.613 196.262 357.485C196.907 357.273 197.89 355.189 199.178 351.319C199.584 350.044 200.195 348.683 200.5 348.258C201.008 347.535 200.906 347.535 198.228 347.748C193.822 348.13 193.11 348.088 192.974 347.492C192.839 347.11 193.517 346.982 195.483 346.94C200.906 346.897 201.381 346.812 201.957 345.877C203.177 344.048 205.957 343.368 208.296 344.346C209.245 344.728 210.092 345.239 210.228 345.494C210.397 345.792 210.499 345.792 210.499 345.494C210.499 345.239 210.635 345.324 210.804 345.621C211.313 346.642 221.211 347.237 222.363 346.344C222.566 346.217 222.702 345.706 222.702 345.239C222.702 344.643 222.566 344.473 222.295 344.686C221.956 344.941 221.956 344.856 222.227 344.388C222.431 344.048 222.702 342.22 222.77 340.264L222.939 336.777L222.227 337.585C221.651 338.265 221.041 338.435 219.245 338.435C217.109 338.435 216.973 338.35 216.634 337.287C216.363 336.352 216.295 336.309 216.262 336.989C216.262 337.457 216.024 338.18 215.787 338.605C215.448 339.158 215.245 339.243 215.007 338.818C214.635 338.223 214.567 337.457 214.567 334.906C214.601 332.78 214.736 332.525 215.821 332.525C216.634 332.525 216.668 332.652 216.499 334.013C216.397 334.821 216.397 335.501 216.533 335.501C216.668 335.501 216.838 334.991 216.872 334.396C216.973 332.822 217.143 332.61 218.126 332.865C218.804 332.992 218.973 333.332 219.007 334.396L219.075 335.714L219.278 334.225C219.482 332.822 219.55 332.737 220.838 332.695C221.583 332.695 222.397 332.865 222.634 333.077C222.905 333.332 223.041 333.29 223.041 332.907C223.041 332.567 223.143 330.526 223.244 328.357C223.38 325.764 223.312 324.233 223.075 323.85C222.871 323.552 222.838 323.17 222.973 322.957C223.109 322.787 222.871 322.872 222.465 323.127C221.956 323.467 221.482 323.467 221.109 323.212C220.77 323 219.177 322.702 217.55 322.532C215.346 322.319 214.567 322.064 214.567 321.639C214.567 321.299 214.262 321.044 213.889 321.044C213.245 321.044 213.177 320.831 213.279 318.365C213.38 315.983 213.448 315.728 214.16 315.601C214.77 315.473 214.906 315.643 214.906 316.664C214.906 317.344 214.736 318.109 214.533 318.365C214.262 318.705 214.296 319.087 214.635 319.725C215.041 320.576 215.346 320.618 221.685 320.661C230.634 320.746 231.244 320.746 231.481 320.278C231.617 320.023 235.345 319.938 240.498 319.98C245.345 320.023 250.904 319.938 252.87 319.768C254.802 319.555 256.633 319.555 256.938 319.725C257.209 319.938 258.361 319.938 259.48 319.768C260.7 319.598 261.683 319.64 261.921 319.895C262.158 320.108 262.836 320.363 263.446 320.448C264.056 320.491 264.666 320.576 264.768 320.576C264.904 320.618 265.175 321.171 265.412 321.894C265.649 322.574 265.954 323.17 266.09 323.17C266.531 323.17 267.039 319.47 267.31 314.41C267.514 309.945 267.48 309.605 266.87 309.222C266.497 308.967 264.056 308.712 261.412 308.67C258.768 308.584 256.599 308.414 256.599 308.287C256.599 308.117 255.684 308.117 254.599 308.202C252.768 308.372 252.565 308.287 252.158 307.394C251.921 306.841 251.752 306.076 251.785 305.735C251.819 305.395 251.616 304.715 251.345 304.247C250.497 302.886 249.684 303.907 249.548 306.373C249.413 308.797 248.836 309.52 247.108 309.562C245.209 309.562 244.498 308.67 244.226 305.948C244.091 304.29 243.82 303.482 243.379 303.184C243.04 302.929 240.532 302.759 237.854 302.759C235.176 302.759 232.498 302.546 231.956 302.291C231.142 301.951 230.634 301.994 229.651 302.504C228.159 303.312 226.837 303.354 225.515 302.716C224.973 302.419 222.533 302.206 219.821 302.164L215.075 302.121L215.177 300.548C215.211 299.697 215.109 298.889 214.906 298.719C213.685 297.784 205.177 297.784 204.601 298.677C204.296 299.145 203.72 299.145 201.72 298.804L199.245 298.337L199.449 296.636C200.093 291.491 200.093 290.47 199.517 289.322C199.042 288.471 198.737 288.301 198.093 288.471C197.584 288.642 196.94 288.471 196.398 288.046C195.415 287.196 192.127 286.941 189.822 287.493ZM227.956 304.46C227.82 304.715 228.532 304.885 229.786 304.885C230.939 304.885 231.854 305.055 231.854 305.31C231.854 305.565 232.159 305.565 232.735 305.31C233.82 304.8 234.6 304.8 235.244 305.31C235.651 305.608 235.651 305.821 235.108 306.543C234.498 307.351 234.498 307.436 235.04 307.436C235.345 307.436 235.515 307.649 235.413 307.862C235.278 308.159 234.769 307.989 234.091 307.436C232.6 306.288 231.21 306.373 229.82 307.649C228.668 308.712 228.668 308.755 228.532 312.582L228.397 316.494L229.414 316.239C230.091 316.068 230.498 316.153 230.6 316.536C230.871 317.429 230.397 317.939 229.142 318.152C226.532 318.62 224.939 316.749 224.973 313.262C225.007 311.604 225.176 310.966 225.956 309.945C226.77 308.84 226.837 308.627 226.431 308.074C226.159 307.734 225.414 307.351 224.77 307.224C222.295 306.671 222.465 306.033 225.244 305.353C226.465 305.055 227.549 304.63 227.651 304.417C227.753 304.205 227.888 304.035 227.99 304.035C228.092 304.035 228.058 304.205 227.956 304.46ZM36.7102 366.968C38.1678 367.52 38.3712 368.456 37.0492 368.498C34.7103 368.583 33.3545 368.881 32.7443 369.349C32.4053 369.647 31.8969 369.774 31.6596 369.647C31.3545 369.519 31.1851 369.732 31.1851 370.327C31.1851 370.837 31.0156 371.22 30.8461 371.22C30.6427 371.22 30.5071 371.56 30.5749 371.943C30.6427 372.368 30.4732 372.666 30.2698 372.581C30.0326 372.538 29.8292 372.751 29.8292 373.006C29.8292 373.431 29.7614 373.431 29.5241 373.006C29.3207 372.581 29.1851 372.581 28.8123 373.133C28.2699 373.941 26.6429 373.984 26.1344 373.176C25.7277 372.581 25.0158 369.944 25.2531 369.944C25.3209 369.944 25.6599 370.625 26.0666 371.432C26.5751 372.496 26.9819 372.921 27.6259 372.921C28.1004 372.921 28.4733 372.708 28.4733 372.496C28.4733 372.24 28.8123 371.858 29.2529 371.645C29.6597 371.432 29.8292 371.262 29.6258 371.262C29.3885 371.22 29.1174 370.582 29.0157 369.774C28.7784 368.158 27.9649 367.563 26.7446 368.031C25.7616 368.456 26.0666 367.35 27.1513 366.627C28.1004 365.99 34.6086 366.202 36.7102 366.968ZM193.381 366.925C198.534 368.201 199.991 368.796 199.991 369.604C199.991 369.774 198.703 369.817 197.11 369.689C194.602 369.476 194.127 369.561 193.313 370.284C192.636 370.88 192.161 371.007 191.619 370.752C191.076 370.497 190.839 370.54 190.839 370.922C190.839 371.22 190.5 370.71 190.093 369.817C189.246 368.031 188.365 367.776 186.839 368.924C186.026 369.519 186.06 369.476 187.043 368.371C188.059 367.223 190.229 366.075 191.008 366.33C191.212 366.372 192.263 366.67 193.381 366.925ZM268.395 370.072C268.598 370.369 268.7 371.22 268.598 371.943C268.463 373.091 268.53 373.303 269.208 373.431C269.649 373.516 269.92 373.686 269.819 373.814C269.717 373.941 269.92 374.367 270.259 374.792C271.581 376.493 270.835 377.173 267.615 377.13C266.497 377.13 265.344 377.173 265.073 377.216C263.785 377.428 263.209 377.13 263.175 376.195C263.141 374.877 262.938 374.026 262.531 373.686C262.327 373.474 262.429 373.346 262.734 373.346C263.039 373.346 263.48 373.899 263.717 374.622C264.158 376.025 264.429 376.11 265.446 375.472C266.327 374.877 266.259 374.196 265.378 374.324C264.971 374.367 264.565 374.154 264.497 373.856C264.395 373.516 264.7 373.346 265.378 373.346C266.395 373.346 266.429 373.303 266.429 371.432C266.429 369.689 266.497 369.519 267.242 369.519C267.683 369.519 268.191 369.774 268.395 370.072ZM350.696 369.987C352.832 370.497 353.544 370.965 353.544 371.9C353.544 372.368 353.035 372.496 351.408 372.41C350.256 372.368 349.103 372.453 348.9 372.623C348.696 372.793 348.154 372.963 347.679 373.006C346.798 373.091 346.629 374.196 347.408 374.537C347.679 374.664 347.578 374.919 347.137 375.345C346.73 375.685 346.527 376.195 346.629 376.45C346.764 376.748 346.764 376.833 346.629 376.663C346.493 376.535 345.883 376.578 345.307 376.79C344.425 377.088 344.154 377.045 343.815 376.45C343.578 376.067 343.375 375.557 343.375 375.345C343.375 375.132 343.544 375.132 343.815 375.387C344.595 376.195 345.815 376.152 346.256 375.259C346.629 374.537 346.629 374.154 346.188 372.836C345.781 371.56 345.442 371.177 344.527 370.965C343.442 370.71 343.408 370.625 343.951 370.114C344.697 369.434 347.951 369.349 350.696 369.987ZM216.024 372.24C216.295 372.581 216.431 373.474 216.397 374.367L216.295 375.897H217.956C219.617 375.897 220.194 376.408 219.109 376.918C218.804 377.045 218.058 377.173 217.38 377.173H216.194L216.431 378.874C216.634 380.362 216.567 380.575 215.99 380.575C215.007 380.575 214.499 379.554 214.77 378.236L215.007 377.045L212.567 377.343C210.533 377.598 210.126 377.556 209.957 377.003C209.686 376.152 208.669 376.11 208.16 376.918C207.652 377.683 203.313 378.023 192.873 378.066C188.127 378.108 182.805 378.236 181.077 378.406C179.348 378.534 177.857 378.576 177.755 378.491C177.653 378.364 174.569 378.279 170.908 378.236C164.772 378.236 164.23 378.194 164.264 377.513C164.298 377.088 164.128 376.748 163.891 376.748C163.247 376.748 163.484 375.472 164.196 374.962C164.501 374.749 165.654 374.579 166.704 374.622C167.755 374.664 169.925 374.664 171.484 374.622C174.975 374.537 178.67 375.302 178.433 376.11C178.297 376.535 180.161 376.62 187.958 376.535C193.28 376.45 198.093 376.28 198.635 376.11C199.178 375.982 199.957 376.067 200.364 376.323C200.872 376.705 201.889 376.748 203.686 376.493C205.652 376.238 206.025 376.11 205.245 375.897C204.703 375.77 203.482 375.812 202.567 376.025C200.703 376.408 199.788 375.855 200.974 375.089C201.889 374.452 204.059 374.111 206.533 374.196C208.567 374.239 209.584 373.729 209.279 372.708C209.143 372.283 209.516 372.07 210.736 371.943C214.431 371.603 215.55 371.645 216.024 372.24ZM145.892 372.538C146.366 372.836 146.638 373.261 146.536 373.601C146.434 373.941 146.502 374.196 146.671 374.196C146.841 374.196 147.044 375.259 147.078 376.535C147.146 378.831 147.112 378.916 146.061 379.469C145.383 379.809 144.672 379.937 144.231 379.724C143.621 379.427 143.553 379.129 143.655 376.493C143.756 374.622 143.96 373.303 144.299 372.793C144.943 371.943 144.841 371.943 145.892 372.538ZM40.4389 373.516L40.2694 374.537L44.7438 374.834C47.7606 375.047 49.1504 375.302 49.0487 375.6C48.8792 376.323 46.9132 376.748 44.0658 376.705C42.6761 376.705 41.4558 376.705 41.3541 376.748C41.0829 376.833 34.6764 377.173 30.1682 377.343C27.8293 377.428 25.2192 377.641 24.304 377.726C23.4227 377.853 22.2363 377.768 21.6262 377.556C20.9143 377.301 20.4059 377.343 20.1008 377.641C19.8635 377.938 19.4229 377.981 19.0839 377.768C18.7449 377.598 16.745 377.428 14.6773 377.428C12.5757 377.386 10.847 377.216 10.8131 377.003C10.7792 376.323 12.9486 375.685 15.1858 375.727C17.423 375.727 18.1687 375.089 16.0332 375.004C13.2198 374.877 12.9147 374.834 12.7452 374.579C12.6435 374.452 12.7452 374.324 12.9486 374.324C13.1859 374.324 15.4908 374.196 18.067 374.026C21.4567 373.771 22.7109 373.814 22.7109 374.196C22.7109 374.452 22.8803 374.537 23.1515 374.367C23.4566 374.111 23.4566 374.196 23.1176 374.707C22.7109 375.345 22.8464 375.43 24.1345 375.685C24.948 375.855 27.592 375.77 29.9987 375.557C32.4392 375.345 35.3883 375.174 36.6085 375.259C39.2864 375.345 39.6593 375.217 39.6593 374.026C39.6593 373.474 39.7609 372.921 39.8965 372.793C40.3372 372.198 40.5745 372.538 40.4389 373.516ZM123.52 373.346C124.808 373.601 126.842 373.814 128.062 373.814C129.35 373.856 130.062 374.026 129.791 374.196C129.452 374.452 129.587 374.707 130.265 375.089C131.553 375.812 131.384 376.238 129.825 376.11C127.825 375.982 125.757 376.748 125.757 377.683C125.757 378.321 125.554 378.406 124.232 378.151C123.249 378.023 122.706 378.066 122.706 378.364C122.706 378.619 122.91 378.916 123.147 379.001C123.35 379.129 123.079 379.257 122.469 379.257C121.893 379.299 121.351 379.512 121.283 379.767C121.079 380.49 117.961 377.683 117.588 376.45C117.385 375.727 117.419 375.047 117.791 374.154C118.266 373.091 118.503 372.921 119.757 372.921C120.537 372.921 122.232 373.133 123.52 373.346Z" fill="#2C271C"/>
<path d="M37.5915 315.728C37.4898 315.856 34.5747 315.983 31.0833 316.026L24.7446 316.111V317.854V319.598L28.0665 319.555C29.863 319.513 33.7612 319.47 36.7102 319.428L42.032 319.343V317.854C42.032 317.004 41.8286 316.281 41.6252 316.153C40.7778 315.856 37.7271 315.516 37.5915 315.728Z" fill="#3C2F2D"/>
<path d="M0 336.267L0.0338968 356.124L1.35587 357.825C2.0677 358.761 2.67785 359.739 2.71174 360.037C2.74564 361.355 3.62696 360.929 5.49128 358.633C6.60988 357.23 7.66068 355.784 7.83016 355.402C8.20302 354.551 7.66068 352.978 6.3387 350.979C5.89804 350.299 5.42349 349.278 5.3218 348.683C5.15231 347.833 5.38959 348.003 6.64377 349.746C7.4573 350.894 8.30472 352.297 8.4742 352.765C8.71148 353.488 9.25383 353.786 11.491 354.211C13.8638 354.679 17.5246 354.466 16.3722 353.913C16.1349 353.786 15.9315 353.403 15.9315 353.02C15.9315 352.595 15.5586 351.787 15.118 351.192C14.5078 350.341 14.3722 349.959 14.6773 349.576C15.5586 348.47 16.2366 349.108 16.9823 351.66C17.5246 353.531 17.8975 354.211 18.3382 354.211C18.711 354.211 19.0839 354.211 19.2195 354.211C19.3551 354.211 19.4568 353.488 19.4568 352.638C19.389 348.768 19.3551 348.683 18.5415 348.683C18.0331 348.683 17.5585 349.066 17.3213 349.619L16.9145 350.597L17.084 349.619C17.2196 348.768 17.084 348.683 15.8298 348.598C15.0502 348.598 14.1011 348.598 13.7282 348.641C13.1859 348.683 13.3214 348.385 14.3722 347.025L15.6942 345.324L15.0841 344.133C14.7451 343.495 14.1689 342.687 13.8299 342.39C13.4909 342.092 13.2198 341.582 13.2198 341.242C13.2198 340.944 13.0164 340.391 12.7791 340.094C12.5418 339.796 11.9995 338.86 11.6266 338.052L10.8809 336.522L11.9656 335.969C13.2875 335.289 17.3552 334.863 16.6094 335.501C16.2027 335.841 16.2705 335.926 16.9823 335.926C17.6263 335.926 17.9314 335.671 18.067 335.033C18.2365 334.311 18.3721 334.225 18.9483 334.651C19.5923 335.033 19.6601 334.991 19.6601 334.013C19.6601 333.418 19.4907 332.567 19.2534 332.142C18.8805 331.376 18.8127 331.376 18.406 332.014C17.9992 332.695 17.9314 332.695 17.4569 331.929C16.9823 331.164 16.9484 331.164 16.3383 332.099C15.7281 333.035 15.4569 333.077 12.2028 333.077C8.74537 333.035 8.16913 332.78 8.13523 331.419C8.13523 330.611 9.62669 330.058 11.4232 330.228C12.4062 330.313 13.2536 330.228 13.3553 330.016C13.457 329.803 13.0164 329.633 12.3384 329.633C11.6944 329.633 11.0504 329.505 10.9487 329.378C10.8131 329.25 11.1181 329.123 11.5588 329.123C12.1351 329.123 12.2367 328.995 11.9317 328.74C11.6605 328.527 11.3893 327.252 11.2876 325.764C11.1181 323.425 11.0165 323.127 10.4741 323.297C10.1012 323.425 9.83007 323.34 9.83007 323.127C9.83007 322.915 9.42331 322.744 8.94875 322.744C8.4742 322.744 8.20302 322.915 8.30472 323.17C8.40641 323.425 8.27082 323.467 7.99964 323.34C7.69457 323.212 7.52509 322.957 7.59288 322.787C7.66068 322.659 7.11833 322.574 6.3726 322.659C5.45738 322.787 4.91504 322.659 4.71165 322.277C4.57607 321.937 4.2032 321.681 3.93203 321.681C3.42358 321.681 0.677936 317.514 0.677936 316.749C0.677936 316.536 0.508452 316.366 0.338968 316.366C0.10169 316.366 0 323.042 0 336.267Z" fill="#3C2F2D"/>
<path d="M26.9141 323.042L24.8464 323.212L24.643 325.551C24.5413 326.869 24.5752 328.357 24.7447 328.91L25.0498 329.888L33.524 329.931L41.9643 330.016L42.0999 326.699C42.1677 324.871 42.1677 323.255 42.0999 323.042C41.9982 322.744 31.1512 322.744 26.9141 323.042Z" fill="#2C271C"/>
<path d="M225.922 323.17C225.787 323.425 225.346 323.552 224.905 323.425C223.854 323.085 223.719 323.68 223.719 328.527V332.525L226.024 332.567C229.515 332.652 233.312 332.482 234.6 332.142C235.413 331.929 235.752 331.589 235.786 331.036C235.82 330.569 235.888 329.591 235.922 328.91C235.99 327.89 236.057 328.06 236.261 329.676C236.43 330.824 236.6 331.802 236.667 331.887C236.735 331.972 237.379 331.929 238.125 331.802L239.481 331.589L239.515 329.293L239.549 327.039L236.973 326.912L234.396 326.784L234.295 324.998L234.193 323.255L230.668 323.212C228.736 323.17 226.939 323.042 226.668 322.915C226.397 322.787 226.058 322.915 225.922 323.17Z" fill="#3C2F2D"/>
<path d="M265.717 323.68C265.717 323.765 265.649 324.233 265.615 324.786C265.548 325.296 265.378 325.934 265.209 326.146C264.361 327.209 257.209 327.549 251.616 326.784C249.853 326.529 249.141 326.571 249.141 326.912C249.141 327.252 248.87 327.294 248.328 326.997C247.853 326.784 245.82 326.657 243.786 326.699L240.057 326.742L240.125 329.208C240.159 330.526 240.261 331.717 240.328 331.844C240.43 331.929 241.108 332.099 241.854 332.142C243.108 332.269 243.21 332.227 243.243 331.249C243.345 328.272 243.413 327.847 243.684 327.847C243.82 327.847 243.887 328.783 243.786 329.973C243.65 331.887 243.684 332.057 244.464 332.312C245.684 332.695 248.226 332.312 248.396 331.717C248.464 331.419 248.667 331.376 248.904 331.589C249.413 332.099 251.175 332.482 251.718 332.227C251.955 332.142 252.057 331.759 251.989 331.462C251.887 331.164 251.955 330.781 252.158 330.611C252.396 330.484 252.531 330.696 252.531 331.164C252.531 331.887 252.735 332.014 253.989 331.929C255.209 331.844 255.48 331.632 255.921 330.569C256.361 329.463 256.429 329.42 256.531 330.228C256.599 330.909 256.972 331.249 257.819 331.419C258.463 331.589 259.175 331.589 259.378 331.376C259.616 331.206 260.09 331.036 260.429 331.036C260.768 330.994 261.175 330.781 261.277 330.526C261.649 329.803 263.649 330.398 264.497 331.504C265.548 332.95 265.886 332.78 266.395 330.611C266.869 328.57 266.666 324.233 266.056 323.808C265.886 323.637 265.751 323.595 265.717 323.68Z" fill="#3C2F2D"/>
<path d="M153.654 326.061C152.807 326.231 152.468 327.124 152.739 328.442L152.908 329.42L160.84 329.463C169.281 329.505 169.992 329.378 169.586 327.464C169.382 326.529 167.281 326.189 161.349 326.146C159.383 326.104 157.044 326.061 156.095 326.019C155.18 325.976 154.061 325.976 153.654 326.061Z" fill="#3C2F2D"/>
<path d="M96.7076 326.486C92.3688 326.571 91.8604 326.657 91.8604 327.337C91.8604 327.72 91.7587 328.485 91.657 328.995L91.4536 329.973L96.5381 329.931H101.623L101.758 328.23C101.826 327.294 101.792 326.486 101.69 326.444C101.589 326.401 99.3516 326.401 96.7076 326.486Z" fill="#3C2F2D"/>
<path d="M102.843 326.529C102.775 326.614 102.707 327.464 102.707 328.357V330.016L110.707 329.888L118.74 329.761L118.876 328.187L118.978 326.614L110.978 326.486C106.605 326.401 102.911 326.444 102.843 326.529Z" fill="#3C2F2D"/>
<path d="M139.994 334.098C139.35 334.651 138.469 335.501 138.096 335.969C137.587 336.564 137.113 336.734 136.536 336.564C135.858 336.352 135.553 336.522 135.079 337.457C134.503 338.563 134.469 338.605 134.028 337.84C133.655 337.202 133.553 337.202 133.553 337.67C133.553 338.86 134.435 339.881 135.214 339.626C135.621 339.498 135.926 339.626 135.96 339.881C135.96 340.179 136.096 340.008 136.231 339.583C136.536 338.563 138.943 337.627 140.604 337.925C141.621 338.095 142.095 337.925 143.146 336.862L144.4 335.586L143.214 334.651C142.57 334.14 142.028 333.545 142.028 333.332C142.028 332.695 141.248 332.95 139.994 334.098Z" fill="#3C2F2D"/>
<path d="M93.5552 335.969C93.2501 336.649 92.9451 336.777 92.3349 336.607C91.4197 336.309 91.5214 335.246 91.3858 345.962C91.318 348.768 91.1824 351.277 91.0808 351.532C90.9452 351.787 91.013 353.02 91.2163 354.253C91.5553 356.252 91.5214 356.55 91.013 357.017C90.674 357.358 90.2672 357.485 90.1316 357.358C89.9622 357.23 89.8266 357.485 89.7927 357.91C89.7927 358.336 89.7249 359.399 89.691 360.249C89.6232 361.95 89.7927 362.163 90.4028 361.397C90.674 361.057 90.8435 361.057 90.9791 361.397C91.318 362.078 92.1993 361.95 92.1993 361.227C92.1993 360.887 92.4366 360.589 92.7078 360.589C93.1146 360.589 93.1485 360.419 92.8095 359.484C92.4705 358.591 92.5044 358.336 92.9112 357.995C93.2501 357.74 93.284 357.613 92.9451 357.613C92.7078 357.613 92.6061 357.443 92.7078 357.188C92.8434 356.932 92.6739 356.89 92.3349 357.06C91.9621 357.23 91.8265 357.145 91.9282 356.762C92.0299 356.295 93.0807 356.167 96.7076 356.21C100.741 356.252 101.351 356.167 101.487 355.572C101.589 355.146 101.623 352.297 101.555 349.151C101.419 344.473 101.284 343.325 100.775 342.645C100.165 341.752 100.165 341.752 100.945 342.262C101.589 342.687 101.69 342.645 101.69 341.879C101.69 341.369 101.555 341.114 101.351 341.242C101.114 341.412 101.114 341.114 101.351 340.391C101.86 338.69 101.758 338.052 100.945 338.01C100.402 337.967 100.335 337.882 100.741 337.755C101.046 337.67 101.385 337.33 101.453 337.032C101.589 336.607 101.419 336.522 100.945 336.692C100.47 336.819 100.301 336.734 100.47 336.437C100.64 336.096 100.47 335.926 100.03 335.926C99.6566 335.926 99.2499 336.139 99.1482 336.394C99.0126 336.607 98.5719 336.777 98.1991 336.734C96.8771 336.607 96.6737 336.777 96.8432 337.627C96.9449 338.095 97.1483 338.478 97.3178 338.478C97.4872 338.478 97.6228 339.328 97.6228 340.391V342.305H96.267C95.0467 342.305 94.9111 342.177 94.9111 341.242C94.9111 340.306 94.7755 340.179 93.6908 340.179C92.5722 340.179 92.4705 340.094 92.6061 339.116C92.7417 338.393 92.64 338.052 92.301 338.052C92.0299 338.052 91.8943 337.882 91.996 337.67C92.0977 337.457 92.5044 337.372 92.8434 337.5C93.1824 337.627 93.5891 337.5 93.6908 337.245C93.8264 336.989 94.2332 336.777 94.606 336.777C94.9789 336.777 95.5212 336.522 95.7585 336.182C96.1653 335.671 96.1314 335.544 95.4873 335.331C94.2671 334.906 93.9281 335.033 93.5552 335.969Z" fill="#3C2F2D"/>
<path d="M377.915 338.35C377.61 338.818 377.441 340.179 377.441 342.475C377.441 344.388 377.339 346.132 377.17 346.429C377.034 346.685 377.136 348.173 377.407 349.704C377.78 352 377.78 352.51 377.407 352.51C377.17 352.51 376.729 352.808 376.458 353.19C375.78 354.041 375.746 355.912 376.39 355.912C376.661 355.912 377.102 356.21 377.407 356.55C377.712 356.932 377.983 357.017 378.119 356.762C378.22 356.55 378.661 356.337 379.034 356.337C379.712 356.337 379.61 355.784 378.932 355.657C378.763 355.614 378.492 355.572 378.288 355.529C378.119 355.529 377.949 355.019 377.949 354.424C377.949 353.446 378.085 353.361 379.475 353.361H381V345.494V337.627H379.678C378.865 337.627 378.187 337.882 377.915 338.35Z" fill="#2C271C"/>
<path d="M68.6411 346.982C68.0309 347.28 68.0987 347.322 68.98 347.45C69.5902 347.578 69.9969 347.875 69.9969 348.258C69.9969 348.641 69.6241 348.938 68.98 349.023L67.9631 349.151V354.126C67.997 359.994 68.4377 362.375 69.658 363.056C71.5562 364.161 73.2849 363.353 72.5053 361.822C72.0646 360.93 72.0646 352.34 72.5053 351.319C72.7765 350.682 72.2341 348.683 71.7596 348.683C71.624 348.683 71.1494 348.215 70.7088 347.62C69.8614 346.472 69.6919 346.429 68.6411 346.982Z" fill="#2C271C"/>
<path d="M376.356 372.708C375.746 373.559 375.814 373.984 376.797 375.43C377.543 376.578 377.712 377.301 377.915 380.447C377.949 380.787 378.492 381 379.475 381H381V378.534V376.025L379.644 375.515C378.898 375.217 378.119 375.132 377.949 375.259C377.61 375.515 377.17 373.856 377.339 372.963C377.475 372.155 376.831 371.985 376.356 372.708Z" fill="#2C271C"/>
</svg>
