<svg width="179" height="200" viewBox="0 0 179 200" fill="none" xmlns="http://www.w3.org/2000/svg">
<g clip-path="url(#clip0_64_9)">
<path d="M61.1206 121.481C68.0151 121.481 73.6042 127.071 73.6042 133.965V187.516C73.6042 194.411 68.0151 199.999 61.1206 199.999C54.2271 199.999 48.6379 194.411 48.6379 187.516V133.965C48.6379 127.072 54.2271 121.482 61.1206 121.482V121.481Z" fill="#E36830"/>
<path d="M32.6216 57.0981C32.5804 57.5715 32.5444 58.0501 32.5444 58.534V139.669C32.5444 148.395 39.4511 155.424 48.0251 155.424H130.534C139.109 155.424 146.015 148.394 146.015 139.669V58.534C146.015 58.0501 145.998 57.5698 145.958 57.0981H32.6216Z" fill="#E36830"/>
<path d="M117.44 121.481C124.335 121.481 129.924 127.071 129.924 133.965V187.516C129.924 194.411 124.335 199.999 117.44 199.999C110.547 199.999 104.957 194.411 104.957 187.516V133.965C104.957 127.071 110.547 121.482 117.44 121.482V121.481ZM12.487 64.3185C19.3806 64.3185 24.9698 69.9077 24.9698 76.8021V130.353C24.9698 137.248 19.3806 142.837 12.487 142.837C5.5926 142.837 0.00341807 137.248 0.00341807 130.354V76.803C0.00254148 69.9086 5.59172 64.3185 12.487 64.3185ZM166.075 64.3185C172.968 64.3185 178.557 69.9077 178.557 76.8021V130.353C178.557 137.248 172.968 142.837 166.075 142.837C159.18 142.837 153.591 137.248 153.591 130.354V76.803C153.591 69.9086 159.18 64.3185 166.075 64.3185V64.3185ZM32.9862 51.7683C33.3334 26.8466 55.0852 6.41312 83.0066 3.72021H95.5525C123.476 6.414 145.226 26.8484 145.573 51.7683H32.9862Z" fill="#E36830"/>
<path d="M72.5102 29.4344C72.5207 32.918 69.6376 35.7503 66.0698 35.76C62.5038 35.7687 59.604 32.9531 59.5935 29.4695V29.4344C59.5839 25.95 62.467 23.1186 66.0339 23.1089C69.5999 23.0993 72.4997 25.914 72.5102 29.3994V29.4344ZM120.72 29.4344C120.73 32.918 117.847 35.7503 114.279 35.76C110.713 35.7687 107.813 32.9531 107.803 29.4695V29.4344C107.793 25.95 110.676 23.1186 114.243 23.1089C117.809 23.0993 120.709 25.914 120.72 29.3994V29.4344Z" fill="white"/>
</g>
<defs>
<clipPath id="clip0_64_9">
<rect width="178.56" height="200" fill="white"/>
</clipPath>
</defs>
</svg>
