<svg width="381" height="381" viewBox="0 0 381 381" fill="none" xmlns="http://www.w3.org/2000/svg">
<g clip-path="url(#clip0_8_159)">
<path d="M-2.11081 382.055V-1.05542H382.055V382.055H358.837L322.953 268.072L293.402 211.08L258.573 66.4903L241.687 77.0443L240.632 68.6011V65.4349L236.41 28.4958L221.634 17.9418H206.859L122.427 21.108L118.205 24.2742L112.928 35.8836V62.2687V65.4349L113.983 110.817V119.26L96.0415 128.759L97.0969 139.313L107.651 143.535H110.817L113.983 144.59L98.1524 186.806L110.817 191.028L103.429 216.357H113.983L116.094 218.468L103.429 234.299L113.983 243.798H116.094V244.853L117.15 253.296L119.26 263.85L135.091 272.294L160.421 273.349H204.748L254.352 310.288L264.906 382.055H-2.11081Z" fill="#47464D"/>
<path d="M122.427 21.108L206.859 17.9418H221.634L236.41 28.4959L238.521 56.9917L240.632 68.6011L241.687 77.0443V156.199L242.742 166.753L238.521 213.191V231.133L240.632 267.017L230.078 273.349H212.136H204.748H160.421L135.091 272.294L119.26 263.85L117.15 253.296L116.094 244.853V243.798L113.983 230.078V225.856L116.094 218.468L113.983 216.357L115.039 211.08V200.526L113.983 194.194L115.039 188.917H112.928L113.983 185.751V169.92V163.587L116.094 33.7729L122.427 21.108Z" fill="#2C271C"/>
<path d="M118.205 24.2742L122.427 21.108L116.094 33.7729L113.983 163.587L112.928 162.532L113.983 144.59L110.817 143.535L113.983 141.424L112.928 123.482L110.817 122.427L113.983 119.26V110.817L112.928 65.4349V62.2687V35.8837L118.205 24.2742Z" fill="#F7AA7C"/>
<path d="M236.41 28.4958L240.632 65.4349L238.521 56.9917L236.41 28.4958ZM120.316 71.7673L125.593 28.4958L167.809 27.4404L231.133 42.2161V47.4931V67.5457L220.579 68.6011H212.136L211.08 60.1579L187.862 63.3241V55.9363L204.748 54.8809L177.307 51.7147L182.584 64.3795L167.809 59.1025L169.92 109.762L176.252 85.4875L184.695 87.5983V109.762L178.363 102.374L175.197 117.15V125.593L163.587 109.762L161.476 111.873L158.31 115.039L155.144 121.371H154.089L150.922 111.873L148.812 132.981L146.701 140.368H158.31V147.756H145.645L161.476 153.033L162.532 142.479L169.92 147.756L173.086 136.147L179.418 140.368L176.252 134.036V129.814L180.474 143.535L178.363 148.812L181.529 155.144L203.693 151.978L205.803 146.701L202.637 151.978L198.416 142.479L197.36 151.978H184.695L185.751 121.371L187.862 122.427L186.806 129.814L192.083 127.704L193.139 117.15L186.806 111.873L185.751 121.371L184.695 109.762H193.139L198.416 112.928L199.471 102.374L200.526 113.983L212.136 110.817L202.637 118.205L205.803 129.814L202.637 122.427H201.582L195.249 121.371L192.083 132.981H186.806L188.917 149.867H196.305V140.368L227.967 143.535L232.188 145.645L218.468 154.089L232.188 160.421L211.08 157.255L182.584 160.421H181.529L176.252 161.476L174.141 159.366V154.089L164.643 155.144L172.03 159.366L163.587 160.421L161.476 161.476L122.427 163.587V159.366L132.981 150.922H128.759L126.648 137.202V134.036L131.925 129.814L123.482 123.482L127.704 112.928L126.648 118.205L132.981 113.983L121.371 108.706V92.8753L120.316 71.7673Z" fill="#F5DCCE"/>
<path d="M231.133 42.2161L167.809 27.4404H222.69L231.133 42.2161Z" fill="#47464D"/>
<path fill-rule="evenodd" clip-rule="evenodd" d="M177.307 51.7146L204.748 54.8809L187.862 55.9363V63.3241L211.08 60.1579L212.136 68.6011H220.579L231.133 67.5457V47.493L232.188 69.6565H213.191L224.801 72.8227L211.08 82.3213L208.97 84.4321L186.806 86.5429L211.08 85.4875H215.302L221.634 91.8199L211.08 92.8753L191.028 93.9307L211.08 94.9861L231.133 103.429L217.413 104.485L232.188 107.651V108.706L223.745 110.817H232.188L222.69 129.814L219.524 132.981L215.302 138.258L232.188 137.202L227.967 143.535L196.305 140.368V149.867H188.917L186.806 132.981H192.083L195.249 121.371L201.582 122.427L199.471 135.091L206.859 137.202L205.803 129.814L202.637 118.205L212.136 110.817L200.526 113.983L199.471 102.374L193.139 109.762H184.695V87.5983L176.252 85.4875L169.92 109.762L167.809 59.1025L182.584 64.3795L177.307 51.7146ZM240.632 68.6011L238.521 56.9917L240.632 65.4349V68.6011Z" fill="#F7AA7C"/>
<path fill-rule="evenodd" clip-rule="evenodd" d="M206.859 64.3795L210.025 69.6565L186.806 72.8227L206.859 64.3795ZM241.687 77.0443L258.573 66.4903L293.402 211.08L322.953 268.072L358.837 382.055H347.227L329.285 319.787V318.731L322.953 293.402L319.787 282.848L314.51 273.349L312.399 268.072L302.9 249.075L293.402 250.13L276.515 234.299L269.127 116.094L255.407 101.319L248.019 108.706L262.795 166.753L257.518 260.684L270.183 276.515L276.515 274.404L293.402 318.731L300.789 382.055H264.906L254.352 310.288L204.748 273.349H230.078L240.632 267.017L238.521 231.133V213.191L242.742 166.753L241.687 156.199V77.0443ZM177.307 68.6011L185.751 72.8227L170.975 74.9335L177.307 68.6011Z" fill="#F5DCCE"/>
<path d="M224.801 72.8227L213.191 69.6565H231.133L230.078 72.8227H224.801Z" fill="#2C271C"/>
<path d="M230.078 72.8227L231.133 69.6565H232.188V94.9861L230.078 72.8227Z" fill="#F5DCCE"/>
<path d="M211.08 82.3213L224.801 72.8227H230.078L232.188 94.9861L221.634 91.8199L215.302 85.4875L211.08 82.3213Z" fill="#47464D"/>
<path d="M208.97 84.4321L211.08 82.3213L215.302 85.4875H211.08L208.97 84.4321Z" fill="#2C271C"/>
<path fill-rule="evenodd" clip-rule="evenodd" d="M211.08 85.4875L186.806 86.5429L208.97 84.4321L211.08 85.4875ZM211.08 94.9861L191.028 93.9307L211.08 92.8753V94.9861ZM232.188 107.651L217.413 104.485L231.133 103.429L232.188 107.651Z" fill="#F5DCCE"/>
<path d="M300.789 382.055L293.402 318.731L276.515 274.404L270.183 276.515L257.518 260.684L262.795 166.753L248.019 108.706L255.407 101.319L269.127 116.094L276.515 234.299L293.402 250.13L302.9 249.075L312.399 268.072L299.734 250.13L284.958 248.019L280.737 255.407L301.845 319.787L306.066 382.055H300.789Z" fill="#F7AA7C"/>
<path fill-rule="evenodd" clip-rule="evenodd" d="M175.197 117.15L178.363 102.374L184.695 109.762L185.751 121.371L184.695 151.978H197.36L198.416 142.479L202.637 151.978H203.693L181.529 155.144L178.363 148.812L180.474 143.535L176.252 129.814L174.141 127.704H170.975L169.92 125.593L163.587 109.762L175.197 125.593V117.15ZM193.139 109.762L199.471 102.374L198.416 112.928L193.139 109.762ZM158.31 115.039L161.476 111.873L160.421 126.648L158.31 115.039Z" fill="#47464D"/>
<path d="M232.188 110.817H223.745L232.188 108.706V110.817Z" fill="#F5DCCE"/>
<path d="M161.476 111.873L163.587 109.762L169.92 125.593L163.587 134.036L172.03 135.091L173.086 136.147L169.92 147.756L162.532 142.479V140.368L160.421 126.648L161.476 111.873ZM185.751 121.371L186.806 111.873L193.139 117.15L192.083 126.648V115.039L187.861 122.427L185.751 121.371Z" fill="#F7AA7C"/>
<path d="M148.812 132.981L150.922 111.873L154.089 121.371L155.144 128.759V121.371L158.31 115.039L160.421 126.648L162.532 140.368L161.476 147.756L158.31 140.368L156.199 131.925L148.812 132.981Z" fill="#2C271C"/>
<path d="M132.981 113.983L126.648 118.205L127.704 112.928L132.981 113.983Z" fill="#F7AA7C"/>
<path d="M187.861 122.427L192.083 115.039V126.648V127.704L186.806 129.814L187.861 122.427Z" fill="#2C271C"/>
<path d="M192.083 126.648L193.139 117.15L192.083 127.704V126.648Z" fill="#47464D"/>
<path d="M121.371 135.091L122.427 118.205V135.091H121.371ZM107.651 143.535L97.097 139.313L96.0416 128.759L113.983 119.26L110.817 122.427L101.319 136.147L107.651 143.535Z" fill="#F5DCCE"/>
<path d="M155.144 121.371V128.759L154.089 121.371H155.144Z" fill="#F7AA7C"/>
<path d="M107.651 143.535L101.319 136.147L110.817 122.427L112.928 123.482L113.983 141.424L110.817 143.535H107.651Z" fill="#E36830"/>
<path d="M205.803 129.814L206.859 137.202L199.471 135.091L201.582 122.427H202.637L205.803 129.814ZM172.03 135.091L163.587 134.036L169.92 125.593L170.975 127.704L172.03 135.091Z" fill="#2C271C"/>
<path d="M170.975 127.704H174.141L173.086 135.091V136.147L172.03 135.091L170.975 127.704Z" fill="#F5DCCE"/>
<path d="M173.086 135.091L174.141 127.704L176.252 129.814V134.036L173.086 135.091Z" fill="#2C271C"/>
<path d="M222.69 129.814L232.188 131.925L219.524 132.981L222.69 129.814Z" fill="#F5DCCE"/>
<path d="M122.427 135.091L126.648 137.202L128.759 150.922H132.981L122.427 159.366L121.371 135.091H122.427ZM148.812 132.981L156.199 131.925L158.31 140.368H146.701L148.812 132.981ZM173.086 135.091L176.252 134.036L179.418 140.368L173.086 136.147V135.091ZM161.476 153.033L145.645 147.756H158.31V140.368L161.476 147.756V153.033Z" fill="#F7AA7C"/>
<path d="M161.476 147.756L162.532 140.368V142.479L161.476 153.033V147.756Z" fill="#E36830"/>
<path d="M113.983 216.357H103.429L110.817 191.028L98.1523 186.806L113.983 144.59L112.928 162.532V173.086V175.197L104.485 188.917H112.928H115.039L112.928 192.083V200.526V208.97L113.983 216.357Z" fill="#F5DCCE"/>
<path d="M232.188 160.421L218.468 154.089L232.188 145.645L233.244 170.975H232.188V169.92V167.809V160.421ZM202.637 151.978L205.803 146.701L203.693 151.978H202.637Z" fill="#F7AA7C"/>
<path d="M172.03 159.366L164.643 155.144L174.141 154.089V159.366H172.03Z" fill="#47464D"/>
<path d="M161.476 161.476L163.587 160.421V162.532L161.476 161.476Z" fill="#E36830"/>
<path d="M182.584 160.421L211.08 157.255L232.188 160.421V167.809L217.413 170.975L232.188 169.92V170.975L233.244 188.917V240.632L226.911 264.906L202.637 265.961L184.695 264.906H151.978H130.87L124.537 256.463L160.421 238.521L194.194 248.019L192.083 236.41L160.421 229.022L129.814 242.742L124.537 254.352L123.482 213.191L122.427 195.249V163.587L161.476 161.476L163.587 162.532H164.643L175.197 161.476H176.252L181.529 160.421H182.584Z" fill="#47464D"/>
<path d="M163.587 160.421L172.03 159.366H174.141L176.252 161.476H175.197L164.643 162.532H163.587V160.421Z" fill="#F7AA7C"/>
<path d="M112.928 173.086V162.532L113.983 163.587V169.92L112.928 173.086ZM232.188 169.92L217.413 170.975L232.188 167.809V169.92Z" fill="#E36830"/>
<path d="M112.928 173.086L113.983 169.92V185.751L112.928 175.197V173.086Z" fill="#F7AA7C"/>
<path d="M233.244 188.917L232.188 170.975H233.244V188.917Z" fill="#F5DCCE"/>
<path fill-rule="evenodd" clip-rule="evenodd" d="M112.928 188.917H104.485L112.928 175.197L113.983 185.751L112.928 188.917ZM213.191 175.197L219.524 181.529L189.972 180.474L213.191 175.197ZM194.194 186.806L208.97 189.972L206.859 195.249L194.194 189.972L168.864 195.249L194.194 186.806Z" fill="#E36830"/>
<path d="M112.928 192.083L115.039 188.917L113.983 194.194L112.928 192.083Z" fill="#F7AA7C"/>
<path d="M112.928 200.526V192.083L113.983 194.194L115.039 200.526H112.928Z" fill="#E36830"/>
<path d="M112.928 208.97V200.526H115.039V211.08L112.928 208.97Z" fill="#F7AA7C"/>
<path d="M178.363 202.637L195.249 208.969L192.083 216.357L172.03 208.969L142.479 217.413L178.363 202.637ZM113.983 216.357L112.928 208.969L115.039 211.08L113.983 216.357Z" fill="#E36830"/>
<path d="M113.983 243.798L103.429 234.299L116.094 218.468L113.983 225.856V230.078V243.798Z" fill="#F5DCCE"/>
<path d="M113.983 230.078L116.094 243.798H113.983V230.078Z" fill="#F7AA7C"/>
<path d="M124.537 254.352L129.814 242.742L160.421 229.022L192.083 236.41L194.194 248.019L160.421 238.521L124.537 256.463V254.352ZM306.066 382.055L301.845 319.787L280.737 255.407L284.958 248.019L299.734 250.13L312.399 268.072L314.51 273.349L319.787 282.848L322.953 293.402L327.174 310.288L329.285 318.731V319.787L344.061 382.055H306.066Z" fill="#E36830"/>
<path d="M184.695 265.961L151.978 264.906H184.695V265.961Z" fill="#F7AA7C"/>
<path d="M184.695 265.961V264.906L202.637 265.961H184.695Z" fill="#F5DCCE"/>
<path d="M344.061 382.055L329.285 319.787L347.227 382.055H344.061Z" fill="#F7AA7C"/>
</g>
<defs>
<clipPath id="clip0_8_159">
<rect width="381" height="381" fill="white"/>
</clipPath>
</defs>
</svg>
