<svg width="381" height="381" viewBox="0 0 381 381" fill="none" xmlns="http://www.w3.org/2000/svg">
<g clip-path="url(#clip0_9_211)">
<path d="M-8 -6L20 -19H48L46 -17L29 -12L-8 2L-12 5L-16 6L-18 16L-27 12L-39 21L-17 22L-16 37L-1 24L-3 13L4 20L2 15L34 -6L63 -19H83L29 8L10 28L44 21L98 28L102 23L112 33L118 35V21H136L137 28L144 20L148 14L155 19L153 29L138 34L140 63L152 70L142 74L141 85L154 98H141L140 114L149 120L140 131L121 123H111L110 119L109 112L115 116L122 109L129 110L122 97L111 96L123 85V73L112 70L122 62L116 59L118 41L88 30L28 32L93 42L101 37V56L34 46L24 32L16 33L22 43L-8 40L-33 76L-30 151L-36 147L-37 135L-41 147L-34 152L-48 145L-64 141L-65 127L-64 95L-59 121L-51 117L-50 103L-59 69L-67 75L-65 91L-72 77V37H-71L-62 30L-71 28H-72V16L-50 20L-19 -1H-18L-8 -6Z" fill="#2C271C"/>
<path fill-rule="evenodd" clip-rule="evenodd" d="M29 8L83 -19H102L98 19L29 8ZM46 -17L48 -19H63L34 -6L46 -17Z" fill="#47464D"/>
<path d="M98 19L102 -19H117L122 -17L123 7L126 -16L182 8L185 20V27L163 25L153 37L162 41L153 55L162 57L157 62L162 66L153 71L163 73L157 78L163 81L153 87L163 97L152 103L180 109L179 118L160 117L144 132L140 131L149 120L140 114L141 98H154L141 85L142 74L152 70L140 63L138 34L153 29L155 19L157 13L148 9L144 20L137 28L136 21H118L112 33L102 23L98 19Z" fill="#F7AA7C"/>
<path d="M122 -17L117 -19H142L172 -3L202 36L216 35V46L244 45L216 53V65L247 71L246 61L247 49L271 57L273 48L269 33L255 3L227 -19H240L265 8L277 47L294 50V56L297 51L310 50L311 57L303 59L302 74L293 85L303 95L298 100L291 99L292 113L302 121L290 123L291 139L295 141L298 145L311 139H331L321 155L339 162L336 173L339 293V294L329 296L340 298L338 300H337L310 316L323 319V330H334L323 336V361L296 377L280 378L243 396L230 394L235 389L243 375L246 370L183 365L181 373L198 372L181 375L187 398H98V381L97 398H96V379L80 373L73 349L82 341L59 335L60 331L63 319L62 318L68 314L82 339L100 331L269 356L290 348L291 358L309 359L304 344L291 337L175 336L157 324L112 317L102 326L101 309V292L122 287L156 270L212 279L226 281L240 283L239 277L238 261L236 241V279L226 281L225 280V279L223 239L220 279H212V278V277V261L209 241V278L199 277L198 156L205 153L208 186L201 193L202 213L206 231L264 240L286 243L288 244L287 249L288 286L278 289L303 290L302 277V253L301 237L303 164H304L313 290L315 277L314 261V237L313 221L315 166L322 162L319 153L306 151L303 158L300 159L299 161H298L288 168L296 172L300 287V288V290L290 289V269L289 253V231L288 220L287 160L280 199L275 173V160L272 198L262 196L260 175V193L252 196L250 195L249 177V170L247 193L240 194L237 178L243 152L227 145L246 142L254 144L255 151H267L259 144L261 137L269 129H260L259 136L243 135L241 133V127V123L243 111L235 108L244 107V95L237 93L245 91L243 79L248 74L237 77L219 74L229 85L218 88V97L228 109L217 111L216 125L228 132L225 136L220 137L210 142L186 135L195 109L185 104L180 109L152 103L163 97L153 87L163 81L157 78L163 73L153 71L162 66L157 62L162 57L153 55L162 41L153 37L163 25L185 27L184 33L193 34L185 20L182 8L126 -16L122 -17Z" fill="#2C271C"/>
<path d="M172 -3V-19H227L255 3L269 33L264 35L254 33L247 41L216 35L202 36L172 -3ZM294 50L277 47L265 8L240 -19H385L441 30L482 81L522 182L527 240L522 262L468 299L448 315L428 330L384 325L371 331L367 345L380 363L331 398H187L181 375L198 372L181 373L183 365L246 370L243 375L240 377L229 383L230 394L243 396L280 378L283 385L296 377L323 361V336L334 330L337 321L338 300L340 298L339 294V293L340 292L339 259V257V229L338 213V208L337 191L341 186L345 191V180L336 173L339 162L321 155L331 139V131L341 125L332 120L342 110L332 104L342 95L334 89L343 79L334 74L344 64L335 58L338 51V36L328 31L315 36L310 50L297 51L294 50Z" fill="#47464D"/>
<path d="M29 -12L46 -17L34 -6L2 15L4 20L-3 13L-1 24L-16 37L-17 22L-39 21L-27 12L-18 16L-16 6L-12 5L-8 2L9 5L29 -12ZM126 -16L123 7L122 -17L126 -16Z" fill="#E36830"/>
<path d="M-8 2L29 -12L9 5L-8 2Z" fill="#47464D"/>
<path d="M102 23L98 28L44 21L10 28L29 8L98 19L102 23ZM144 20L148 9L157 13L155 19L148 14L144 20Z" fill="#E36830"/>
<path d="M185 27V20L193 34L184 33L185 27Z" fill="#47464D"/>
<path d="M112 33L118 21V35L112 33ZM101 56V37L93 42L28 32L88 30L118 41L116 59L115 51L102 56H101Z" fill="#E36830"/>
<path d="M-71 37V28L-62 30L-71 37ZM310 50L315 36L328 31L338 36V51L320 49L311 58V57L310 50ZM22 43L16 33L24 32L34 46L100 127L110 119L111 123L105 132L112 134L131 137L126 141L93 134L74 140L112 160L124 150L115 282L131 278L122 287L101 292L84 311H69L91 293L67 289L46 303L45 302V277V261L47 301L50 269V254L56 295L58 240L62 291L64 189L68 287L67 156L51 163L53 153L55 144L50 77L22 43Z" fill="#E36830"/>
<path d="M216 35L247 41L254 33L264 35L273 48L271 57L247 49L246 61L224 62L221 54L216 65V53L244 45L216 46V35Z" fill="#F7AA7C"/>
<path d="M264 35L269 33L273 48L264 35ZM190 40L188 35L196 38L190 40Z" fill="#E36830"/>
<path d="M-30 151L-33 76L-8 40L22 43L50 77L55 144L53 153L51 163L47 166L32 168L33 180L39 176H40L43 180V197L44 219L45 236L48 237L45 245L44 277L45 302L46 303L59 309V315V317L60 330V331L59 335L60 356L73 349L80 373L96 379V398H-8L-48 342L-72 284V167L-48 145L-34 152L-30 151Z" fill="#47464D"/>
<path d="M190 40L196 38L201 56L193 57L182 50L190 40Z" fill="#F7AA7C"/>
<path d="M34 46L101 56H102L100 127L34 46Z" fill="#47464D"/>
<path d="M311 58L320 49L338 51L335 58L344 64L334 74L343 79L334 89L342 95L332 104L342 110L332 120L341 125L331 131L314 130L305 124L313 118L305 108L314 103L306 93L315 88L307 78L315 73L311 58Z" fill="#2C271C"/>
<path d="M297 51L294 56V50L297 51Z" fill="#E36830"/>
<path d="M102 56L115 51L116 59L122 62L112 70L123 73V85L111 96L122 97V109L115 116L109 112L110 119L100 127L102 56Z" fill="#F7AA7C"/>
<path d="M216 65L221 54L224 62L246 61L247 71L216 65Z" fill="#E36830"/>
<path d="M303 59L311 57V58L315 73L307 78L315 88L306 93L314 103L305 108L313 118L305 124L314 130L312 134L306 133H305L298 140L295 141L291 139L290 123L302 121L292 113V100H298L303 95L293 85L302 74L303 59Z" fill="#47464D"/>
<path d="M272 65L273 73H265L272 65Z" fill="#E36830"/>
<path d="M191 69L201 72L182 82V73L191 69ZM218 88L229 85L219 74L237 77L243 79L245 91L237 93L244 95V107L235 108L243 111L241 123L232 125L241 127V133L228 132L216 125L217 111L228 109L218 97V88Z" fill="#47464D"/>
<path d="M237 77L248 74L243 79L237 77ZM-72 90V77L-65 91L-64 95L-65 127L-72 90Z" fill="#E36830"/>
<path d="M190 83L198 86L196 99L181 97L186 92L180 90L190 83Z" fill="#47464D"/>
<path d="M264 95V94L272 97L264 95Z" fill="#E36830"/>
<path d="M262 109L264 95L272 97L271 107L266 110H262V109Z" fill="#47464D"/>
<path d="M122 109V97L129 110L122 109Z" fill="#E36830"/>
<path d="M292 113L291 99L298 100H292V113Z" fill="#F7AA7C"/>
<path d="M67 100L94 132L74 136L67 100ZM180 109L185 104L195 109L186 135L181 137L175 131L179 118L180 109Z" fill="#47464D"/>
<path d="M262 110L248 108L262 109V110Z" fill="#E36830"/>
<path d="M144 132L160 117L179 118L175 131L181 137L170 147L164 149L171 269L168 271L161 270V269V253L160 236L159 151L153 148L156 269L148 268V260L147 237V197L146 177L151 148L139 142L132 136L133 143L124 150L112 160L74 140L93 134L126 141L131 137L112 134L121 132L144 135L145 142V135L144 132Z" fill="#2C271C"/>
<path d="M112 134L105 132L111 123H121V132L112 134Z" fill="#F7AA7C"/>
<path d="M121 132V123L140 131L144 132L145 135H144L121 132Z" fill="#E36830"/>
<path d="M241 127L232 125L241 123V127Z" fill="#F7AA7C"/>
<path d="M159 134L158 128L166 130L159 134Z" fill="#E36830"/>
<path d="M259 136L260 129H269L261 137L259 136Z" fill="#47464D"/>
<path d="M159 134L166 130L171 136L166 137L159 134ZM312 134L314 130L331 131V139H311L306 142L305 133H306L312 134Z" fill="#F7AA7C"/>
<path d="M225 136L228 132L241 133L243 135L237 141L246 142L227 145L243 152L237 178L233 153L234 193L228 192L231 161H224V170L223 151L231 150H223L221 189L218 157L211 159L208 186L205 153L198 156V147L197 274L194 151L185 153L184 270L181 148L172 151L170 147L181 137L186 135L210 142L220 137L225 136ZM298 140L305 133L306 142L311 139L298 145V140Z" fill="#E36830"/>
<path fill-rule="evenodd" clip-rule="evenodd" d="M145 135V142L144 135H145ZM254 144H259L261 137L259 136L243 135L237 141L246 142L254 144Z" fill="#F7AA7C"/>
<path d="M133 143L132 136L139 142L133 143ZM166 137L171 136L173 143L159 146L157 138L159 139L168 144L165 139L166 137Z" fill="#E36830"/>
<path d="M151 141L157 138L159 146H157L151 141Z" fill="#F7AA7C"/>
<path d="M198 147L179 142L190 138L209 145L198 147Z" fill="#2C271C"/>
<path fill-rule="evenodd" clip-rule="evenodd" d="M165 139L168 144L159 139H165ZM298 145V140L295 141L298 145ZM124 150L115 282L131 278L122 287L156 270V269L148 268V260L147 237V197L146 177L151 148L139 142L133 143L124 150Z" fill="#F7AA7C"/>
<path d="M255 151L254 144H259L267 151H255Z" fill="#47464D"/>
<path d="M67 156L79 146L97 153L88 155L89 168L67 156Z" fill="#2C271C"/>
<path fill-rule="evenodd" clip-rule="evenodd" d="M290 154L297 158L278 156L287 146V153L290 154ZM-30 151L-36 147H-41L-34 152L-30 151ZM170 147L164 149L171 269L170 147Z" fill="#E36830"/>
<path fill-rule="evenodd" clip-rule="evenodd" d="M197 274L198 147V156L199 276.91L156 270H161L168 271L174 272L184 274H197ZM199 277L200.47 277.15L199 276.91V277ZM200.47 277.15L212 279V278H209L200.47 277.15ZM173 245V205L172 189V151L170 147L171 269L173 245Z" fill="#F7AA7C"/>
<path d="M156 269L153 148L159 151L161 269V270H156V269Z" fill="#E36830"/>
<path d="M172 151L181 148L184 270V271V274L174 272L173 245V205L172 189V151ZM223 150H231L223 151V150Z" fill="#2C271C"/>
<path fill-rule="evenodd" clip-rule="evenodd" d="M161 269L160.62 246.52L161 253V269ZM159 151L160 236L160.62 246.52L159 151ZM184 271L186 257L185 153L184 270V271ZM201 193L202 213L204 222V193L212 190L211 159L208 186L201 193ZM204 225L206 231L204 222V225Z" fill="#F7AA7C"/>
<path d="M287 153L294 149L290 154L287 153Z" fill="#47464D"/>
<path d="M221 189L223 150V151L224 170V192L220 193L218 191L221 189Z" fill="#F7AA7C"/>
<path d="M185 153L194 151L197 274H187L186 257L185 153Z" fill="#2C271C"/>
<path d="M303 158L306 151L319 153L322 162L315 166L314 161L303 158Z" fill="#47464D"/>
<path d="M234 193L233 153L237 178L240 194H234V193Z" fill="#F7AA7C"/>
<path d="M51 163L67 156L68 287L64 189L62 291L58 240L56 295L50 254V269L47 301L45 261V245L48 237L59 229V207V187L55 168V189L51 192L49 173V193L46 195L40 176H39L47 166L51 163ZM211 159L218 157L221 189L218 191L212 190L211 159Z" fill="#2C271C"/>
<path d="M300 159L303 158L314 161L313 290L304 164L308 160L300 159ZM280 199L287 160L286 200L280 201L285 233V237L264 240L206 231L204 225V193L212 190L218 191L220 193L234 194H240L252 196L280 199Z" fill="#F5DCCE"/>
<path d="M299 161L300 159L308 160L304 164H303L299 161Z" fill="#47464D"/>
<path d="M224 170V161H231L228 192H224V170Z" fill="#2C271C"/>
<path d="M272 198L275 160V173L280 199L252 196L260 193V175L262 196L272 198ZM285 233L280 201L286 200L287 160L288 220L286 243L264 240L285 237V233Z" fill="#F7AA7C"/>
<path d="M300 287L296 172L288 168L298 161L300 287Z" fill="#E36830"/>
<path d="M300 287L298 161H299L303 164L301 237L302 253V277L300 288V287ZM313 290L314 161L315 166L313 221L314 237V261L315 277L313 290Z" fill="#F7AA7C"/>
<path d="M333 165L325 168L326 163L333 165Z" fill="#47464D"/>
<path d="M327 290L328 295L312 294L325 293V178L327 290ZM39 176L33 180L32 168L47 166L39 176ZM55 189V168L59 187L57 188L55 189Z" fill="#E36830"/>
<path d="M247 193L249 170V177L250 195L252 196L240 194L247 193Z" fill="#F7AA7C"/>
<path fill-rule="evenodd" clip-rule="evenodd" d="M49 193V173L51 192L49 193ZM339 293L336 173L345 180V191L341 186L337 191L338 208V213L339 257V259L340 292L339 293ZM45.54 193.54L40 176L43 180L45.54 193.54ZM46 195V196L45.54 193.54L46 195Z" fill="#E36830"/>
<path d="M327 290L325 178V197L326 213V245L327 261V290ZM43 197V180L46 196L45 199L44 197H43ZM57 188L59 187V207V213L57 188Z" fill="#F7AA7C"/>
<path fill-rule="evenodd" clip-rule="evenodd" d="M55 189L57 188L59 213V229L48 237L45 236V199L46 196V195L49 193L51 192L55 189ZM220 193L224 192H228L234 193V194L220 193ZM44 219L43 197H44V219Z" fill="#F5DCCE"/>
<path d="M44 219V197L45 199V236L44 219ZM59 213V207V229V213Z" fill="#E36830"/>
<path d="M339 257L338 213L339 229V257Z" fill="#F7AA7C"/>
<path d="M286 243L288 220L289 231L288 244L286 243Z" fill="#E36830"/>
<path d="M288 244L289 231V253L290 269V289L300 290H303L278 289L288 286L287 249L288 244ZM209 241L212 261V277L209 241ZM91 293L100 238L101 287L91 293Z" fill="#F7AA7C"/>
<path d="M522 262L554 238V242L517 272L507 279L382 367L338 398H331L380 363L428 330L448 315L468 299L522 262Z" fill="#2C271C"/>
<path d="M220 279L223 239L225 279V280L220 279Z" fill="#E36830"/>
<path d="M236 241L238 261L239 277L240 283L226 281L236 279V241Z" fill="#F7AA7C"/>
<path d="M209 278V241L212 277V278H209Z" fill="#E36830"/>
<path d="M248 284L249 243L251 284H262L261 249L264 286L273 287L274 249L277 289L248 284ZM44 277L45 245V261V277H44Z" fill="#F7AA7C"/>
<path d="M171 269L173 245L174 272L168 271L171 269ZM184 271L186 257L187 274H184V271Z" fill="#E36830"/>
<path d="M45 302L44 277H45V302Z" fill="#F5DCCE"/>
<path d="M300 288L302 277L303 290H300V288Z" fill="#E36830"/>
<path d="M226 281L212 279H220L225 280L226 281Z" fill="#F7AA7C"/>
<path d="M46 303L67 289L91 293L69 311L67 312L64 311L59 309L46 303Z" fill="#2C271C"/>
<path d="M69 311H84L101 292V309L100 331L82 339L68 314L67 312L69 311Z" fill="#F7AA7C"/>
<path fill-rule="evenodd" clip-rule="evenodd" d="M340 298L329 296L339 294L340 298ZM337 321V300L310 316L323 319V330H334L337 321Z" fill="#E36830"/>
<path d="M337 321V300H338L337 321Z" fill="#F5DCCE"/>
<path d="M59 315V309L64 311L59 315Z" fill="#F7AA7C"/>
<path d="M100 331L101 309L102 326L112 317L157 324L175 336L291 337L304 344L309 359L291 358L290 348L269 356L100 331ZM59 315L64 311L67 312L68 314L62 318L59 317V315Z" fill="#E36830"/>
<path d="M60 330L59 317L62 318L63 319L60 330Z" fill="#F7AA7C"/>
<path d="M60 330L63 319L60 331V330Z" fill="#E36830"/>
<path d="M380 363L367 345L371 331L384 325L428 330L380 363Z" fill="#47464D"/>
<path d="M73 349L60 356L59 335L82 341L73 349ZM554 367L542 360L554 347V367Z" fill="#F7AA7C"/>
<path d="M94 369L81 371L76 348L96 351L94 369Z" fill="#47464D"/>
<path d="M94 369L96 351L97 363H104L94 369Z" fill="#F7AA7C"/>
<path d="M338 398L382 367L410 398H338Z" fill="#47464D"/>
<path d="M240 377L243 375L235 389L240 377Z" fill="#E36830"/>
<path d="M280 378L296 377L283 385L280 378ZM230 394L229 383L240 377L235 389L230 394Z" fill="#F7AA7C"/>
</g>
<defs>
<clipPath id="clip0_9_211">
<rect width="381" height="381" fill="white"/>
</clipPath>
</defs>
</svg>
