<svg width="381" height="381" viewBox="0 0 381 381" fill="none" xmlns="http://www.w3.org/2000/svg">
<path d="M0 154.152V0H148.021L115.614 18.3931L101.6 26.2759L97.2207 27.1517L77.9517 38.5379L70.069 43.7931L46.4207 55.1793L28.9034 90.2138L29.7793 91.0897L26.2759 100.724H25.4L24.5241 105.979V110.359L21.0207 112.986L18.3931 119.993L0 154.152Z" fill="#47464D"/>
<path d="M115.614 18.3931L148.021 0H154.152L115.614 18.3931Z" fill="#2C271C"/>
<path d="M115.614 18.3931L154.152 0H176.924L149.772 7.0069L213.71 11.3862L232.103 5.25517L208.455 0H237.359L307.428 34.1586L363.483 101.6L365.234 114.738L349.469 121.745L321.441 112.986L316.186 125.248H298.669L304.8 144.517L290.786 146.269L299.545 161.159L286.407 171.669L294.29 183.931L315.31 183.055L321.441 203.2L304.8 216.338L295.166 223.345L305.676 230.352L302.172 244.366L274.145 255.752L257.503 246.117L243.49 261.883L254.876 275.021L244.366 271.517L234.731 298.669L246.117 296.041L244.366 317.062L256.628 308.303L257.503 326.697L251.372 332.828L254.876 350.345L265.386 331.952L269.766 326.697L279.4 317.062L290.786 295.166L304.8 303.048L329.324 296.041L341.586 299.545L338.083 310.055L367.862 260.131V275.897L330.2 325.821L290.786 352.972L280.276 358.228L275.897 359.103L214.586 375.745L219.841 374.869L217.214 370.49L216.338 359.103L169.917 350.345L160.283 363.483L173.421 369.614L155.903 374.869L169.041 381H156.779L127 368.738L161.159 346.841L176.048 300.421L173.421 285.531L164.662 261.883L181.303 242.614L167.29 237.359L151.524 247.869L123.497 233.855L92.8414 236.483L71.8207 242.614L64.8138 246.993L62.1862 244.366L59.5586 246.117L63.9379 247.869L42.9172 275.021L20.1448 263.634L8.75862 239.11L7.0069 233.855L21.0207 223.345L16.6414 197.069H46.4207L48.1724 212.834L52.5517 200.572L67.4414 215.462L70.069 207.579L78.8276 212.834L69.1931 203.2L47.2966 170.793L23.6483 175.172L28.9034 154.152L53.4276 155.028L72.6965 131.379L69.1931 118.241L65.6897 125.248L56.931 118.241V110.359L63.9379 97.2207L50.8 105.979L33.2828 95.469L27.1517 104.228L25.4 100.724H26.2759L29.7793 91.0897L28.9034 90.2138L61.3103 52.5517L70.069 46.4207V43.7931L77.9517 38.5379L97.2207 27.1517L101.6 26.2759L115.614 18.3931Z" fill="#E3500A"/>
<path d="M208.455 0L232.103 5.25517L213.71 11.3862L149.772 7.0069L176.924 0H208.455Z" fill="#ED7D11"/>
<path d="M363.483 101.6L307.428 34.1586L237.359 0H282.903L312.683 27.1517L341.586 49.9241L363.483 101.6Z" fill="#2C271C"/>
<path d="M312.683 27.1517L282.903 0H381V152.4H377.497L373.117 127.876L371.366 123.497L363.483 101.6L341.586 49.9241L312.683 27.1517Z" fill="#47464D"/>
<path d="M210.207 39.4138L212.834 21.8966L245.241 24.5242L210.207 39.4138Z" fill="#ED7D11"/>
<path d="M210.207 39.4138L245.241 24.5242L246.117 26.2759V35.9104L250.497 38.538L251.372 39.4138L249.621 43.7931L246.117 42.9173L234.731 38.538L239.11 45.5449H238.234L212.834 47.2966L211.083 46.4207L209.331 42.9173L210.207 39.4138Z" fill="#F5DCCE"/>
<path d="M239.11 45.5449L234.731 38.538L246.117 42.9173L239.11 45.5449ZM249.621 43.7931L251.372 39.4138L258.379 45.5449L249.621 43.7931Z" fill="#ED7D11"/>
<path d="M28.9034 90.2138L46.4207 55.1793L70.069 43.7931V46.4207L61.3103 52.5517L28.9034 90.2138Z" fill="#2C271C"/>
<path d="M167.29 46.4207H176.048L164.662 54.3034L168.166 50.8L167.29 46.4207Z" fill="#F5DCCE"/>
<path d="M164.662 54.3034L176.048 46.4207L172.545 59.5586L164.662 54.3034ZM85.8345 128.752L116.49 137.51L129.628 126.124L162.91 156.779L168.166 147.145L148.897 134.883V119.993L184.807 111.234L176.924 121.745L188.31 124.372L198.821 159.407L210.207 146.269L196.193 124.372L213.71 127.876L205.828 106.855L221.593 85.8344L224.221 99.8482L239.986 91.0896L256.628 102.476L236.483 112.986L246.993 118.241L230.352 131.379L243.49 137.51L239.986 148.897L213.71 141.014L209.331 166.414L216.338 181.303L243.49 167.29L246.993 138.386L261.007 144.517L275.021 132.255L288.159 143.641L276.772 163.786L261.883 166.414L272.393 180.428L254.876 168.165L230.352 184.807L261.007 217.214L254.876 223.345L225.097 216.338V207.579L207.579 211.959L206.703 226.848L197.069 216.338L165.538 226.848L171.669 210.207L183.931 218.09L177.8 203.2L193.566 183.931L176.048 174.297L162.034 188.31L138.386 172.545L124.372 183.931L144.517 190.938L149.772 183.931L170.793 204.076L143.641 224.221L125.248 220.717L122.621 206.703L134.007 207.579L106.855 192.69L112.11 178.676L95.469 181.303L107.731 175.172L103.352 162.034L75.3241 158.531L74.4483 157.655L82.331 142.765L73.5724 132.255L87.5862 138.386L85.8345 128.752ZM27.1517 104.228L33.2828 95.4689L50.8 105.979L63.9379 97.2207L56.931 110.359L51.6759 123.497L49.0483 112.11H37.6621L38.5379 141.89L49.0483 150.648L56.931 118.241L65.6897 125.248L69.1931 118.241L72.6966 131.379L53.4276 155.028L28.9035 154.152L23.6483 175.172L47.2966 170.793L69.1931 203.2L60.4345 204.076L70.069 207.579L67.4414 215.462L52.5517 200.572L48.1724 212.834L46.4207 197.069H16.6414L21.0207 223.345L7.0069 233.855L0 231.228V162.034L18.3931 119.993L21.0207 112.986L24.5241 110.359L27.1517 105.103V104.228Z" fill="#ED7D11"/>
<path d="M24.5241 105.979L25.4 100.724L27.1517 104.228V105.103L24.5241 105.979Z" fill="#2C271C"/>
<path d="M212.834 100.724L236.483 120.869L214.586 118.241L212.834 100.724Z" fill="#F5DCCE"/>
<path d="M365.234 114.738L363.483 101.6L371.366 123.497L365.234 114.738Z" fill="#2C271C"/>
<path d="M24.5241 105.979L27.1517 105.103L24.5241 110.359V105.979Z" fill="#E3500A"/>
<path d="M56.931 118.241L49.0483 150.648L38.5379 141.89L37.6621 112.11H49.0483L51.6759 123.497L56.931 110.359V118.241Z" fill="#F5DCCE"/>
<path d="M304.8 216.338L321.441 203.2L315.31 183.055L294.29 183.931L286.407 171.669L299.545 161.159L290.786 146.269L304.8 144.517L298.669 125.248H316.186L321.441 112.986L349.469 121.745L365.234 114.738L371.366 123.497L373.117 127.876L370.49 132.255L373.117 137.51V141.89L363.483 148.897L374.869 144.517L376.621 152.4L378.372 157.655L381 169.041V197.069L373.117 185.683L362.607 222.469L373.117 209.331L381 226.848V235.607L378.372 242.614L374.869 251.372L367.862 260.131L338.083 310.055L341.586 299.545L329.324 296.041L304.8 303.048L290.786 295.166L279.4 317.062L282.028 310.055L268.014 312.683L257.503 326.697L256.628 308.303L244.366 317.062L246.117 296.041L234.731 298.669L244.366 271.517L254.876 275.021L243.49 261.883L257.503 246.117L274.145 255.752L302.172 244.366L305.676 230.352L295.166 223.345L304.8 216.338Z" fill="#ED7D11"/>
<path d="M353.848 153.276L345.09 155.903L338.083 137.51L315.31 149.772L303.048 134.007L315.31 136.634L310.055 127.876L326.697 119.117L345.966 141.89L359.979 142.765L353.848 153.276Z" fill="#F5DCCE"/>
<path d="M0 154.152L18.3931 119.993L0 162.035V154.152ZM370.49 132.255L373.117 127.876L377.497 152.4H376.621L374.869 144.517L373.117 141.89V137.51L370.49 132.255Z" fill="#2C271C"/>
<path fill-rule="evenodd" clip-rule="evenodd" d="M128.752 134.883L136.634 145.393L125.248 160.283L135.759 171.669L121.745 181.304L117.366 152.4L109.483 155.904L106.855 145.393L128.752 134.883ZM374.869 144.517L363.483 148.897L373.117 141.89L374.869 144.517Z" fill="#F5DCCE"/>
<path d="M378.372 157.655L376.621 152.4H377.497L378.372 157.655Z" fill="#E3500A"/>
<path d="M378.372 157.655L377.497 152.4H381V169.041L378.372 157.655Z" fill="#2C271C"/>
<path fill-rule="evenodd" clip-rule="evenodd" d="M190.062 158.531L206.703 168.165L198.821 180.428H180.428L194.441 177.8L190.062 158.531ZM345.966 159.407L353.848 162.034L345.09 171.669L345.966 159.407Z" fill="#F5DCCE"/>
<path d="M169.041 160.283L190.938 175.172L164.662 173.421L169.041 160.283Z" fill="#E3500A"/>
<path d="M302.172 163.786L297.793 176.048L290.786 164.662L302.172 163.786Z" fill="#F5DCCE"/>
<path d="M224.221 169.041L230.352 175.172H216.338L224.221 169.041Z" fill="#2C271C"/>
<path d="M360.855 178.676L356.476 225.972L338.959 251.372L318.814 255.752L337.207 232.103L342.462 190.062L360.855 178.676Z" fill="#E3500A"/>
<path fill-rule="evenodd" clip-rule="evenodd" d="M21.0207 180.428L28.9034 191.814H19.269L21.0207 180.428ZM45.5448 190.062L58.6827 193.566L50.8 181.303L45.5448 190.062ZM217.214 198.821L235.607 204.952L219.841 183.055L217.214 198.821ZM381 197.069L373.117 185.683L362.607 222.469L373.117 209.331L381 226.848V197.069Z" fill="#F5DCCE"/>
<path d="M69.1931 203.2L78.8276 212.834L70.069 207.579L69.1931 203.2Z" fill="#ED7D11"/>
<path d="M70.069 207.579L60.4345 204.076L69.1931 203.2L70.069 207.579Z" fill="#F5DCCE"/>
<path fill-rule="evenodd" clip-rule="evenodd" d="M271.517 224.221L269.766 215.462L285.531 218.09L281.152 206.703L292.538 202.324L284.655 225.097L292.538 239.11L271.517 224.221ZM304.8 216.338L295.165 215.462L297.793 208.455L304.8 216.338ZM45.5448 225.972L56.0552 231.228L51.6759 238.234L45.5448 225.972Z" fill="#ED7D11"/>
<path d="M0 231.228L7.0069 233.855L8.75862 239.11L20.1448 263.634L19.269 275.021H17.5172L12.2621 267.138L13.1379 263.634L6.13103 251.372L3.50345 242.614L0 244.365V231.228ZM92.8414 236.483L123.497 233.855L151.524 247.869L164.662 261.883L173.421 285.531L162.91 273.269L158.531 268.89L153.276 264.51H151.524L140.138 258.379L92.8414 236.483Z" fill="#2C271C"/>
<path d="M378.372 242.614L381 235.607V241.738L378.372 242.614ZM71.8207 242.614L92.8414 236.483L140.138 258.379L151.524 264.51H153.276L158.531 268.89L162.91 273.269L173.421 285.531L176.048 300.421L128.752 259.255L118.241 268.89L97.2207 266.262L91.0896 257.503L101.6 255.752L90.2138 248.745L71.8207 242.614Z" fill="#2C271C"/>
<path d="M151.524 247.869L167.29 237.359L181.303 242.614L164.662 261.883L151.524 247.869Z" fill="#ED7D11"/>
<path d="M378.372 242.614L381 241.738V270.641V271.517V381H219.841L275.897 359.103L280.276 358.228L290.786 352.972L346.841 312.683L373.117 278.524L374.869 251.372L378.372 242.614ZM0 244.366L3.50345 242.614L6.13103 251.372L13.1379 263.634L12.2621 267.138L17.5172 275.021L26.2759 290.786L30.6552 293.414L31.531 294.29L36.7862 304.8L37.6621 300.421V295.166L42.9172 275.021L63.9379 247.869L64.8138 246.993L71.8207 242.614L90.2138 248.745L101.6 255.752L91.0897 257.503L97.2207 266.262L118.241 268.89L128.752 259.255L176.048 300.421L161.159 346.841L127 368.738L102.476 373.117L132.255 381H0V244.366Z" fill="#47464D"/>
<path d="M59.5586 246.117L62.1862 244.365L64.8138 246.993L63.9379 247.869L59.5586 246.117Z" fill="#F5DCCE"/>
<path d="M90.2138 248.745L93.7172 256.628L82.331 250.497L90.2138 248.745Z" fill="#2C271C"/>
<path d="M310.055 250.497L320.566 261.007L309.179 262.759L310.055 250.497Z" fill="#F5DCCE"/>
<path d="M367.862 260.131L374.869 251.372L373.117 278.524L346.841 312.683L290.786 352.972L330.2 325.821L367.862 275.897V260.131Z" fill="#2C271C"/>
<path d="M207.579 261.883L217.214 263.635L207.579 270.641V261.883ZM20.1448 263.635L42.9172 275.021L37.6621 295.166L30.6552 293.414L26.2758 290.786L19.269 275.021L20.1448 263.635Z" fill="#ED7D11"/>
<path d="M331.076 262.759L338.959 266.262L326.697 274.145L331.076 262.759Z" fill="#E3500A"/>
<path d="M268.89 302.172L268.014 310.931L251.372 305.676L257.503 294.29L247.869 297.793L240.862 283.779L270.641 263.635L253.124 286.407L270.641 289.91L268.89 302.172Z" fill="#F5DCCE"/>
<path d="M111.234 281.152L102.476 271.517L112.986 272.393L111.234 281.152Z" fill="#2C271C"/>
<path d="M286.407 268.89L296.917 274.145L293.414 289.034L272.393 289.91L286.407 268.89Z" fill="#E3500A"/>
<path d="M26.2759 290.786L17.5172 275.021H19.269L26.2759 290.786Z" fill="#2C271C"/>
<path d="M323.193 275.021L325.821 284.655L322.317 278.524L310.055 294.29L311.807 278.524L316.186 284.655L323.193 275.021Z" fill="#E3500A"/>
<path d="M111.234 281.152L133.131 286.407L122.621 287.283L119.117 307.428L111.234 281.152Z" fill="#2C271C"/>
<path d="M30.6552 293.414L37.6621 295.166V300.421L32.4069 296.041L31.531 294.29L30.6552 293.414Z" fill="#F5DCCE"/>
<path d="M36.7862 304.8L31.531 294.29L32.4069 296.041L36.7862 304.8Z" fill="#2C271C"/>
<path d="M36.7862 304.8L32.4069 296.041L37.6621 300.421L36.7862 304.8Z" fill="#ED7D11"/>
<path d="M257.503 326.697L268.014 312.683L282.028 310.055L279.4 317.062L269.766 326.697L265.386 331.952L260.131 342.462L251.372 332.828L257.503 326.697Z" fill="#F5DCCE"/>
<path d="M265.386 331.952L254.876 350.345L251.372 332.828L260.131 342.462L265.386 331.952ZM169.041 381L155.903 374.869L173.421 369.614L160.283 363.483L169.917 350.345L216.338 359.103L217.214 370.49L188.31 365.234L202.324 373.993L184.807 377.496L197.069 378.372L189.186 381H169.041Z" fill="#ED7D11"/>
<path d="M214.586 375.745L275.897 359.104L219.841 381H189.186L197.069 378.372L214.586 375.745Z" fill="#2C271C"/>
<path d="M197.069 378.372L184.807 377.497L202.324 373.993L188.31 365.234L217.214 370.49L219.841 374.869L214.586 375.745L197.069 378.372Z" fill="#F5DCCE"/>
<path d="M132.255 381L102.476 373.117L127 368.738L156.779 381H132.255Z" fill="#2C271C"/>
</svg>
