<svg width="179" height="200" viewBox="0 0 179 200" fill="none" xmlns="http://www.w3.org/2000/svg">
<path d="M177.958 58.8101C177.957 55.4481 177.238 52.4772 175.784 49.9281C174.355 47.4202 172.216 45.3187 169.347 43.6571C145.663 30.0007 121.956 16.3861 98.2794 2.71575C91.8963 -0.969298 85.7074 -0.834258 79.3717 2.9037C69.9447 8.4626 22.747 35.5033 8.68266 43.6495C2.89058 47.0032 0.0721477 52.1347 0.0707556 58.8039C0.0617065 86.2677 0.0707556 113.732 0.0617065 141.195C0.0617065 144.484 0.751522 147.398 2.14159 149.908C3.57065 152.491 5.73963 154.651 8.67501 156.35C22.74 164.496 69.944 191.535 79.3689 197.096C85.7074 200.836 91.8963 200.969 98.2814 197.284C121.959 183.613 145.667 169.998 169.355 156.341C172.29 154.643 174.459 152.482 175.888 149.901C177.276 147.39 177.967 144.477 177.967 141.188C177.967 141.188 177.967 86.2747 177.958 58.8101Z" fill="#F7AA7C"/>
<path d="M89.2866 99.7319L2.14154 149.908C3.57059 152.491 5.73958 154.651 8.67495 156.35C22.74 164.496 69.9439 191.535 79.3689 197.096C85.7074 200.836 91.8962 200.969 98.2814 197.283C121.959 183.612 145.667 169.998 169.355 156.341C172.29 154.643 174.459 152.482 175.888 149.901L89.2866 99.7319Z" fill="#E36830"/>
<path d="M177.958 58.8101C177.957 55.448 177.238 52.4772 175.784 49.9281L89.2867 99.7327L175.888 149.901C177.276 147.39 177.966 144.477 177.967 141.188C177.967 141.188 177.967 86.2747 177.958 58.8101Z" fill="#E36830"/>
<path d="M140.595 80.9747V90.3537H149.974V80.9747H154.663V90.3537H164.042V95.0432H154.663V104.421H164.042V109.111H154.663V118.49H149.974V109.111H140.595V118.49H135.905V109.111H126.527V104.421H135.905V95.0432H126.527V90.3537H135.905V80.9747H140.595ZM149.974 95.0425H140.595V104.421H149.974V95.0425Z" fill="#F3F3F3"/>
<path d="M89.4781 33.8723C113.941 33.8723 135.299 47.1577 146.739 66.9055L146.628 66.7155L117.845 83.2878C112.175 73.6867 101.779 67.2069 89.8533 67.0733L89.4774 67.0712C71.2923 67.0712 56.5493 81.8142 56.5493 99.9993C56.5434 105.731 58.0408 111.364 60.8922 116.336C66.568 126.245 77.2382 132.928 89.4781 132.928C101.794 132.928 112.525 126.16 118.171 116.146L118.034 116.386L146.773 133.035C135.458 152.615 114.393 165.86 90.2146 166.123L89.4781 166.128C64.9378 166.128 43.5194 152.76 32.1078 132.908C26.5371 123.216 23.3497 111.981 23.3497 99.9993C23.3497 63.4787 52.9555 33.8716 89.4774 33.8716L89.4781 33.8723Z" fill="#F3F3F3"/>
</svg>
