<svg width="381" height="381" viewBox="0 0 381 381" fill="none" xmlns="http://www.w3.org/2000/svg">
<path d="M0 381V0H146.596L114.226 14.8828L86.3203 52.0898L81.4834 59.1592L78.5068 66.6006H51.7178V373.187H119.435L109.017 380.628V381H0Z" fill="#47464D"/>
<path d="M86.3203 52.0898L114.226 14.8828L146.596 0H262.682L314.027 39.0674L318.492 46.1367H316.26L313.655 46.5088L317.748 52.0898L324.817 60.6475L324.445 66.6006H287.61L269.751 43.9043L259.333 38.6953L262.31 36.0908L251.52 33.8584L257.845 31.998L249.287 32.7422L251.147 29.3936L245.566 28.2773L206.127 38.6953L207.243 36.0908L194.965 37.5791L196.081 34.2305L189.756 36.4629L183.431 31.2539L176.361 36.835L174.129 34.2305L169.292 37.207L168.92 30.8818L156.642 36.4629L151.805 29.3936L145.479 30.1377L121.667 47.625L106.04 66.6006H78.5068L81.4834 59.1592L86.3203 52.0898Z" fill="#2C271C"/>
<path d="M314.027 39.0674L262.682 0H381V373.931L374.675 370.21L356.443 363.141L347.886 356.443V66.6006H324.445L324.817 60.6475L317.748 52.0898L316.26 46.1367H318.492L314.027 39.0674Z" fill="#47464D"/>
<path d="M212.08 13.3945L206.499 19.7197L212.452 17.1152L201.29 25.6729L212.08 13.3945ZM106.04 66.6006L121.667 47.625L145.479 30.1377L151.805 29.3936L156.642 36.4629L168.92 30.8818L169.292 37.207L174.129 34.2305L176.361 36.835L183.431 31.2539L189.756 36.4629L196.081 34.2305L194.965 37.5791L207.243 36.0908L206.127 38.6953L245.566 28.2773L251.147 29.3936L249.287 32.7422L257.845 31.998L251.52 33.8584L262.31 36.0908L259.333 38.6953L269.751 43.9043L287.61 66.6006H285.378L263.054 45.0205L239.241 37.5791L225.475 43.9043L204.267 44.6484L204.639 42.0439L198.686 46.5088L199.43 43.9043L189.012 45.3926L190.5 42.416L187.896 44.6484L182.687 40.5557L174.873 43.9043L173.385 39.0674L170.78 43.1602L168.92 39.8115L161.479 43.1602L150.316 37.5791L141.387 42.0439L138.782 39.0674L120.551 50.6016L107.528 66.6006H106.04Z" fill="#E36830"/>
<path d="M107.528 66.6006L120.551 50.6016L138.782 39.0674L141.387 42.0439L150.316 37.5791L161.479 43.1602L168.92 39.8115L170.78 43.1602L173.385 39.0674L174.873 43.9043L182.687 40.5557L187.896 44.6484L190.5 42.416L189.012 45.3926L199.43 43.9043L198.686 46.5088L204.639 42.0439L204.267 44.6484L225.475 43.9043L239.241 37.5791L263.054 45.0205L285.378 66.6006H267.146L257.101 51.7178L247.427 45.3926L195.337 50.6016L171.896 44.6484L159.618 48.3691L134.689 46.8809L112.365 66.6006H107.528Z" fill="#F7AA7C"/>
<path d="M112.365 66.6006L134.689 46.8809L159.618 48.3691L171.896 44.6484L195.337 50.6016L247.427 45.3926L257.101 51.7178L267.146 66.6006H112.365Z" fill="#F5DCCE"/>
<path d="M317.748 52.0898L313.655 46.5088L316.26 46.1367L317.748 52.0898Z" fill="#E36830"/>
<path d="M267.146 66.6006H285.378H287.61H324.445H347.886V356.443V373.187H306.958H306.214H298.028H282.773H282.029H237.381H172.269H131.341L125.388 375.791L120.551 373.187H119.435H51.7178V66.6006H78.5068H106.04H107.528H112.365H267.146Z" fill="#FD0101"/>
<path d="M122.039 370.21H54.6943V69.5771H78.5068L77.3906 79.251L77.0186 141.015L78.8789 147.34L77.0186 151.805L82.2275 165.571L78.5068 165.199L76.2744 179.338L78.8789 189.384L83.7158 168.92L86.3203 172.269L82.2275 201.662L93.0176 276.82V277.192L94.1338 280.541L96.3662 289.843L98.5986 295.424L107.156 312.539L114.97 324.817L119.062 330.771L123.527 334.863L127.992 339.7V340.444L130.969 358.304L122.039 370.21Z" fill="#47464D"/>
<path d="M77.3906 79.251L78.5068 69.5771H79.251L77.3906 79.251Z" fill="#E36830"/>
<path d="M77.3906 79.251L79.251 69.5771H104.552L84.0879 88.1807L86.6924 89.6689L83.7158 94.1338L89.2969 87.8086L87.4365 93.7617L93.0176 90.7852L90.4131 111.993L94.5059 127.992L93.3896 172.269L88.9248 173.013L78.8789 147.34L77.0186 141.015L77.3906 79.251Z" fill="#2C271C"/>
<path d="M93.3896 172.269L94.5059 127.992L90.4131 111.993L93.0176 90.7852L87.4365 93.7617L89.2969 87.8086L83.7158 94.1338L86.6924 89.6689L84.0879 88.1807L104.552 69.5771H106.04L96.3662 109.017L93.3896 172.269Z" fill="#E36830"/>
<path d="M93.3896 172.269L96.3662 109.017L106.04 69.5771H109.017L108.272 111.621L113.854 129.108V149.572L122.783 152.921L138.038 148.828L169.292 149.944L186.407 161.106L213.94 148.084L232.916 150.316L256.356 143.991L261.193 151.061L267.519 149.572L268.635 146.596L259.333 140.643L258.961 134.689L267.146 102.691L273.472 94.1338L274.588 69.5771H287.238L293.191 82.9717L290.587 82.2275L292.819 97.4824L287.982 132.457L300.261 159.618L294.308 168.176L286.866 172.641L281.285 174.501L268.635 157.758L222.126 153.293L203.15 159.99L196.453 177.85L192.36 177.478L186.779 166.688L180.826 177.478L180.454 177.85H176.361L173.385 160.362L155.897 151.805L138.41 152.177L110.877 161.479L105.668 167.06L125.388 165.943L97.8545 171.524L88.9248 173.013L93.3896 172.269Z" fill="#F7AA7C"/>
<path d="M274.588 69.5771L273.472 94.1338L267.146 102.691L258.961 134.689L259.333 140.643L268.635 146.596L267.519 149.572L261.193 151.061L256.356 143.991L232.916 150.316L213.94 148.084L186.407 161.106L169.292 149.944L138.038 148.828L122.783 152.921L113.854 149.572V129.108L108.272 111.621L109.017 69.5771H274.588Z" fill="#F5DCCE"/>
<path d="M294.308 168.176L300.261 159.618L287.982 132.457L292.819 97.4824L290.587 82.2275L293.191 82.9717L287.238 69.5771H289.471L296.168 79.251L292.447 78.1348L293.563 82.2275L300.633 87.4365L295.052 85.9482L301.377 101.203L298.028 98.9707L296.54 133.945L301.377 159.618L294.308 168.176Z" fill="#E36830"/>
<path d="M294.308 168.176L301.377 159.618L296.54 133.945L298.028 98.9707L301.377 101.203L295.052 85.9482L300.633 87.4365L293.563 82.2275L292.447 78.1348L296.168 79.251L289.471 69.5771H323.329L326.306 80.3672V88.9248L327.794 109.017L324.073 141.759L324.817 147.712L321.469 159.246L311.795 170.78L311.423 190.128H314.399L310.307 197.941L308.446 228.451L303.609 220.638L305.098 181.942L301.749 172.269L286.494 182.314L278.309 182.687L276.82 192.36L274.216 201.662L266.402 206.499L215.801 207.987L205.011 202.406L194.221 181.57H177.478L177.105 187.151L175.989 190.872L162.595 206.499L127.992 209.476L106.784 203.895L99.3428 197.569L96.7383 181.942V178.966L87.4365 178.594L88.5527 173.757L97.8545 171.524L125.388 165.943H134.317H137.666L141.387 164.827L135.806 162.595L138.782 159.246L151.805 156.642L174.129 178.222L180.454 177.85L180.826 177.478H192.36L196.453 177.85L226.963 157.014L239.241 159.99L241.474 166.315L231.8 166.688L239.985 167.06L269.007 169.664L274.96 175.617L286.866 172.641L294.308 168.176Z" fill="#2C271C"/>
<path d="M326.306 80.3672L323.329 69.5771H344.909V353.839L311.051 314.027L299.889 305.842L299.145 292.819L299.889 291.331L301.749 280.541L302.865 275.332L303.981 269.007L305.842 264.17L305.098 260.449L307.33 250.403L313.655 246.683L309.935 244.45L311.795 203.15L314.027 214.312L320.353 211.708L325.189 200.174L322.213 184.175L328.91 190.872L333.375 185.663L333.747 164.455L329.282 162.967L326.306 165.571H321.469L324.817 147.712L324.073 141.759L328.91 123.899L327.794 109.017L326.306 88.9248V80.3672Z" fill="#47464D"/>
<path fill-rule="evenodd" clip-rule="evenodd" d="M324.073 141.759L327.794 109.017L328.91 123.899L324.073 141.759ZM93.0176 276.82L82.2275 201.662L86.3203 172.269L83.7158 168.92L78.8789 189.384L76.2744 179.338L78.5068 165.199L82.2275 165.571L77.0186 151.805L78.8789 147.34L88.9248 173.013L97.8545 171.524L88.5527 173.757L87.4365 178.594L83.7158 192.732L85.9482 210.592L88.9248 214.312L90.4131 209.476L93.7617 250.031L111.249 260.077L114.226 266.402L111.993 274.588L123.155 293.936L126.504 293.191L126.132 287.982L117.574 279.053L115.342 266.774L153.665 235.893L157.758 238.497L141.387 259.705L154.409 260.077L161.106 255.984H157.386L160.362 252.636L158.13 248.543L168.176 245.194L180.454 250.031L196.453 245.194L213.568 248.171L219.149 245.566L219.894 260.449L226.591 264.17L225.475 260.077L229.939 263.798L237.381 257.845L227.335 244.078L218.777 244.45L217.289 237.753L225.103 235.521L254.496 257.101L256.356 282.029L261.565 285.378L269.007 275.704L270.867 255.984L286.866 242.59L300.261 191.988L300.633 183.431L293.936 178.594L276.82 192.36L278.309 182.687L286.494 182.314L301.749 172.269L305.098 181.942L303.609 220.638L308.446 228.451L310.307 197.941L314.399 190.128H311.423L311.795 170.78L321.469 159.246L324.817 147.712L321.469 165.571H326.306L331.515 170.036L332.631 164.827L329.282 162.967L333.747 164.455L333.375 185.663L328.91 190.872L322.213 184.175L325.189 200.174L320.353 211.708L314.027 214.312L311.795 203.15L309.935 244.45L313.655 246.683L307.33 250.403L306.165 255.646L301.749 253.752L293.191 281.285L271.983 302.493L271.611 314.027L263.798 322.957L258.217 315.888L261.193 309.19L257.473 306.958L252.636 310.679L247.055 302.121L250.403 279.797L246.311 271.611L234.776 266.402L237.381 270.123L231.428 268.263L230.312 273.1L216.917 266.774L216.173 270.123L212.08 262.31L215.429 252.264L207.987 249.659L183.431 258.217L170.036 254.496L172.641 252.636L168.176 249.287L159.99 250.031L165.943 260.077L158.874 261.565L154.781 270.867L159.246 278.681L162.595 276.448L166.315 280.913L167.06 277.192V280.169L178.594 282.029L188.64 279.425L192.732 284.262L199.058 281.285L200.918 288.727L181.942 290.959L235.521 285.75L241.846 290.587L242.218 303.609L239.241 301.749L238.497 307.33L241.102 314.027L237.009 311.423L233.66 314.771L235.893 318.12L232.172 316.26L234.776 318.864L221.382 333.747V342.305L217.661 338.956L218.405 349.002L214.685 347.514L216.173 351.234H210.964L211.336 355.327L209.476 351.606L200.174 356.815L197.569 352.723L197.197 357.188L192.732 352.351L182.314 357.56L180.454 354.583L180.826 358.304L178.222 354.211L176.733 358.304L168.548 353.095L164.827 357.188L165.199 347.142L159.618 351.234L161.106 337.84L155.153 341.561L152.921 331.515L146.968 333.375L150.688 327.422L142.131 326.306L147.34 319.98L141.015 322.213L143.991 319.608L142.503 309.935L138.782 311.423L137.666 307.33L140.643 292.447L136.178 292.075L142.131 285.378L172.641 289.099L154.781 285.75L149.572 277.564L146.968 281.657L147.712 269.007L132.085 271.983L131.713 265.286L127.62 267.891L124.271 280.913L126.504 287.982L129.853 286.122L129.48 300.633L123.899 304.354L118.69 302.121L117.202 305.842L105.296 294.68L98.2266 276.82H93.0176ZM306.165 255.646L306.958 255.984L305.098 260.449L306.165 255.646ZM125.388 165.943L105.668 167.06L110.877 161.479L138.41 152.177L155.897 151.805L173.385 160.362L176.361 177.85H180.454L174.129 178.222L151.805 156.642L138.782 159.246L135.806 162.595L141.387 164.827L137.666 165.943H125.388ZM196.453 177.85L203.15 159.99L222.126 153.293L268.635 157.758L280.991 174.11L274.96 175.617L269.007 169.664L239.985 167.06L231.8 166.688L241.474 166.315L239.241 159.99L226.963 157.014L196.453 177.85ZM280.991 174.11L286.866 172.641L281.285 174.501L280.991 174.11Z" fill="#E36830"/>
<path d="M75.9023 153.665L79.9951 155.897L81.1113 164.455L75.5303 161.479L74.7861 168.548L75.9023 153.665Z" fill="#F5DCCE"/>
<path d="M326.306 165.571L329.282 162.967L332.631 164.827L331.515 170.036L326.306 165.571Z" fill="#2C271C"/>
<path d="M109.017 168.176L145.107 169.664L127.62 173.757L120.179 183.059L131.713 175.989L139.526 185.663L148.456 184.547L152.921 178.222L160.362 185.291L168.176 181.942L170.78 186.407L166.315 201.662L164.455 197.941L153.665 202.778L137.666 200.546L117.946 190.872L108.645 180.454L109.017 168.176Z" fill="#E36830"/>
<path d="M180.826 177.478L186.779 166.688L192.36 177.478H180.826Z" fill="#F5DCCE"/>
<path d="M98.2266 177.478L101.575 170.036L109.017 168.176L108.645 180.454L117.946 190.872L137.666 200.546L153.665 202.778L164.455 197.941L166.315 201.662L164.455 203.15L154.781 206.871L131.713 207.987L121.295 206.127L119.807 205.383L109.389 200.546L113.854 204.267L103.063 200.174L98.2266 187.523V177.478Z" fill="#F7AA7C"/>
<path d="M131.713 168.92L117.946 178.966L121.667 172.269L131.713 168.92Z" fill="#2C271C"/>
<path d="M206.127 200.174L201.662 191.244L206.499 195.337L207.615 187.151L201.29 179.71L200.174 186.407L199.43 181.57L206.871 171.896L207.243 177.105L216.173 180.082L216.917 183.803L229.195 175.617L232.916 184.919L242.218 185.663L248.543 178.222L264.914 187.896L268.263 186.035L266.774 180.826L248.915 168.92L270.123 171.152L275.332 180.454L274.588 194.593L271.611 189.384L250.403 205.011L240.357 200.174L225.103 202.406L208.359 195.709L206.127 200.174Z" fill="#E36830"/>
<path d="M90.4131 209.476L88.9248 214.312L85.9482 210.592L83.7158 192.732L87.4365 178.594L90.7852 189.384L90.4131 199.058L90.041 200.546L90.4131 209.104V209.476Z" fill="#2C271C"/>
<path d="M90.7852 189.384L87.4365 178.594L96.7383 178.966V181.942L90.7852 189.384Z" fill="#E36830"/>
<path d="M276.82 192.36L293.936 178.594L300.633 183.431L300.261 191.988L286.866 242.59L270.867 255.984L269.007 275.704L261.565 285.378L256.356 282.029L254.496 257.101L225.103 235.521L217.289 237.753L218.777 244.45L227.335 244.078L237.381 257.845L229.939 263.798L225.475 260.077L226.591 264.17L219.894 260.449L219.149 245.566L213.568 248.171L196.453 245.194L180.454 250.031L168.176 245.194L158.13 248.543L160.362 252.636L157.386 255.984H161.106L154.409 260.077L141.387 259.705L157.758 238.497L153.665 235.893L115.342 266.774L117.574 279.053L126.132 287.982L126.504 293.191L123.155 293.936L111.993 274.588L114.226 266.402L111.249 260.077L93.7617 250.031L90.4131 209.476V209.104L90.041 200.546L90.4131 199.058L90.7852 189.384L96.7383 181.942L99.3428 197.569L106.784 203.895L105.668 233.288L116.458 245.566L134.317 240.729L154.409 226.591L152.549 219.894L127.992 209.476L162.595 206.499L162.967 209.848L169.292 205.383L175.989 191.616L175.245 211.708L167.804 236.265L173.385 243.706L181.57 245.938L196.081 242.218L200.174 235.148L193.849 187.523L182.314 182.687L175.989 190.872L177.105 187.151L179.71 181.942L189.756 181.57L205.011 204.267L214.312 211.336L215.801 207.987L266.402 206.499L274.216 201.662L276.82 192.36Z" fill="#F7AA7C"/>
<path d="M177.105 187.151L177.478 181.57H194.221L205.011 202.406L215.801 207.987L214.312 211.336L205.011 204.267L189.756 181.57L179.71 181.942L177.105 187.151Z" fill="#E36830"/>
<path d="M175.989 190.872L182.314 182.687L193.849 187.523L200.174 235.148L196.081 242.218L181.57 245.938L173.385 243.706L167.804 236.265L175.245 211.708L175.989 191.616V190.872Z" fill="#F5DCCE"/>
<path d="M206.127 200.174L208.359 195.709L225.103 202.406L240.357 200.174L250.403 205.011L271.611 189.384L274.588 194.593L269.751 202.406L237.753 207.243L251.892 207.615L247.427 207.987H231.428L221.01 206.871L210.964 204.639L206.127 200.174Z" fill="#F7AA7C"/>
<path d="M162.595 206.499L175.989 190.872V191.616L169.292 205.383L162.967 209.848L162.595 206.499Z" fill="#E36830"/>
<path d="M113.854 204.267L109.389 200.546L119.807 205.383L114.598 204.639L113.854 204.267Z" fill="#F5DCCE"/>
<path d="M251.892 207.615L237.753 207.243L269.751 202.406L251.892 207.615Z" fill="#E36830"/>
<path d="M127.992 209.476L152.549 219.894L154.409 226.591L134.317 240.729L116.458 245.566L105.668 233.288L106.784 203.895L127.992 209.476Z" fill="#F5DCCE"/>
<path d="M121.295 206.127L114.598 204.639L119.807 205.383L121.295 206.127Z" fill="#E36830"/>
<path fill-rule="evenodd" clip-rule="evenodd" d="M271.239 206.499L270.123 213.568L264.542 209.104L271.239 206.499ZM243.334 219.521L265.658 221.01L272.728 232.544L258.961 241.846L237.009 238.125L221.01 224.73L243.334 219.521ZM82.2275 222.87L85.9482 225.475L81.8555 228.451L82.2275 222.87Z" fill="#F5DCCE"/>
<path d="M301.749 253.752L302.493 242.962L305.098 246.311L308.074 241.474L306.586 253.752L304.726 250.775L301.749 253.752ZM93.0176 276.82H98.2266L105.296 294.68L117.202 305.842L118.69 302.121L123.899 304.354L129.48 300.633L129.853 286.122L126.504 287.982L124.271 280.913L127.62 267.891L131.713 265.286L132.085 271.983L147.712 269.007L146.968 281.657L149.572 277.564L154.781 285.75L172.641 289.099L142.131 285.378L136.178 292.075L140.643 292.447L137.666 307.33L138.782 311.423L142.503 309.935L143.991 319.608L141.015 322.213L147.34 319.98L142.131 326.306L150.688 327.422L146.968 333.375L152.921 331.515L155.153 341.561L161.106 337.84L159.618 351.234L165.199 347.142L164.827 357.188L168.548 353.095L176.733 358.304L178.222 354.211L180.826 358.304L180.454 354.583L182.314 357.56L192.732 352.351L197.197 357.188L197.569 352.723L200.174 356.815L209.476 351.606L211.336 355.327L210.964 351.234H216.173L214.685 347.514L218.405 349.002L217.661 338.956L221.382 342.305V333.747L234.776 318.864L232.172 316.26L235.893 318.12L233.66 314.771L237.009 311.423L241.102 314.027L238.497 307.33L239.241 301.749L242.218 303.609L241.846 290.587L235.521 285.75L181.942 290.959L200.918 288.727L199.058 281.285L192.732 284.262L188.64 279.425L178.594 282.029L167.06 280.169V277.192L166.315 280.913L162.595 276.448L159.246 278.681L154.781 270.867L158.874 261.565L165.943 260.077L159.99 250.031L168.176 249.287L172.641 252.636L170.036 254.496L183.431 258.217L207.987 249.659L215.429 252.264L212.08 262.31L216.173 270.123L216.917 266.774L230.312 273.1L231.428 268.263L237.381 270.123L234.776 266.402L246.311 271.611L250.403 279.797L247.055 302.121L252.636 310.679L257.473 306.958L261.193 309.19L258.217 315.888L263.798 322.957L271.611 314.027L271.983 302.493L293.191 281.285L301.749 253.752L306.958 255.984L305.098 260.449L305.842 264.17L303.981 269.007L302.865 275.332L301.749 280.541L299.889 291.331L299.145 292.819L287.238 322.957L244.45 370.21H153.293L127.992 340.444V339.7L123.527 334.863L119.062 330.771L114.97 324.817L107.156 312.539L98.5986 295.424L96.3662 289.843L94.1338 280.541L93.0176 277.192V276.82Z" fill="#2C271C"/>
<path d="M213.568 278.309L220.638 279.797L221.382 285.006L208.731 286.122L213.568 278.309Z" fill="#E36830"/>
<path d="M148.456 289.471L211.708 293.191L228.079 290.587L238.125 299.517L223.614 316.26L220.266 315.516V304.354L214.685 302.493H204.639L200.546 307.33L185.291 302.121L171.152 304.354L170.78 308.074L169.664 303.981L161.106 305.47L170.408 322.957L165.571 328.91L140.643 299.889L140.271 294.308L148.456 289.471Z" fill="#F7AA7C"/>
<path d="M244.45 370.21L287.238 322.957L299.145 292.819L299.889 305.842L311.051 314.027L305.47 310.679L304.726 314.027L299.889 309.562L298.4 346.025L285.378 369.094L244.45 370.21Z" fill="#E36830"/>
<path d="M197.569 314.771L195.709 322.585L187.896 320.725L187.523 323.701L180.826 319.236L177.478 324.445L175.617 315.888L183.059 310.307L197.569 314.771Z" fill="#2C271C"/>
<path d="M298.4 346.025L299.889 309.562L304.726 314.027V314.771L301.377 312.167L298.4 346.025Z" fill="#F7AA7C"/>
<path d="M304.726 314.027L305.47 310.679L311.051 314.027L344.909 353.839V370.21H308.446L309.562 366.489L314.399 343.421L310.307 328.538L304.726 314.771V314.027Z" fill="#2C271C"/>
<path d="M298.4 346.025L301.377 312.167L304.726 314.771L310.307 328.538L313.283 350.49L301.005 370.21L285.378 369.094L298.4 346.025Z" fill="#F5DCCE"/>
<path d="M197.569 314.771L199.43 312.539L202.034 318.864L197.569 314.771Z" fill="#2C271C"/>
<path d="M212.452 319.98L216.917 321.469V327.794L206.499 330.398L202.406 325.562L212.452 319.98ZM301.005 370.21L313.283 350.49L310.307 328.538L314.399 343.421L309.562 366.489L307.702 370.21H301.005Z" fill="#F7AA7C"/>
<path fill-rule="evenodd" clip-rule="evenodd" d="M148.456 339.328L152.549 341.561L148.084 344.909L148.456 339.328ZM123.155 370.21L127.992 363.513L126.504 370.21H126.876L131.713 359.42L131.341 370.21H153.293L127.992 340.444L130.969 358.304L122.039 370.21H123.155Z" fill="#E36830"/>
<path d="M306.958 373.187H347.886V356.443L356.443 363.141L374.675 370.21L381 373.931V381H303.237L306.958 373.187Z" fill="#2C271C"/>
<path d="M126.876 370.21L131.713 359.42L131.341 370.21H129.853L130.597 364.629L128.364 370.21H126.876Z" fill="#F7AA7C"/>
<path d="M123.155 370.21L127.992 363.513L126.504 370.21H123.155Z" fill="#2C271C"/>
<path d="M128.364 370.21L130.597 364.629L129.853 370.21H128.364Z" fill="#F5DCCE"/>
<path d="M109.017 380.628L119.435 373.187H120.551L109.017 380.628Z" fill="#E36830"/>
<path d="M109.017 380.628L120.551 373.187L125.388 375.791L124.271 381H109.017V380.628Z" fill="#2C271C"/>
<path d="M125.388 375.791L131.341 373.187L130.225 381H124.271L125.388 375.791Z" fill="#F7AA7C"/>
<path d="M130.225 381L131.341 373.187H172.269L180.454 381H133.573L133.945 374.675L132.829 381H130.225Z" fill="#E36830"/>
<path d="M180.454 381L172.269 373.187H237.381L225.847 379.512L207.987 381H180.454Z" fill="#2C271C"/>
<path d="M207.987 381L225.847 379.512L237.381 373.187H282.029L277.192 381H207.987Z" fill="#E36830"/>
<path d="M277.192 381L282.029 373.187H282.773L278.681 381H277.192Z" fill="#F7AA7C"/>
<path d="M278.681 381L282.773 373.187H298.028L295.424 381H278.681Z" fill="#F5DCCE"/>
<path d="M295.424 381L298.028 373.187H306.214L302.493 381H295.424Z" fill="#F7AA7C"/>
<path d="M302.493 381L306.214 373.187H306.958L303.237 381H302.493Z" fill="#E36830"/>
<path d="M132.829 381L133.945 374.675L133.573 381H132.829Z" fill="#2C271C"/>
</svg>
