<svg width="381" height="381" viewBox="0 0 381 381" fill="none" xmlns="http://www.w3.org/2000/svg">
<path d="M0 6.35V0H190.5L186.267 2.11667H162.983L173.567 14.8167H4.23333L6.35 6.35H0Z" fill="#47464D"/>
<path d="M186.267 2.11667L190.5 0H207.433L196.85 2.11667L201.083 16.9333H381V21.1667H304.8L302.683 69.85L381 71.9667V78.3167H201.083L196.85 97.3667H222.25V99.4833L196.85 101.6V107.95L215.9 103.717L237.067 112.183L188.383 114.3V116.417L177.8 118.533L171.45 120.65V129.117H162.983V150.283H171.45V156.633L173.567 150.283H254L249.767 131.233L247.65 120.65L237.067 114.3V112.183L258.233 124.883L381 129.117V133.35H304.8L302.683 179.917L381 184.15V188.383L260.35 192.617L254 198.967L268.817 205.317V237.067L381 239.183V243.417H304.8L302.683 268.817L319.617 264.583L381 268.817V275.167L364.067 277.283V281.517L359.833 283.633V287.867V300.567H374.65H381V313.267H207.433L205.317 328.083H218.017L228.6 332.317H207.433V359.833H381V368.3H311.15L309.033 381H273.05L292.1 378.883H302.683L298.45 368.3H88.9L86.7833 381H50.8L69.85 378.883H80.4333L76.2 368.3H0V359.833H194.733L196.85 351.367L179.917 355.6L173.567 351.367L169.333 345.017H186.267L196.85 340.783L194.733 313.267H0V300.567H12.7H23.2833L21.1667 281.517V279.4V277.283L0 275.167V268.817L55.0333 264.583L71.9667 268.817V258.233H44.45V256.117H71.9667L69.85 243.417H0V239.183L97.3667 237.067V192.617L0 188.383V184.15H69.85L71.9667 171.45H48.6833V169.333H71.9667L69.85 133.35H0V129.117L143.933 124.883L146.05 112.183L150.283 116.417V110.067H143.933V95.25L167.217 97.3667L150.283 99.4833V107.95H156.633L167.217 103.717V99.4833V97.3667L171.45 105.833L179.917 103.717L190.5 107.95L186.267 78.3167H0V71.9667H69.85L71.9667 35.9833H44.45V33.8667H71.9667L69.85 21.1667H0V16.9333H186.267L190.5 14.8167L186.267 2.11667Z" fill="#2C271C"/>
<path d="M381 16.9333H201.083L196.85 2.11667L207.433 0H228.6L211.667 2.11667L228.6 6.35L224.367 14.8167H381V16.9333Z" fill="#F7AA7C"/>
<path d="M381 14.8167H224.367L228.6 6.35L211.667 2.11667L228.6 0H381V2.11667H374.65V8.46667H381V14.8167Z" fill="#47464D"/>
<path fill-rule="evenodd" clip-rule="evenodd" d="M0 6.35003H6.35L4.23333 14.8167H173.567L162.983 2.1167H186.267L190.5 14.8167L186.267 16.9334H0V6.35003ZM152.4 2.1167H158.75V8.4667H152.4V2.1167ZM381 8.4667H374.65V2.1167H381V8.4667Z" fill="#F7AA7C"/>
<path d="M218.017 8.46667H222.25V14.8167L218.017 8.46667Z" fill="#47464D"/>
<path d="M0 25.4V21.1666H69.85L71.9667 33.8666H44.45L61.3833 31.75V25.4H0ZM266.7 35.9833H294.217L292.1 71.9666L80.4333 69.85L82.55 21.1666H292.1L294.217 33.8666H266.7L283.633 31.75V25.4H179.917L175.683 48.6833H184.15V63.5L186.267 69.85H273.05V63.5H281.517V57.15H270.933L277.283 46.5666H283.633L277.283 42.3333L266.7 35.9833ZM381 71.9666L302.683 69.85L304.8 21.1666H381V25.4H311.15L319.617 42.3333L311.15 46.5666H319.617L321.733 50.8L311.15 55.0333H332.317L325.967 63.5H332.317V69.85L340.783 63.5V69.85H381V71.9666Z" fill="#47464D"/>
<path d="M0 69.85V25.4H61.3833V31.75L44.45 33.8667V35.9834L55.0333 42.3334V46.5667L48.6833 57.15H59.2667V63.5H50.8V69.85H0ZM184.15 63.5V48.6834H175.683L179.917 25.4H283.633V31.75L266.7 33.8667V35.9834L277.283 42.3334V46.5667L270.933 57.15H281.517V63.5H273.05V69.85H186.267L184.15 63.5ZM319.617 42.3334L311.15 25.4H381V69.85H340.783V63.5L332.317 69.85V63.5H325.967L332.317 55.0334H311.15L321.733 50.8L319.617 46.5667V42.3334Z" fill="#47464D"/>
<path d="M55.0333 42.3334L44.45 35.9834H71.9667L69.85 71.9667H0V69.8501H50.8V63.5001H59.2667V57.1501H48.6833L55.0333 46.5667H61.3833L55.0333 42.3334Z" fill="#F7AA7C"/>
<path d="M107.95 38.1H173.567L167.217 40.2166L169.333 50.8L162.983 55.0333L173.567 57.15H107.95L118.533 55.0333L110.067 44.45H120.65L107.95 38.1ZM55.0333 46.5666V42.3333L61.3833 46.5666H55.0333ZM277.283 46.5666V42.3333L283.633 46.5666H277.283ZM319.617 46.5666H311.15L319.617 42.3333V46.5666Z" fill="#2C271C"/>
<path d="M12.7 50.8H21.1667V57.15H12.7V50.8ZM23.2833 50.8H44.45V57.15H23.2833V50.8ZM228.6 50.8H232.833V57.15L228.6 50.8ZM234.95 50.8H243.417V57.15H234.95V50.8ZM245.533 50.8H266.7V57.15H245.533V50.8ZM0 80.4334V78.3167H186.267L190.5 107.95L179.917 103.717L184.15 88.9H169.333L179.917 86.7834V80.4334H0ZM222.25 97.3667H196.85L201.083 78.3167H381V80.4334H207.433V91.0167L222.25 97.3667Z" fill="#F7AA7C"/>
<path d="M0 95.25V80.4333H179.917V86.7833L169.333 88.9H184.15L179.917 103.717L171.45 105.833L167.217 97.3667L143.933 95.25V110.067H150.283V116.417L146.05 112.183L143.933 124.883H4.23333L0 107.95V103.717L10.5833 99.4833V97.3667L0 95.25ZM222.25 97.3667L207.433 91.0167V80.4333H381V124.883H258.233L237.067 112.183L215.9 103.717L222.25 99.4833V97.3667Z" fill="#47464D"/>
<path d="M0 97.3667V95.25L10.5833 97.3667H0Z" fill="#F7AA7C"/>
<path d="M0 99.4834V97.3667H10.5833V99.4834H0Z" fill="#2C271C"/>
<path d="M150.283 99.4834L167.217 97.3667V99.4834H150.283Z" fill="#47464D"/>
<path d="M0 103.717V99.4834H10.5833L0 103.717Z" fill="#F7AA7C"/>
<path d="M156.633 107.95H150.283V99.4834H167.217V103.717L156.633 107.95Z" fill="#E36830"/>
<path d="M215.9 103.717L196.85 107.95V101.6L222.25 99.4834L215.9 103.717ZM0 129.117V107.95L4.23333 124.883H143.933L0 129.117Z" fill="#F7AA7C"/>
<path d="M173.567 114.3L167.217 116.417L171.45 110.067L173.567 114.3Z" fill="#47464D"/>
<path d="M173.567 114.3L171.45 110.067H182.033L173.567 114.3Z" fill="#E36830"/>
<path d="M188.383 114.3L237.067 112.183V114.3H188.383Z" fill="#47464D"/>
<path d="M188.383 116.417V114.3H237.067L247.65 120.65L249.767 131.233V137.583H239.183L247.65 139.7V146.05H188.383L194.733 137.583H177.8L182.033 118.533L188.383 116.417Z" fill="#E36830"/>
<path d="M177.8 118.533L188.383 116.417L182.033 118.533H177.8Z" fill="#F7AA7C"/>
<path fill-rule="evenodd" clip-rule="evenodd" d="M156.633 118.533L160.867 122.767H150.283L156.633 118.533ZM249.767 137.583H239.183L247.65 139.7V146.05H188.383L194.733 137.583H177.8L182.033 118.533H177.8L171.45 120.65V129.117H162.983V150.283H171.45V156.633L173.567 150.283H254L249.767 131.233V137.583Z" fill="#F7AA7C"/>
<path d="M220.133 118.533L226.483 129.117H215.9L220.133 118.533Z" fill="#F7AA7C"/>
<path fill-rule="evenodd" clip-rule="evenodd" d="M381 129.117L258.233 124.883H381V129.117ZM59.2667 137.583L50.8 143.933L61.3833 148.167H44.45V154.517H59.2667L55.0333 158.75H61.3833V165.1H55.0333L48.6833 169.333H71.9667L69.85 133.35H0V137.583H59.2667ZM93.1333 173.567L97.3667 165.1H88.9V158.75H97.3667L88.9 156.633L86.7833 143.933H93.1333L88.9 137.583H129.117L82.55 133.35V184.15H97.3667L93.1333 175.683L105.833 173.567H93.1333ZM156.633 137.583V133.35L146.05 137.583H156.633ZM281.517 137.583L273.05 143.933L283.633 148.167H266.7V154.517H281.517L277.283 158.75H283.633V165.1H277.283L270.933 169.333H294.217V137.583L292.1 133.35L260.35 137.583H281.517ZM381 179.917H321.733L330.2 173.567H315.383L319.617 165.1H311.15V158.75H319.617L311.15 156.633L309.033 143.933H315.383L311.15 137.583H381V133.35H304.8L302.683 179.917L381 184.15V179.917Z" fill="#47464D"/>
<path d="M133.35 139.7L139.7 135.467V139.7H133.35Z" fill="#E36830"/>
<path d="M0 179.917V137.583H59.2667L50.8 143.933L61.3833 148.167H44.45V154.517H59.2667L55.0333 158.75V165.1L48.6833 169.333V171.45L55.0333 179.917H0ZM97.3667 158.75L88.9 156.633L86.7833 143.933H93.1333L88.9 137.583H129.117V139.7L133.35 141.817V150.283H124.883V160.867L105.833 173.567H93.1333L97.3667 165.1V158.75ZM146.05 139.7V137.583H156.633V150.283L152.4 139.7H146.05ZM260.35 148.167V137.583H281.517L273.05 143.933L283.633 148.167H266.7V154.517H281.517L277.283 158.75V165.1L270.933 169.333V171.45L277.283 179.917H260.35V175.683L266.7 171.45L260.35 167.217V154.517H264.583L260.35 148.167ZM319.617 158.75L311.15 156.633L309.033 143.933H315.383L311.15 137.583H381V179.917H321.733L330.2 173.567H315.383L319.617 165.1V158.75Z" fill="#47464D"/>
<path d="M133.35 141.817L129.117 139.7H133.35H139.7H146.05V141.817H139.7H133.35Z" fill="#F7AA7C"/>
<path d="M146.05 141.817V146.05L139.7 141.817H146.05Z" fill="#47464D"/>
<path d="M260.35 154.517V148.167L264.583 154.517H260.35Z" fill="#F7AA7C"/>
<path d="M55.0333 165.1V158.75H61.3833V165.1H55.0333ZM97.3667 165.1H88.9V158.75H97.3667V165.1Z" fill="#2C271C"/>
<path d="M162.983 184.15V173.567H171.45L184.15 158.75H249.767L254 192.617L243.417 198.967H192.617V196.85L182.033 194.733L171.45 192.617L173.567 186.267L162.983 184.15Z" fill="#F5DCCE"/>
<path d="M277.283 165.1V158.75H283.633V165.1H277.283ZM319.617 165.1H311.15V158.75H319.617V165.1Z" fill="#2C271C"/>
<path d="M122.767 169.333L133.35 167.217H150.283L156.633 171.45H146.05V177.8H124.883V175.683L122.767 169.333Z" fill="#F5DCCE"/>
<path fill-rule="evenodd" clip-rule="evenodd" d="M209.55 167.217V171.45L201.083 167.217H209.55ZM239.183 167.217L247.65 171.45V167.217H239.183ZM44.45 171.45V169.333H23.2833V171.45H44.45Z" fill="#2C271C"/>
<path fill-rule="evenodd" clip-rule="evenodd" d="M0 179.917H55.0333L48.6833 171.45H71.9667L69.85 184.15H0V179.917ZM44.45 171.45V175.683L23.2833 171.45H44.45ZM260.35 179.917H277.283L270.933 171.45H294.217L292.1 184.15L260.35 179.917ZM124.883 177.8H114.3L124.883 175.683V177.8Z" fill="#47464D"/>
<path d="M105.833 194.733V184.15H160.867L162.983 192.617L150.283 203.2H143.933L146.05 194.733L143.933 188.383H112.183V194.733H105.833Z" fill="#F7AA7C"/>
<path d="M0 192.617V188.383L97.3667 192.617H0Z" fill="#F7AA7C"/>
<path d="M105.833 194.733H112.183V188.383H143.933L146.05 194.733L143.933 203.2H150.283L143.933 205.317V239.183H133.35L139.7 245.533H112.183L114.3 239.183H105.833V194.733Z" fill="#E36830"/>
<path d="M260.35 192.617L381 188.383V192.617H260.35Z" fill="#F7AA7C"/>
<path d="M0 205.317V192.617H97.3667V237.067H4.23333L6.35 228.6H0V215.9L10.5833 209.55V207.433L0 205.317ZM268.817 237.067V205.317L254 198.967L260.35 192.617H381V224.367H374.65V230.717H381V237.067H268.817Z" fill="#47464D"/>
<path d="M112.183 203.2H122.767L118.533 213.783L124.883 218.017H112.183V203.2Z" fill="#F7AA7C"/>
<path d="M0 207.433V205.317L10.5833 207.433H0ZM156.633 205.317L167.217 211.667V220.133L150.283 226.483V207.433L156.633 205.317Z" fill="#F5DCCE"/>
<path d="M0 209.55V207.433H10.5833V209.55H0Z" fill="#2C271C"/>
<path d="M0 215.9V209.55H10.5833L0 215.9ZM192.617 211.667H205.317V226.483L211.667 215.9L215.9 232.833H198.967L192.617 211.667ZM254 211.667H260.35V226.483L254 211.667Z" fill="#F5DCCE"/>
<path d="M177.8 232.833V213.783H184.15V232.833H177.8ZM239.183 232.833V213.783H247.65V232.833H239.183Z" fill="#E36830"/>
<path d="M107.95 220.133H112.183V226.483L107.95 220.133ZM114.3 220.133H124.883V226.483H114.3V220.133Z" fill="#F7AA7C"/>
<path d="M381 230.717H374.65V224.367H381V230.717ZM0 239.183V228.6H6.35L4.23333 237.067H97.3667L0 239.183Z" fill="#F7AA7C"/>
<path d="M184.15 232.833V237.067L177.8 232.833H184.15ZM247.65 232.833V237.067L239.183 232.833H247.65Z" fill="#47464D"/>
<path d="M150.283 241.3V234.95H162.983V241.3H150.283ZM254 234.95H260.35V241.3H254V234.95Z" fill="#F7AA7C"/>
<path d="M381 239.183L268.817 237.067H381V239.183Z" fill="#F7AA7C"/>
<path d="M112.183 245.533H139.7L133.35 239.183H143.933L150.283 243.417L112.183 245.533ZM150.283 243.417V241.3H162.983L150.283 243.417Z" fill="#47464D"/>
<path d="M0 247.65V243.417H69.85L71.9667 256.117H44.45L61.3833 254V247.65H0ZM97.3667 264.583L80.4333 268.817V247.65L105.833 243.417V247.65H88.9L97.3667 264.583ZM260.35 247.65L292.1 243.417L294.217 256.117H266.7L283.633 254V247.65H260.35ZM319.617 264.583L302.683 268.817L304.8 243.417H381V247.65H311.15L319.617 264.583Z" fill="#F7AA7C"/>
<path d="M0 268.817V247.65H61.3833V254L44.45 256.117V258.233L55.0333 264.583L0 268.817ZM97.3667 264.583L88.9 247.65H105.833L112.183 254L156.633 256.117V268.817L97.3667 264.583ZM277.283 264.583L254 268.817V249.767L260.35 247.65H283.633V254L266.7 256.117V258.233L277.283 264.583ZM319.617 264.583L311.15 247.65H381V268.817L319.617 264.583Z" fill="#47464D"/>
<path d="M55.0333 264.583L44.45 258.233H71.9667V268.817L55.0333 264.583ZM277.283 264.583L266.7 258.233H294.217V268.817L277.283 264.583Z" fill="#F7AA7C"/>
<path d="M226.483 260.35V268.817H184.15V260.35H226.483ZM0 277.283V275.167L21.1667 277.283H0ZM364.067 277.283L381 275.167V277.283H364.067Z" fill="#47464D"/>
<path d="M0 300.567V277.283H21.1667V279.4L10.5833 281.517V283.633V285.75V289.983L6.35 294.217L12.7 300.567H0Z" fill="#E36830"/>
<path d="M31.75 283.633L38.1 277.283L44.45 283.633H31.75Z" fill="#47464D"/>
<path d="M44.45 283.633L38.1 277.283H124.883L120.65 283.633L124.883 287.867V289.983L118.533 294.217L120.65 300.567H107.95V296.333L110.067 285.75L107.95 283.633V281.517H65.6166V283.633L61.3833 285.75H65.6166L103.717 287.867V296.333H59.2666L55.0333 287.867L50.8 296.333H55.0333V300.567H44.45L48.6833 294.217L38.1 289.983V287.867L44.45 283.633Z" fill="#E36830"/>
<path d="M120.65 283.633L124.883 277.283L131.233 281.517V300.567L120.65 302.683V300.567L118.533 294.217H129.117L124.883 289.983V287.867L129.117 283.633H120.65Z" fill="#47464D"/>
<path d="M141.817 281.517V277.283H156.633L167.217 281.517V287.867V289.983L162.983 292.1H167.217H205.317V289.983V287.867V285.75H218.017V296.333L167.217 298.45V300.567H152.4L156.633 294.217L146.05 289.983V287.867L148.167 283.633L141.817 281.517ZM169.333 281.517L171.45 277.283H226.483L232.833 281.517V283.633V285.75V289.983L228.6 294.217L234.95 300.567H222.25V296.333V285.75H218.017V283.633L222.25 281.517H179.917V283.633V285.75L169.333 281.517Z" fill="#E36830"/>
<path d="M254 283.633L260.35 277.283L266.7 283.633H254Z" fill="#47464D"/>
<path d="M266.7 283.633L260.35 277.283H347.133L342.9 283.633L347.133 287.867V289.983L340.783 294.217L342.9 300.567H330.2V296.333L332.317 285.75L330.2 283.633V281.517H287.867V283.633L283.633 285.75H287.867L325.967 287.867V296.333H281.517L277.283 287.867L273.05 296.333H277.283V300.567H266.7L270.933 294.217L260.35 289.983V287.867L266.7 283.633Z" fill="#E36830"/>
<path d="M342.9 283.633L347.133 277.283L353.483 281.517V300.567L342.9 302.683V300.567L340.783 294.217H351.367L347.133 289.983V287.867L351.367 283.633H342.9Z" fill="#47464D"/>
<path d="M364.067 281.517V277.283H381V300.567H374.65L378.883 294.217L368.3 289.983V287.867L370.417 283.633L364.067 281.517Z" fill="#E36830"/>
<path d="M10.5833 281.517L21.1666 279.4V281.517H10.5833Z" fill="#E36830"/>
<path d="M232.833 281.517H245.533V300.567L234.95 302.683V300.567L228.6 294.217H239.183L232.833 289.983V285.75L243.417 287.867L232.833 283.633V281.517ZM10.5834 283.633V281.517H21.1667L23.2834 300.567H12.7L6.35004 294.217H16.9334L10.5834 289.983V285.75L21.1667 287.867L10.5834 283.633Z" fill="#47464D"/>
<path d="M65.6167 283.633V281.517H107.95V283.633H65.6167Z" fill="#2C271C"/>
<path d="M137.583 283.633L141.817 281.517L148.167 283.633H137.583Z" fill="#47464D"/>
<path d="M167.217 287.867V281.517H169.333L179.917 285.75H205.317V287.867H167.217Z" fill="#F7AA7C"/>
<path d="M179.917 283.633V281.517H222.25L218.017 283.633H179.917ZM287.867 283.633V281.517H330.2V283.633H287.867Z" fill="#2C271C"/>
<path d="M359.833 283.633L364.067 281.517L370.417 283.633H359.833Z" fill="#47464D"/>
<path d="M10.5833 285.75V283.633L21.1666 287.867L10.5833 285.75ZM31.75 287.867V283.633H44.45L38.1 287.867H31.75Z" fill="#E36830"/>
<path d="M65.6167 285.75H61.3834L65.6167 283.633H107.95L110.067 285.75H107.95H103.717H65.6167Z" fill="#F7AA7C"/>
<path d="M124.883 287.867L120.65 283.633H129.117L124.883 287.867ZM137.583 287.867V283.633H148.167L146.05 287.867H137.583Z" fill="#E36830"/>
<path d="M179.917 285.75V283.633H218.017V285.75H205.317H179.917Z" fill="#47464D"/>
<path d="M232.833 285.75V283.633L243.417 287.867L232.833 285.75ZM254 287.867V283.633H266.7L260.35 287.867H254Z" fill="#E36830"/>
<path d="M287.867 285.75H283.633L287.867 283.633H330.2L332.317 285.75H330.2H325.967H287.867Z" fill="#F7AA7C"/>
<path fill-rule="evenodd" clip-rule="evenodd" d="M347.133 287.867L342.9 283.633H351.367L347.133 287.867ZM368.3 287.867L370.417 283.633H359.833V287.867H368.3ZM103.717 285.75H65.6167L103.717 287.867V285.75Z" fill="#E36830"/>
<path d="M103.717 287.867V285.75H107.95V296.333H103.717V287.867Z" fill="#47464D"/>
<path d="M107.95 296.333V285.75H110.067L107.95 296.333Z" fill="#2C271C"/>
<path d="M218.017 296.333V285.75H222.25V296.333H218.017Z" fill="#47464D"/>
<path d="M325.967 287.867L287.867 285.75H325.967V287.867Z" fill="#E36830"/>
<path d="M325.967 287.867V285.75H330.2V296.333H325.967V287.867Z" fill="#47464D"/>
<path d="M330.2 296.333V285.75H332.317L330.2 296.333Z" fill="#2C271C"/>
<path d="M44.45 302.683L31.75 300.567V287.867H38.1V289.983L33.8667 294.217H48.6833L44.45 300.567V302.683Z" fill="#47464D"/>
<path d="M55.0333 296.333H50.8L55.0333 287.867V296.333Z" fill="#2C271C"/>
<path d="M55.0333 296.333V287.867L59.2667 296.333H55.0333ZM152.4 302.683L137.583 300.567V287.867H146.05V289.983L141.817 294.217H156.633L152.4 300.567V302.683Z" fill="#47464D"/>
<path d="M167.217 289.983V287.867H205.317V289.983H167.217Z" fill="#2C271C"/>
<path d="M266.7 302.683L254 300.567V287.867H260.35V289.983L256.117 294.217H270.933L266.7 300.567V302.683Z" fill="#47464D"/>
<path d="M277.283 296.333H273.05L277.283 287.867V296.333Z" fill="#2C271C"/>
<path d="M277.283 296.333V287.867L281.517 296.333H277.283ZM374.65 300.567H359.833V287.867H368.3V289.983L364.067 294.217H378.883L374.65 300.567Z" fill="#47464D"/>
<path fill-rule="evenodd" clip-rule="evenodd" d="M6.35004 294.217L10.5834 289.983L16.9334 294.217H6.35004ZM38.1 289.983L33.8667 294.217H48.6834L38.1 289.983ZM129.117 294.217L124.883 289.983L118.533 294.217H129.117ZM146.05 289.983L141.817 294.217H156.633L146.05 289.983Z" fill="#E36830"/>
<path d="M167.217 292.1H162.983L167.217 289.983H205.317V292.1H167.217Z" fill="#F7AA7C"/>
<path fill-rule="evenodd" clip-rule="evenodd" d="M228.6 294.217L232.833 289.983L239.183 294.217H228.6ZM260.35 289.983L256.117 294.217H270.933L260.35 289.983ZM351.367 294.217L347.133 289.983L340.783 294.217H351.367ZM368.3 289.983L364.067 294.217H378.883L368.3 289.983Z" fill="#E36830"/>
<path d="M55.0333 300.567V296.333H59.2667H103.717H107.95V300.567H55.0333ZM167.217 298.45L218.017 296.333H222.25V300.567H167.217V298.45ZM277.283 300.567V296.333H281.517H325.967H330.2V300.567H277.283Z" fill="#2C271C"/>
<path d="M44.45 302.683V300.567H55.0333V302.683H44.45Z" fill="#E36830"/>
<path d="M55.0333 302.683V300.567H107.95V302.683H55.0333Z" fill="#F7AA7C"/>
<path d="M107.95 302.683V300.567H120.65V302.683H107.95ZM152.4 302.683V300.567H167.217V302.683H152.4Z" fill="#E36830"/>
<path d="M167.217 302.683V300.567H222.25V302.683H167.217Z" fill="#F7AA7C"/>
<path d="M222.25 302.683V300.567H234.95V302.683H222.25ZM266.7 302.683V300.567H277.283V302.683H266.7Z" fill="#E36830"/>
<path d="M277.283 302.683V300.567H330.2V302.683H277.283Z" fill="#F7AA7C"/>
<path d="M330.2 302.683V300.567H342.9V302.683H330.2Z" fill="#E36830"/>
<path d="M0 328.083V313.267H194.733L196.85 340.783L186.267 345.017L179.917 340.783H186.267V334.433L190.5 323.85H179.917L186.267 317.5H4.23333V328.083H0ZM218.017 328.083H205.317L207.433 313.267H381V317.5H215.9L224.367 321.733L218.017 328.083Z" fill="#47464D"/>
<path d="M4.23334 328.083V317.5H186.267L179.917 323.85H190.5L186.267 334.433H179.917V340.783L186.267 345.017H169.333L173.567 351.367L6.35 355.6L12.7 351.367L4.23334 349.25L6.35 332.317L4.23334 328.083ZM218.017 328.083L224.367 321.733L215.9 317.5H381V355.6H228.6L234.95 349.25H222.25L228.6 345.017L222.25 340.783V334.433L228.6 332.317L218.017 328.083Z" fill="#3C2F2D"/>
<path d="M80.4333 321.733H110.067L114.3 336.55H93.1333V330.2H80.4333V321.733ZM302.683 321.733H332.317L336.55 336.55H315.383V330.2H302.683V321.733Z" fill="#47464D"/>
<path d="M0 332.317V328.083H4.23333L6.35 332.317H0Z" fill="#2C271C"/>
<path d="M0 359.833V332.317H6.35L4.23333 349.25L12.7 351.367L6.35 355.6L173.567 351.367L179.917 355.6L196.85 351.367L194.733 359.833H0ZM381 359.833H207.433V332.317H228.6L222.25 334.433H215.9V342.9L222.25 340.783L228.6 345.017L222.25 349.25H234.95L228.6 355.6H381V359.833Z" fill="#47464D"/>
<path d="M179.917 340.783V334.433H186.267V340.783H179.917ZM222.25 340.783L215.9 342.9V334.433H222.25V340.783ZM158.75 345.017H167.217V351.367H158.75V345.017Z" fill="#47464D"/>
<path d="M0 370.417V368.3H76.2L80.4333 378.883H69.85L59.2667 376.767L65.6167 370.417H0ZM86.7833 381L88.9 368.3H298.45L302.683 378.883H292.1L281.517 376.767L287.867 370.417H97.3667L99.4833 376.767L93.1333 378.883L103.717 381H86.7833ZM309.033 381L311.15 368.3H381V370.417H319.617L321.733 376.767L315.383 378.883L325.967 381H309.033Z" fill="#47464D"/>
<path d="M0 381V370.417H65.6167L59.2667 376.767L69.85 378.883L50.8 381H0ZM103.717 381L93.1333 378.883L99.4833 376.767L97.3667 370.417H287.867L281.517 376.767L292.1 378.883L273.05 381H169.333V376.767L148.167 381H103.717ZM325.967 381L315.383 378.883L321.733 376.767L319.617 370.417H381V376.767L370.417 381H325.967Z" fill="#2C271C"/>
<path d="M148.167 381L169.333 376.767V381H148.167ZM370.417 381L381 376.767V381H370.417Z" fill="#47464D"/>
</svg>
