<svg width="200" height="200" viewBox="0 0 200 200" fill="none" xmlns="http://www.w3.org/2000/svg">
<path d="M0 0H200V200H0V0Z" fill="#E36830"/>
<path d="M183.631 152.3C182.167 143.175 176.217 135.513 158.593 128.365C152.471 125.551 145.646 123.536 143.612 118.897C142.89 116.198 142.795 114.677 143.251 113.042C144.563 107.738 150.894 106.084 155.913 107.605C159.144 108.688 162.205 111.179 164.049 115.152C172.681 109.563 172.662 109.601 178.688 105.761C176.483 102.339 175.304 100.76 173.859 99.2968C168.669 93.4983 161.597 90.5135 150.285 90.7417C148.327 90.9888 146.35 91.2548 144.392 91.5021C138.745 92.928 133.365 95.8938 130.209 99.8672C120.741 110.609 123.441 129.411 134.962 137.149C146.312 145.666 162.985 147.605 165.114 155.571C167.186 165.324 157.947 168.479 148.764 167.358C141.996 165.951 138.232 162.51 134.164 156.255C126.673 160.59 126.673 160.59 118.974 165.019C120.799 169.012 122.719 170.818 125.78 174.278C140.266 188.974 176.521 188.251 183.023 166.008C183.289 165.247 185.038 160.152 183.631 152.3ZM108.726 91.9202H90.019C90.019 108.08 89.9432 124.126 89.9432 140.285C89.9432 150.57 90.4755 160 88.8025 162.89C86.0649 168.574 78.9736 167.871 75.7417 166.768C72.4527 165.152 70.7797 162.852 68.8405 159.601C68.3082 158.669 67.909 157.947 67.7757 157.89C62.6999 160.989 57.6426 164.106 52.5666 167.205C55.0953 172.396 58.8213 176.901 63.5932 179.829C70.7225 184.106 80.3042 185.418 90.3234 183.118C96.8443 181.217 102.472 177.282 105.418 171.293C109.677 163.441 108.764 153.935 108.726 143.422C108.821 126.274 108.726 109.126 108.726 91.9202Z" fill="#2C271C"/>
</svg>
