<svg width="200" height="290" viewBox="0 0 200 205" fill="none" xmlns="http://www.w3.org/2000/svg">
<path d="M66.1241 153.83C66.1241 153.83 56.374 158.25 73.0628 159.746C93.2809 161.544 103.614 161.286 125.895 157.999C125.895 157.999 131.752 160.862 139.933 163.342C89.9862 180.028 26.8935 162.375 66.1241 153.83ZM60.0208 132.055C60.0208 132.055 49.0852 138.365 65.7864 139.712C87.384 141.449 104.44 141.591 133.954 137.161C133.954 137.161 138.036 140.387 144.455 142.151C84.0659 155.916 16.8037 143.236 60.0208 132.055" fill="#47464D"/>
<path d="M111.473 95.1173C123.78 106.162 108.24 116.102 108.24 116.102C108.24 116.102 139.488 103.527 125.137 87.7802C111.734 73.0946 101.455 65.7987 157.101 40.6416C157.101 40.6411 69.755 57.6462 111.473 95.1173" fill="#E36830"/>
<path d="M177.532 169.936C177.532 169.936 184.747 174.571 169.586 178.156C140.756 184.964 49.592 187.02 24.2672 178.428C15.1635 175.34 32.2354 171.056 37.6056 170.157C43.2061 169.21 46.4067 169.386 46.4067 169.386C36.2825 163.827 -19.0318 180.302 18.3097 185.021C120.146 197.895 203.947 179.224 177.532 169.936V169.936ZM70.8128 109.494C70.8128 109.494 24.4412 118.079 54.3914 121.197C67.0373 122.517 92.2467 122.218 115.728 120.684C134.918 119.423 154.189 116.74 154.189 116.74C154.189 116.74 147.422 118.999 142.526 121.604C95.4369 131.259 4.4686 126.767 30.6572 116.892C52.8049 108.547 70.8128 109.494 70.8128 109.494V109.494ZM153.998 145.739C201.866 126.349 179.735 107.715 164.286 110.226C160.499 110.84 158.811 111.372 158.811 111.372C158.811 111.372 160.217 109.656 162.901 108.913C193.462 100.537 216.966 133.615 153.035 146.717C153.035 146.717 153.777 146.201 153.998 145.739Z" fill="#47464D"/>
<path d="M125.137 0.0187988C125.137 0.0187988 151.648 20.6906 99.9935 52.4794C58.572 77.9785 90.5481 92.5177 99.9763 109.13C75.7985 92.1243 58.0548 77.1551 69.9587 63.2227C87.4301 42.7712 135.834 32.8556 125.137 0.0187988" fill="#E36830"/>
<path d="M75.5165 198.282C121.464 200.575 192.023 197.01 193.693 180.062C193.693 180.062 190.482 186.487 155.72 191.59C116.503 197.342 68.1328 196.671 39.4445 192.984C39.4458 192.983 45.318 196.772 75.5165 198.282" fill="#47464D"/>
</svg>
