<svg width="200" height="135" viewBox="0 0 200 105" fill="none" xmlns="http://www.w3.org/2000/svg">
<path d="M10.1581 69.2493C9.648 68.6643 9.02635 68.1998 8.34094 67.8729C7.65553 67.546 6.9223 67.3912 6.17314 67.3912C5.42397 67.3739 4.69074 67.546 4.00533 67.8557C3.31993 68.1826 2.69828 68.6471 2.18821 69.2321C1.6622 69.7998 1.24776 70.4708 0.976787 71.2106C0.705812 71.9676 0.562355 72.759 0.562355 73.5505C0.546415 74.3591 0.689872 75.1505 0.976787 75.8903C1.2637 76.6301 1.67814 77.3011 2.20415 77.8689C2.71437 78.4541 3.33266 78.9172 4.01907 79.2284C4.70548 79.5396 5.44474 79.6918 6.18908 79.6754C6.93182 79.6798 7.66773 79.522 8.35254 79.2116C9.03735 78.9011 9.65692 78.4444 10.174 77.8689C10.716 77.3183 11.1304 76.6473 11.4173 75.9075C11.7042 75.1677 11.8477 74.3763 11.8477 73.5677C11.8477 72.759 11.7042 71.9676 11.4173 71.2278C11.1145 70.4708 10.7 69.7998 10.1581 69.2493V69.2493ZM76.8658 55.279C76.7861 59.1329 76.9614 63.0039 77.3759 66.8406H77.1846C76.7383 65.8943 75.75 64.1395 74.2358 61.5759L37.8932 0H26.8629V78.6087H35.3428V21.7813C35.4385 18.1855 35.295 14.5897 34.9443 10.9939H35.2631C35.8688 12.7143 36.6499 14.366 37.5744 15.9144L74.9052 78.6087H85.3457V0H76.8658V55.279ZM142.84 69.9719H112.874V42.7367H139.094V34.444H112.874V8.32712H141.007V0H104.186V78.6087H142.792L142.84 69.9719ZM149.328 0V8.32712H170.209V78.6087H178.689V8.32712H199.809V0H149.328ZM66.2181 98.1533C64.1 99.0655 62.187 100.456 60.6073 102.231C58.9814 104.106 57.7063 106.308 56.8774 108.734C56.0485 111.16 55.6819 113.724 55.7776 116.287C55.6182 121.036 57.1484 125.681 60.0813 129.225C61.5477 130.894 63.333 132.184 65.3095 133.045C67.286 133.905 69.406 134.283 71.526 134.18C74.7139 134.301 77.8859 133.578 80.771 132.064L80.8029 128.055C78.1569 129.724 75.1443 130.55 72.0839 130.464C70.4421 130.533 68.8003 130.223 67.286 129.552C65.7718 128.881 64.4009 127.849 63.2852 126.541C60.9519 123.616 59.753 119.832 59.9378 115.977C59.7465 111.9 61.0377 107.908 63.5243 104.846C64.7038 103.435 66.1543 102.334 67.7642 101.577C69.3803 100.835 71.1253 100.477 72.8809 100.528C75.6703 100.476 78.412 101.216 80.8507 102.678V98.3598C78.3215 97.2589 75.6064 96.7432 72.8809 96.8458C70.6015 96.8113 68.3221 97.2415 66.2181 98.1533V98.1533ZM105.956 110.472C104.89 109.263 103.595 108.316 102.159 107.699C100.722 107.081 99.1793 106.806 97.6353 106.893C95.9935 106.807 94.3676 107.1 92.8374 107.736C91.3072 108.373 89.9204 109.336 88.7409 110.558C87.5932 111.934 86.7166 113.534 86.1427 115.289C85.5689 117.044 85.3298 118.885 85.4414 120.743C85.282 124.27 86.4137 127.728 88.5815 130.361C89.6654 131.617 90.9725 132.615 92.4389 133.285C93.9054 133.939 95.4834 134.266 97.0614 134.197C98.6713 134.249 100.281 133.922 101.78 133.251C103.278 132.58 104.617 131.565 105.717 130.275C107.952 127.555 109.108 123.996 108.937 120.365C109.128 116.752 108.06 113.225 105.956 110.472ZM103.039 128.141C102.338 129.015 101.46 129.704 100.473 130.154C99.4868 130.604 98.4178 130.805 97.3483 130.739C96.2485 130.791 95.1646 130.567 94.1604 130.12C93.1562 129.655 92.2636 128.967 91.5303 128.072C90.0027 126.031 89.2354 123.449 89.3785 120.829C89.235 118.128 90.0001 115.461 91.5303 113.328C92.2476 112.433 93.1403 111.728 94.1445 111.246C95.1487 110.782 96.2485 110.558 97.3324 110.61C98.4163 110.541 99.4843 110.764 100.473 111.229C101.461 111.693 102.337 112.399 103.039 113.294C104.487 115.457 105.192 118.097 105.031 120.76C105.191 123.376 104.489 126.008 103.039 128.141V128.141ZM121.513 108.786C120.317 109.939 119.441 111.435 119.01 113.104V107.702H115.025V133.578H119.01V120.382C118.883 117.99 119.457 115.599 120.636 113.569C121.067 112.829 121.64 112.21 122.342 111.78C123.043 111.349 123.824 111.091 124.621 111.074C125.641 110.988 126.661 111.281 127.522 111.9V107.633C126.789 107.375 126.024 107.255 125.259 107.289C123.888 107.272 122.565 107.805 121.513 108.786V108.786ZM150.842 119.47C151.033 116.184 150.125 112.949 148.292 110.334C147.383 109.233 146.267 108.356 145.008 107.788C143.749 107.22 142.394 106.962 141.039 107.048C139.541 106.997 138.042 107.323 136.656 107.977C135.285 108.631 134.058 109.612 133.069 110.85C130.905 113.576 129.782 117.088 129.929 120.674C129.722 124.253 130.758 127.797 132.83 130.584C133.834 131.771 135.078 132.701 136.448 133.32C137.819 133.939 139.318 134.197 140.8 134.129C143.749 134.283 146.666 133.423 149.121 131.668V127.78C147.023 129.619 144.411 130.638 141.709 130.67C140.673 130.739 139.62 130.567 138.648 130.154C137.676 129.741 136.783 129.139 136.05 128.331C134.626 126.47 133.903 124.099 134.026 121.689H150.874L150.842 119.47ZM133.994 118.266C134.201 116.218 135.03 114.291 136.337 112.795C136.923 112.115 137.634 111.576 138.424 111.211C139.215 110.847 140.068 110.665 140.928 110.678C141.756 110.627 142.569 110.782 143.334 111.126C144.1 111.47 144.769 111.986 145.311 112.657C146.427 114.257 146.985 116.218 146.905 118.214L133.994 118.266Z" fill="#47464D"/>
</svg>
