<svg width="200" height="200" viewBox="0 0 200 200" fill="none" xmlns="http://www.w3.org/2000/svg">
<path d="M93.3503 0.0537708C92.9206 0.0928295 91.5536 0.229535 90.3232 0.327182C61.9471 2.88553 35.3676 18.1965 18.5333 41.7294C9.15926 54.8141 3.16375 69.6563 0.89835 85.3775C0.0976467 90.8652 0 92.4862 0 99.9268C0 107.368 0.0976467 108.988 0.89835 114.476C6.32751 151.992 33.0241 183.512 69.2315 195.191C75.7153 197.281 82.5505 198.706 90.3232 199.566C93.3503 199.898 106.435 199.898 109.462 199.566C122.879 198.081 134.245 194.761 145.455 189.039C147.173 188.16 147.505 187.926 147.271 187.731C147.115 187.614 139.791 177.79 131.003 165.917L115.028 144.337L95.0103 114.711C83.9957 98.4231 74.9341 85.1041 74.856 85.1041C74.7779 85.0845 74.6997 98.2473 74.6607 114.32C74.6021 142.462 74.5826 143.594 74.231 144.258C73.7233 145.215 73.3327 145.606 72.5125 146.036C71.8875 146.348 71.3407 146.407 68.3918 146.407H65.0132L64.1148 145.84C63.529 145.469 63.0993 144.981 62.8064 144.415L62.3963 143.536L62.4353 104.38L62.4939 65.2037L63.0993 64.442C63.4118 64.0319 64.0758 63.5046 64.5445 63.2507C65.3452 62.8601 65.6577 62.8211 69.0362 62.8211C73.0202 62.8211 73.6842 62.9773 74.7193 64.11C75.0122 64.4225 85.851 80.749 98.8185 100.415C111.786 120.081 129.519 146.934 138.229 160.116L154.047 184.079L154.848 183.551C161.937 178.943 169.437 172.381 175.374 165.545C188.009 151.035 196.153 133.342 198.887 114.476C199.688 108.988 199.785 107.368 199.785 99.9268C199.785 92.4862 199.688 90.8652 198.887 85.3775C193.458 47.8616 166.761 16.3412 130.554 4.6627C124.168 2.59259 117.371 1.16694 109.755 0.307652C107.88 0.112359 94.9712 -0.102464 93.3503 0.0537708ZM134.245 60.4776C135.182 60.9463 135.944 61.8446 136.217 62.782C136.373 63.2898 136.412 74.1481 136.373 98.6184L136.315 133.732L130.124 124.241L123.914 114.75V89.2248C123.914 72.7225 123.992 63.446 124.109 62.9968C124.421 61.9032 125.105 61.0439 126.042 60.5361C126.843 60.126 127.136 60.087 130.202 60.087C133.092 60.087 133.6 60.126 134.245 60.4776Z" fill="#2C271C"/>
<path d="M153.178 184.611C152.495 185.04 152.28 185.333 152.885 185.001C153.315 184.748 154.018 184.22 153.901 184.201C153.842 184.201 153.51 184.396 153.178 184.611ZM151.831 185.49C151.479 185.763 151.479 185.783 151.909 185.568C152.143 185.451 152.339 185.314 152.339 185.275C152.339 185.119 152.241 185.158 151.831 185.49ZM150.854 186.076C150.503 186.349 150.503 186.368 150.933 186.154C151.167 186.036 151.362 185.9 151.362 185.861C151.362 185.704 151.265 185.744 150.854 186.076ZM149.878 186.661C149.526 186.935 149.526 186.954 149.956 186.74C150.19 186.622 150.386 186.486 150.386 186.447C150.386 186.29 150.288 186.329 149.878 186.661ZM148.394 187.443C147.652 187.833 147.691 187.989 148.433 187.618C148.765 187.443 149.019 187.267 149.019 187.228C149.019 187.091 148.999 187.111 148.394 187.443Z" fill="#47464D"/>
</svg>
