<svg width="182" height="200" viewBox="0 0 182 200" fill="none" xmlns="http://www.w3.org/2000/svg">
<path d="M82.627 2.53902C87.5646 -0.28722 93.9958 -0.299986 98.9291 2.53902C123.748 16.5631 148.575 30.5653 173.39 44.5979C178.058 47.227 181.179 52.4213 181.132 57.7993V142.174C181.167 147.775 177.736 153.093 172.812 155.662C148.075 169.609 123.35 183.573 98.6163 197.52C93.5766 200.401 87.0163 200.18 82.1341 197.062C74.7178 192.762 67.2887 188.484 59.8716 184.189C58.356 183.286 56.6475 182.567 55.5773 181.097C56.5234 179.822 58.2149 179.663 59.5894 179.106C62.6851 178.122 65.5284 176.542 68.3724 175.009C69.0915 174.516 69.9695 174.705 70.6589 175.145C77.0007 178.782 83.2866 182.523 89.6497 186.125C91.0071 186.909 92.3816 185.868 93.5419 185.221C117.817 171.501 142.122 157.833 166.393 144.109C167.292 143.677 167.789 142.722 167.716 141.737C167.733 113.904 167.721 86.0653 167.725 58.232C167.828 57.1142 167.181 56.0866 166.17 55.6291C141.518 41.7461 116.879 27.8419 92.2319 13.9553C91.8049 13.6618 91.299 13.5042 90.7808 13.5035C90.2626 13.5027 89.7563 13.6588 89.3284 13.9511C64.6809 27.8419 40.0461 41.7589 15.3986 55.6412C14.3915 56.0993 13.7156 57.11 13.8355 58.232C13.8397 86.0653 13.8355 113.904 13.8355 141.741C13.7927 142.222 13.8983 142.704 14.138 143.123C14.3776 143.542 14.7398 143.877 15.1759 144.084C21.7532 147.814 28.339 151.517 34.9206 155.234C38.6284 157.23 43.1809 158.416 47.266 156.887C50.8709 155.594 53.3979 151.915 53.3291 148.087C53.3631 120.416 53.3121 92.7412 53.3546 65.0745C53.2646 63.8461 54.4298 62.8312 55.6241 62.9468C58.7844 62.9256 61.949 62.9043 65.1092 62.9554C66.4284 62.9256 67.3362 64.2483 67.1731 65.4859C67.1603 93.332 67.2071 121.179 67.1518 149.025C67.1603 156.446 64.1114 164.521 57.2468 168.153C48.7901 172.533 38.3376 171.604 29.983 167.404C22.7504 163.794 15.8482 159.533 8.74398 155.666C3.80709 153.111 0.393617 147.771 0.428369 142.175V57.7993C0.376596 52.31 3.6227 47.0213 8.43546 44.4305C33.1688 30.4724 57.8979 16.5036 82.627 2.53902Z" fill="#E36830"/>
<path d="M104.204 60.9857C114.991 60.2914 126.54 60.5744 136.247 65.8885C143.762 69.9609 147.929 78.5077 148.062 86.8573C147.852 87.9836 146.674 88.6048 145.599 88.5275C142.47 88.5233 139.339 88.5701 136.209 88.5063C134.882 88.5573 134.11 87.3332 133.943 86.1595C133.044 82.1644 130.865 78.2077 127.105 76.2807C121.333 73.3907 114.64 73.5361 108.345 73.5963C103.75 73.8403 98.8092 74.2382 94.9163 76.9403C91.9277 78.9871 91.0199 83.119 92.0865 86.4467C93.0922 88.836 95.8504 89.607 98.1071 90.3176C111.107 93.7176 124.883 93.3793 137.635 97.8538C142.914 99.6779 148.079 103.224 149.886 108.752C152.25 116.16 151.213 125.015 145.943 130.963C141.668 135.857 135.443 138.521 129.233 139.968C120.973 141.81 112.401 141.857 104.012 141.039C96.1241 140.14 87.9156 138.067 81.8262 132.693C76.6191 128.171 74.0759 121.127 74.3284 114.328C74.3887 113.179 75.5319 112.379 76.6319 112.473C79.7837 112.447 82.9355 112.439 86.0872 112.477C87.3461 112.387 88.2794 113.475 88.344 114.662C88.9255 118.468 90.356 122.463 93.6752 124.72C100.081 128.852 108.118 128.569 115.453 128.685C121.53 128.415 128.351 128.334 133.31 124.318C135.926 122.027 136.701 118.194 135.994 114.897C135.228 112.113 132.316 110.816 129.816 109.968C116.982 105.908 103.052 107.381 90.3433 102.791C85.1837 100.967 80.1943 97.5197 78.2121 92.219C75.4461 84.7169 76.7135 75.4375 82.5369 69.6907C88.2149 63.9744 96.4113 61.7729 104.204 60.985V60.9857Z" fill="#E36830"/>
</svg>
