<svg width="769" height="820" viewBox="0 0 769 820" fill="none" xmlns="http://www.w3.org/2000/svg">
<g filter="url(#filter0_d_0_4)">
<path d="M336.38 15.8501L383.181 10L340.768 59.7258L349.543 34.8629L308.592 61.1883L307.13 36.3254L292.505 58.2633L274.954 68.5009L276.417 43.638L307.13 20.2377L330.53 17.3126L329.068 27.5503L336.38 15.8501Z" fill="#E36830"/>
<path fill-rule="evenodd" clip-rule="evenodd" d="M276.417 43.638L274.954 68.5009L292.505 58.2633L307.13 36.3254L308.592 61.1883L349.543 34.8629L340.768 59.7258L383.181 10H389.031L384.644 14.3876L428.519 12.925L462.157 23.1627L479.707 42.1755L440.219 36.3254L406.581 55.3382L422.669 62.6508L460.695 52.4132L491.408 55.3382L497.258 62.6508H462.157L457.77 78.7386L491.408 86.0512L492.87 75.8135L478.245 68.5009L513.346 75.8135L529.433 103.601L542.596 165.027V219.141L530.896 270.329L507.495 296.654L485.558 356.618L495.795 293.729L523.583 267.404L533.821 222.066V205.978L522.121 195.74L492.87 211.828L475.32 210.366L485.558 295.192L469.47 353.693L448.995 385.868L421.207 415.119L367.093 450.219L317.367 451.682H293.967L277.879 467.77L280.804 494.095L304.205 524.808L365.631 555.521L418.282 561.371L454.845 556.984L469.47 551.133L476.782 545.283L511.883 507.258L510.42 489.707L492.87 463.382L536.746 505.795L636.197 555.521L688.848 602.322L723.949 688.611L738.574 770.512V810H0V695.923L46.8007 595.009L89.2139 532.121L231.079 492.633L274.954 457.532L280.804 428.282L250.091 333.218L251.554 318.592L266.179 344.918L283.729 315.667L288.117 312.742L346.618 327.367L358.318 331.755L374.406 347.843L375.868 355.155L370.018 356.618L339.305 352.23H312.98L282.267 361.005L272.029 369.781L274.954 377.093L277.879 385.868L289.58 413.656L295.43 418.044H365.631L381.718 412.194L394.881 397.569L405.119 361.005L422.669 347.843L432.907 356.618L441.682 336.143L456.307 327.367L472.395 279.104L473.857 224.991L438.757 165.027V151.865L453.382 146.015L440.219 109.452L418.282 90.4388H415.356L389.031 81.6636L362.706 78.7386L346.618 81.6636H289.58L286.654 83.1261L272.029 88.9762L255.942 109.452L242.779 181.115L236.929 163.565L242.779 105.064L276.417 43.638ZM213.528 222.066L241.316 219.141L242.779 251.316L241.316 276.179L228.154 271.792L214.991 254.241L209.141 241.079V239.616L213.528 222.066Z" fill="#2C271C"/>
<path d="M428.519 12.925L384.643 14.3876L389.031 10L428.519 12.925Z" fill="#E36830"/>
<path d="M330.53 17.3126L336.38 15.8501L329.068 27.5503L330.53 17.3126Z" fill="#2C271C"/>
<path d="M406.581 26.0877L409.506 31.9378L422.669 27.5503L431.444 33.4004L370.018 59.7258L384.644 34.8629L406.581 26.0877ZM491.408 55.3382L460.695 52.4132L422.669 62.6508L406.581 55.3382L440.219 36.3254L479.708 42.1755L491.408 55.3382ZM513.346 75.8135L478.245 68.5009L492.87 75.8135L491.408 86.0512L457.77 78.7386L462.157 62.6508H497.258L513.346 75.8135ZM289.58 81.6636H346.618L329.068 84.5887L289.58 81.6636ZM346.618 81.6636L362.706 78.7386L358.318 81.6636H346.618Z" fill="#E36830"/>
<path d="M358.318 81.6636L362.706 78.7386L389.031 81.6636H358.318ZM286.654 83.1261L289.58 81.6636L329.068 84.5887L314.442 88.9762L286.654 83.1261Z" fill="#F7AA7C"/>
<path d="M329.068 84.5887L346.618 81.6636H358.318H389.031L393.419 83.1261L415.356 90.4388H418.282L425.594 103.601V121.152L406.581 150.402L415.356 169.415L434.369 186.965L437.294 189.89L454.845 205.978L446.069 244.004V254.241L447.532 271.792L459.232 276.179L457.77 286.417L409.506 324.442L393.419 346.38L384.644 352.23L378.793 347.843H374.406L371.481 344.918L358.318 331.755L346.618 327.367V325.905L326.143 311.28H356.856L348.08 296.654L340.768 279.104L330.53 268.867L323.218 270.329V264.479L310.055 229.378L321.755 248.391L359.781 252.779L393.419 233.766L415.356 229.378L425.594 214.753L412.431 216.216L403.656 219.141H399.269L381.718 213.291V211.828L364.168 207.441H362.706L336.38 205.978L321.755 208.903L311.517 211.828L307.13 222.066V248.391L314.442 258.629L323.218 271.792L315.905 277.642L329.068 293.729V299.58L301.28 293.729L276.417 298.117L272.029 311.28L283.729 315.667L266.179 344.918L251.554 318.592L245.704 271.792L241.316 276.179L242.779 251.316H244.241L248.629 245.466L273.492 267.404L282.267 251.316L286.654 235.229L288.117 217.678L280.804 201.59L244.241 197.203L238.391 195.74L242.779 181.115L255.942 109.452L272.029 88.9762L286.654 83.1261L314.442 88.9762L329.068 84.5887Z" fill="#F5DCCE"/>
<path d="M425.594 103.601L418.282 90.4388L440.219 109.452L453.382 146.015L438.757 151.865V165.027L473.857 224.991L472.395 279.104L456.307 327.367L441.682 336.143L432.907 356.618L422.669 347.843L405.119 361.006L394.881 397.569L381.718 412.194L365.631 418.044H295.43L381.718 404.881L389.031 359.543L460.695 290.804L466.545 252.779L457.77 260.091L446.069 254.241V244.004L465.082 223.528V211.828L434.369 170.878L437.294 189.89L434.369 186.965L413.894 162.102V153.327L431.444 135.777L425.594 103.601Z" fill="#E36830"/>
<path d="M434.369 186.965L415.356 169.415L406.581 150.402L425.594 121.152V103.601L431.444 135.777L413.894 153.327V162.102L434.369 186.965ZM437.294 189.89L434.369 170.878L465.082 211.828V223.528L446.069 244.004L454.845 205.978L437.294 189.89Z" fill="#F7AA7C"/>
<path d="M314.442 194.278L370.018 184.04L393.419 189.89L394.881 197.203L375.868 198.665L312.98 207.441L314.442 194.278Z" fill="#2C271C"/>
<path d="M375.868 198.665L394.881 197.203L393.419 189.89L403.656 192.815L399.269 201.59L381.718 200.128L375.868 198.665Z" fill="#E36830"/>
<path d="M381.718 200.128L399.269 201.59L403.656 192.815L412.431 197.203L403.656 203.053L413.894 205.978L408.044 210.366L397.806 211.828L381.718 200.128Z" fill="#F7AA7C"/>
<path d="M305.667 200.128L314.442 194.278L312.98 207.441L308.592 210.366L305.667 200.128Z" fill="#E36830"/>
<path d="M244.241 197.203L280.804 201.59L288.117 217.678L286.654 235.229L280.804 219.141L270.567 213.291L236.929 210.366L234.004 200.128L244.241 197.203Z" fill="#2C271C"/>
<path d="M492.87 211.828L522.121 195.74L533.821 205.978V222.066L523.583 267.404L495.795 293.729L485.558 356.618L484.095 441.444L492.87 463.382L510.42 489.708L511.883 507.258L476.782 545.283L469.47 540.896V551.133L454.845 556.984V529.196L429.982 551.133L416.819 554.059L418.282 561.371L365.631 555.521L304.205 524.808L280.804 494.095L277.879 467.77L293.967 451.682H305.667L323.218 460.457L321.755 495.558L339.305 514.57L399.269 523.346L413.894 513.108L424.132 507.258L428.519 486.782L438.757 451.682L444.607 428.282L451.92 423.894L450.457 415.119L448.995 385.868L469.47 353.693L485.558 295.192L487.02 236.691L492.87 211.828Z" fill="#F5DCCE"/>
<path d="M308.592 210.366L305.667 214.753L302.742 210.366L305.667 200.128L308.592 210.366ZM364.168 207.441L381.718 211.828L367.093 208.903L364.168 207.441ZM523.583 208.903L516.271 220.603L500.183 223.528L517.733 205.978L523.583 208.903Z" fill="#F7AA7C"/>
<path d="M321.755 208.903L336.38 205.978L362.706 207.441H364.168L367.093 208.903L327.605 214.753L323.218 223.528L329.068 229.378H356.856L365.631 220.603L381.718 224.991V213.291L399.269 219.141L390.494 220.603L397.806 224.991L403.656 219.141L412.431 216.216L416.819 220.603L409.506 227.916L389.031 229.378L367.093 244.004L343.693 245.466L321.755 238.154L312.98 227.916L321.755 208.903Z" fill="#E36830"/>
<path d="M236.929 210.366L270.567 213.291L267.642 214.753L241.316 213.291L223.766 214.753L236.929 210.366Z" fill="#F5DCCE"/>
<path d="M314.442 258.629L307.13 248.391V222.066L311.517 211.828L321.755 208.903L312.98 227.916L321.755 238.154L343.693 245.466L367.093 244.004L389.031 229.378L409.506 227.916L416.819 220.603L412.431 216.216L425.594 214.753L415.357 229.378L393.419 233.766L359.781 252.779L321.755 248.391L310.055 229.378L323.218 264.479L314.442 258.629Z" fill="#F7AA7C"/>
<path d="M381.718 213.291V224.991L365.631 220.603L356.856 229.378H329.068L323.218 223.528L327.605 214.753L367.093 208.903L381.718 211.828V213.291Z" fill="#2C271C"/>
<path d="M485.558 295.192L475.32 210.366L492.87 211.828L487.02 216.216V236.691L485.558 295.192Z" fill="#E36830"/>
<path d="M241.316 213.291L267.642 214.753L245.704 219.141L241.316 213.291ZM487.02 236.691V216.216L492.87 211.828L487.02 236.691Z" fill="#F7AA7C"/>
<path d="M223.766 214.753L241.316 213.291L245.704 219.141L267.642 214.753L270.567 213.291L280.804 219.141L286.655 235.229L282.267 251.316L261.792 255.704L248.629 239.616L244.241 251.316H242.779L241.316 219.141L213.528 222.066L210.603 220.603L223.766 214.753Z" fill="#E36830"/>
<path d="M258.867 217.678L270.567 219.141L279.342 230.841L276.417 236.691L270.567 229.378L258.867 236.691L244.241 235.229V224.991L258.867 217.678ZM403.656 219.141L397.806 224.991L390.494 220.603L399.269 219.141H403.656Z" fill="#2C271C"/>
<path d="M207.678 224.991L210.603 220.603L213.528 222.066L209.141 239.616L207.678 224.991Z" fill="#F7AA7C"/>
<path d="M206.216 244.004L207.678 224.991L209.141 239.616V241.079L206.216 244.004Z" fill="#F5DCCE"/>
<path d="M504.57 227.916L520.658 233.766L519.196 245.466L514.808 230.841L504.57 227.916Z" fill="#F7AA7C"/>
<path d="M500.183 242.541L504.57 227.916L514.808 230.841L519.196 245.466L504.57 261.554L495.795 255.704L498.72 249.854L508.958 244.004L504.57 236.691L500.183 242.541Z" fill="#E36830"/>
<path d="M500.183 242.541L504.57 236.691L508.958 244.004L498.72 249.854L500.183 242.541Z" fill="#2C271C"/>
<path d="M244.241 251.316L248.629 239.616L261.792 255.704L282.267 251.316L273.492 267.404L248.629 245.466L244.241 251.316ZM206.216 244.004L209.141 241.079L214.991 254.241L207.678 249.854L206.216 244.004Z" fill="#F7AA7C"/>
<path d="M241.316 276.179L239.854 282.029L222.303 271.792L207.678 249.854L214.991 254.241L228.154 271.792L241.316 276.179Z" fill="#F5DCCE"/>
<path fill-rule="evenodd" clip-rule="evenodd" d="M446.069 254.241L457.77 260.091L466.545 252.779L460.695 290.804L389.031 359.543L381.718 404.881L295.43 418.044L289.58 413.656L377.331 403.419L371.481 380.018L364.168 378.556L371.481 366.856L312.98 352.23H339.305L372.943 359.543L380.256 356.618L378.793 347.843L384.644 352.23L393.419 346.38L409.506 324.442L457.77 286.417L459.232 276.179L447.532 271.792L446.069 254.241ZM504.57 261.554L491.408 268.867L495.795 255.704L504.57 261.554Z" fill="#F7AA7C"/>
<path d="M315.905 277.642L323.218 271.792L314.442 258.629L323.218 264.479V270.329L330.53 268.867L340.768 279.104L348.08 296.654L343.693 286.417L315.905 277.642Z" fill="#F7AA7C"/>
<path d="M329.068 293.729L315.905 277.642L343.693 286.417L348.08 296.654L356.856 311.28H326.143L346.618 325.905L314.442 311.28L339.305 303.967L336.38 290.804L327.605 286.417L329.068 293.729Z" fill="#F7AA7C"/>
<path d="M329.068 293.729L327.605 286.417L336.38 290.804L339.305 303.967L314.442 311.28L346.618 325.905V327.367L288.117 312.742L282.267 301.042L301.28 298.117L292.505 305.43L301.28 306.892H327.605L321.755 299.58L330.53 302.505L329.068 293.729Z" fill="#E36830"/>
<path d="M283.729 315.667L272.029 311.28L276.417 298.117L301.28 293.729L329.068 299.58V293.729L330.53 302.505L321.755 299.58L301.28 298.117L282.267 301.042L288.117 312.742L283.729 315.667Z" fill="#F7AA7C"/>
<path d="M301.28 298.117L321.755 299.58L327.605 306.892H301.28L292.505 305.43L301.28 298.117Z" fill="#2C271C"/>
<path d="M302.742 334.68L330.53 336.143L333.455 341.993L286.654 349.305V341.993L301.28 334.68L295.43 339.068L305.667 340.53L314.442 336.143L302.742 334.68Z" fill="#E36830"/>
<path d="M302.742 334.68L314.442 336.143L305.667 340.53L295.43 339.068L301.28 334.68H302.742Z" fill="#F7AA7C"/>
<path d="M339.305 352.23L370.018 356.618L375.868 355.155L374.406 347.843H378.793L380.256 356.618L372.943 359.543L339.305 352.23Z" fill="#E36830"/>
<path d="M282.267 361.005L312.98 352.23L371.481 366.856L364.168 378.556L371.481 380.018L377.331 403.419L289.58 413.656L277.879 385.868L279.342 368.318L282.267 361.005Z" fill="#F5DCCE"/>
<path d="M274.954 377.093L272.029 369.781L282.267 361.005L279.342 368.318L274.954 377.093Z" fill="#E36830"/>
<path d="M305.667 366.856L343.693 372.706L342.23 381.481L311.517 382.943L326.143 380.018L340.768 372.706L320.293 368.318L305.667 366.856Z" fill="#F7AA7C"/>
<path d="M311.517 382.943H299.817L293.967 375.631L305.667 366.856L320.293 368.318L329.068 371.243L326.143 380.018L311.517 382.943Z" fill="#2C271C"/>
<path d="M274.954 377.093L279.342 368.318L277.879 385.868L274.954 377.093Z" fill="#F7AA7C"/>
<path d="M326.143 380.018L329.068 371.243L320.292 368.318L340.768 372.706L326.143 380.018Z" fill="#E36830"/>
<path d="M342.23 381.481L343.693 372.706L355.393 375.631L349.543 382.943L342.23 381.481Z" fill="#F7AA7C"/>
<path d="M349.543 382.943L355.393 375.631L362.706 378.556L349.543 382.943Z" fill="#F7AA7C"/>
<path d="M375.868 381.481L381.718 384.406L377.331 391.718L375.868 381.481ZM421.207 415.119L448.994 385.868L450.457 415.119L444.607 428.282L438.757 451.682L428.519 486.782L413.894 513.108L399.269 523.346L339.305 514.57L321.755 495.558L323.218 460.457L355.393 489.707L378.793 491.17L394.881 480.932L391.956 461.92L415.356 422.431L421.207 415.119Z" fill="#F7AA7C"/>
<path d="M317.367 451.682L367.093 450.219L421.207 415.119L415.356 422.431L389.031 451.682L391.956 479.47L378.793 488.245L359.781 485.32L351.005 469.232L317.367 451.682Z" fill="#E36830"/>
<path d="M444.607 428.282L450.457 415.119L451.92 423.894L444.607 428.282ZM317.367 451.682L351.006 469.232L359.781 485.32L378.793 488.245L391.956 479.47L389.031 451.682L415.357 422.431L391.956 461.92L394.881 480.932L378.793 491.17L355.393 489.708L323.218 460.457L305.667 451.682H317.367ZM413.894 513.108L428.519 486.782L424.132 507.258L413.894 513.108Z" fill="#F7AA7C"/>
<path d="M418.282 561.371L416.819 554.059L429.982 551.133L454.845 529.196V556.984L418.282 561.371ZM469.47 551.133V540.896L476.782 545.283L469.47 551.133Z" fill="#F7AA7C"/>
</g>
<defs>
<filter id="filter0_d_0_4" x="0" y="0" width="768.574" height="820" filterUnits="userSpaceOnUse" color-interpolation-filters="sRGB">
<feFlood flood-opacity="0" result="BackgroundImageFix"/>
<feColorMatrix in="SourceAlpha" type="matrix" values="0 0 0 0 0 0 0 0 0 0 0 0 0 0 0 0 0 0 127 0" result="hardAlpha"/>
<feOffset dx="20"/>
<feGaussianBlur stdDeviation="5"/>
<feComposite in2="hardAlpha" operator="out"/>
<feColorMatrix type="matrix" values="0 0 0 0 0 0 0 0 0 0 0 0 0 0 0 0 0 0 0.25 0"/>
<feBlend mode="normal" in2="BackgroundImageFix" result="effect1_dropShadow_0_4"/>
<feBlend mode="normal" in="SourceGraphic" in2="effect1_dropShadow_0_4" result="shape"/>
</filter>
</defs>
</svg>
