<svg width="201" height="200" viewBox="0 0 201 200" fill="none" xmlns="http://www.w3.org/2000/svg">
<g clip-path="url(#clip0_49_18)">
<path d="M99.542 0.0565186C48.6933 0.0565186 51.8682 22.1075 51.8682 22.1075L51.9247 44.953H100.449V51.8118H32.6518C32.6518 51.8118 0.113739 48.1216 0.113739 99.4275C0.113739 150.735 28.5137 148.915 28.5137 148.915H45.4628V125.107C45.4628 125.107 44.549 96.7067 73.4094 96.7067H121.536C121.536 96.7067 148.576 97.1435 148.576 70.5741V26.6432C148.576 26.6432 152.682 0.0565186 99.542 0.0565186ZM72.7859 15.4197C73.9325 15.4186 75.0681 15.6437 76.1277 16.082C77.1873 16.5204 78.15 17.1633 78.9608 17.9741C79.7716 18.7849 80.4146 19.7477 80.8529 20.8072C81.2912 21.8668 81.5163 23.0024 81.5153 24.1491C81.5163 25.2957 81.2912 26.4313 80.8529 27.4909C80.4146 28.5504 79.7716 29.5132 78.9608 30.324C78.15 31.1348 77.1873 31.7778 76.1277 32.2161C75.0681 32.6544 73.9325 32.8795 72.7859 32.8785C71.6392 32.8795 70.5036 32.6544 69.4441 32.2161C68.3845 31.7778 67.4218 31.1348 66.611 30.324C65.8002 29.5132 65.1572 28.5504 64.7189 27.4909C64.2805 26.4313 64.0554 25.2957 64.0565 24.1491C64.0554 23.0024 64.2805 21.8668 64.7189 20.8072C65.1572 19.7477 65.8002 18.7849 66.611 17.9741C67.4218 17.1633 68.3845 16.5204 69.4441 16.082C70.5036 15.6437 71.6392 15.4186 72.7859 15.4197Z" fill="#47464D"/>
<path d="M100.986 199.315C151.835 199.315 148.66 177.264 148.66 177.264L148.603 154.419H100.078V147.56H167.875C167.875 147.56 200.413 151.25 200.413 99.9428C200.413 48.6361 172.013 50.4557 172.013 50.4557H155.064V74.2636C155.064 74.2636 155.978 102.664 127.118 102.664H78.9906C78.9906 102.664 51.9514 102.227 51.9514 128.797V172.729C51.9514 172.729 47.8455 199.315 100.985 199.315H100.986ZM127.742 183.953C126.595 183.954 125.46 183.729 124.4 183.291C123.341 182.852 122.378 182.209 121.567 181.399C120.756 180.588 120.113 179.625 119.675 178.565C119.237 177.506 119.012 176.37 119.013 175.224C119.011 174.077 119.236 172.941 119.675 171.882C120.113 170.822 120.756 169.859 121.567 169.048C122.378 168.237 123.34 167.594 124.4 167.156C125.46 166.718 126.595 166.492 127.742 166.493C128.889 166.492 130.024 166.717 131.084 167.156C132.143 167.594 133.106 168.237 133.917 169.048C134.728 169.859 135.371 170.821 135.809 171.881C136.247 172.941 136.472 174.076 136.471 175.223C136.472 176.37 136.247 177.505 135.809 178.565C135.371 179.624 134.728 180.587 133.917 181.398C133.106 182.209 132.143 182.852 131.084 183.29C130.024 183.728 128.889 183.953 127.742 183.952V183.953Z" fill="#E36830"/>
</g>
<defs>
<clipPath id="clip0_49_18">
<rect width="200.803" height="200" fill="white"/>
</clipPath>
</defs>
</svg>
