<svg width="381" height="381" viewBox="0 0 381 381" fill="none" xmlns="http://www.w3.org/2000/svg">
<g clip-path="url(#clip0_14_2)">
<path d="M-88 275.585V0H100.686L-78.0214 73.5786L-78.9286 82.9432H-34.4786L-32.6643 119.064L-47.1786 127.09L-49.9 152.508L-44.4571 153.846L26.3 161.873L-33.5714 149.833L110.664 113.712L274.857 147.157L288.464 149.833L364.664 165.886L426.35 180.602L394.6 184.615L439.05 181.94L439.957 175.251L443.586 163.211L437.236 161.873L434.514 143.144V141.806L454.471 133.779L378.271 137.793V136.455L386.436 124.415L350.15 90.9699L313.864 84.2809L272.136 96.3211L104.314 0H467.171V263.545L420 266.221V248.829L417.279 236.789L413.65 239.465L405.486 243.478L402.764 240.803L401.857 232.776L403.671 215.385L400.043 231.438H395.507V215.385H390.064L391.879 231.438L385.529 232.776L383.714 207.358V179.264L380.993 207.358L372.829 208.696V236.789V240.803L371.921 242.14L364.664 248.829L351.964 263.545L346.521 267.559L325.657 262.207L326.564 255.518L344.707 254.181L330.193 243.478L321.121 228.763L315.679 211.371H314.771L301.164 212.709L302.979 193.98L310.236 192.642L307.514 191.304L301.164 189.967L300.257 199.331H299.35L298.443 161.873L294.814 199.331H289.371L283.929 200.669V224.749L288.464 240.803H262.157L230.407 262.207H218.614V216.722L213.171 227.425L208.636 234.114L210.45 216.722L204.1 218.06V206.02L206.821 184.615L282.114 191.304L204.1 181.94L201.379 206.02H198.657L191.4 207.358V247.492V248.829H188.679H175.979V243.478L182.329 246.154V203.344H175.071L174.164 219.398L170.536 228.763V204.682H160.557L159.65 187.291L164.186 179.264L192.307 180.602L160.557 176.589V135.117L153.3 133.779L154.207 185.953L141.507 187.291L142.414 252.843L135.157 266.221H126.993L125.179 247.492L115.2 243.478L109.757 239.465L80.7286 236.789L71.6572 220.736L68.0286 246.154L60.7714 251.505L59.8643 210.033L53.5143 211.371L52.6071 232.776L49.8857 214.047L41.7214 212.709V197.993L44.4429 164.549L143.321 175.251L44.4429 161.873L36.2786 152.508V196.656L25.3929 197.993V270.234L15.4143 271.572L19.0429 244.816L12.6929 246.154L9.97143 232.776L-18.15 230.1L-28.1286 244.816V272.91L-88 275.585Z" fill="#47464D"/>
<path d="M-34.4786 82.9432H-78.9286L-78.0214 73.5786L100.686 0H104.314L272.136 96.3211L313.864 84.2809L350.15 90.9699L386.436 124.415L378.271 136.455L343.8 104.348L321.121 96.3211L266.693 112.375L113.386 30.7692L-34.4786 82.9432Z" fill="#E36830"/>
<path d="M-34.4786 82.9432L113.386 30.7693L266.693 112.375L321.121 96.3211L343.8 104.348L378.271 136.455V137.793L374.643 144.482L390.971 143.144H434.514L437.236 161.873L388.25 149.833L389.157 163.211L439.957 175.251L439.05 181.94L426.35 180.602L364.664 165.886L288.464 149.833L274.857 147.157L107.943 112.375L-44.4572 153.846L-49.9 152.508L-47.1786 127.09V143.144H-39.9215L107.943 100.335L102.5 73.5787L-32.6643 119.064L-34.4786 82.9432Z" fill="#F7AA7C"/>
<path d="M-32.6643 119.063L102.5 73.5785L107.943 100.334L-39.9214 143.144H-47.1786V127.09L-32.6643 119.063ZM169.629 90.9698L262.157 115.05V133.779L172.35 113.712L169.629 90.9698ZM-44.4572 153.846L107.943 112.374L274.857 147.157L110.664 113.712L-33.5714 149.833L26.3 161.873L-44.4572 153.846ZM288.464 123.077L372.829 145.819V159.197H364.664L298.443 144.481L288.464 141.806V123.077Z" fill="#F5DCCE"/>
<path d="M142.414 252.843L141.507 187.291L154.207 185.953L153.3 133.779L160.557 135.117V176.589L164.186 179.264L159.65 187.291H154.207L158.743 250.167L142.414 252.843Z" fill="#F7AA7C"/>
<path d="M378.271 137.793L454.471 133.779L434.514 141.806L405.486 143.144H390.971L374.643 144.482L378.271 137.793Z" fill="#E36830"/>
<path d="M25.3929 270.234V197.993L36.2786 196.655V152.508L44.4429 161.873V164.548L41.7215 197.993H36.2786L37.1857 275.585L25.3929 270.234ZM146.043 152.508H153.3V168.562H146.043V152.508Z" fill="#F7AA7C"/>
<path d="M44.4429 164.548V161.873L143.321 175.251L44.4429 164.548Z" fill="#E36830"/>
<path d="M294.814 199.331L298.443 161.873L299.35 199.331H294.814ZM201.379 206.02L204.1 181.94L206.821 184.615L204.1 206.02H201.379Z" fill="#F7AA7C"/>
<path d="M164.186 179.264L160.557 176.589L192.307 180.602L164.186 179.264Z" fill="#E36830"/>
<path d="M380.993 207.358L383.714 179.264V207.358H380.993Z" fill="#F7AA7C"/>
<path fill-rule="evenodd" clip-rule="evenodd" d="M426.35 180.602L439.05 181.94L394.6 184.615L426.35 180.602ZM282.114 191.304L204.1 181.94L206.821 184.615L282.114 191.304ZM166.907 248.829H159.65L161.464 242.14H171.443V248.829H175.979V243.478L174.164 219.398L170.536 228.763H160.557V204.682L159.65 187.291H154.207L158.743 250.167L166.907 248.829Z" fill="#E36830"/>
<path d="M300.257 199.331L301.164 189.967L307.514 191.304L310.236 192.642L302.979 193.98L301.164 212.709L314.771 211.371V212.709L307.514 214.047L313.864 219.398V220.736L310.236 231.438L300.257 226.087V199.331Z" fill="#F7AA7C"/>
<path d="M25.3928 270.234L37.1857 275.585L36.2786 197.993H41.7214V212.709V234.114L52.6071 232.776L53.5143 211.371L60.7714 278.261L37.1857 279.599L25.3928 276.923L20.8571 282.274H28.1143L33.5571 284.95L-15.4286 283.612L14.5071 279.599L15.4143 271.572L25.3928 270.234Z" fill="#E36830"/>
<path d="M283.929 200.669L289.371 199.331L296.629 200.669L297.536 242.141L288.464 240.803L283.929 224.749H290.279L283.929 200.669Z" fill="#F7AA7C"/>
<path d="M297.536 242.141L296.629 200.669L289.371 199.331H294.814H299.35H300.257V226.087L310.236 231.438L313.864 220.736V219.398L314.771 212.709V211.371H315.679V235.452L299.35 232.776L297.536 243.478V242.141ZM283.929 224.749V200.669L290.279 224.749H283.929Z" fill="#E36830"/>
<path d="M160.557 204.682H170.536V228.763H160.557V204.682ZM174.164 219.398L175.071 203.344H182.329V246.154L175.979 243.478L174.164 219.398ZM191.4 207.358L198.657 206.02L201.379 247.492L191.4 248.829V247.492V207.358Z" fill="#F7AA7C"/>
<path d="M191.4 248.829L201.379 247.492L198.657 206.02H201.379H204.1V218.06L208.636 234.114L213.171 227.425L212.264 256.856L188.679 248.829H191.4Z" fill="#E36830"/>
<path d="M53.5143 211.371L59.8643 210.033L60.7714 251.505V275.585H78.0071L85.2643 276.923L87.0785 284.95H78.9143H64.4H40.8143H33.5571L28.1143 282.274L37.1857 279.599L60.7714 278.261L53.5143 211.371ZM372.829 208.696L380.993 207.358L384.621 232.776L372.829 240.803V236.789V208.696Z" fill="#F7AA7C"/>
<path d="M384.621 232.776L380.993 207.358H383.714L385.529 232.776H384.621Z" fill="#E36830"/>
<path fill-rule="evenodd" clip-rule="evenodd" d="M315.679 211.371L321.121 228.763L315.679 235.452V211.371ZM41.7214 234.114L52.6071 232.776L49.8857 214.047L41.7214 212.709V234.114Z" fill="#F7AA7C"/>
<path d="M313.864 219.398L307.514 214.047L314.771 212.709L313.864 219.398Z" fill="#47464D"/>
<path d="M391.879 231.438L390.064 215.385H395.507V231.438H391.879ZM400.043 231.438L403.671 215.385L401.857 232.776L400.043 231.438ZM204.1 218.06L210.45 216.722L208.636 234.114L204.1 218.06ZM213.171 227.425L218.614 216.722V262.207V263.545L212.264 256.856L213.171 227.425Z" fill="#F7AA7C"/>
<path d="M60.7714 251.505L68.0286 246.154L71.6572 220.736L80.7286 236.789L109.757 239.465L89.8 236.789L92.5214 244.816H115.2V243.478L125.179 247.492L126.993 266.221L119.736 276.923H110.664L78.0071 275.585H60.7714V251.505ZM315.679 235.452L321.121 228.763L330.193 243.478L326.564 255.518L325.657 262.207L324.75 278.261V287.625H315.679L317.493 275.585L286.65 286.288L272.136 276.923L237.664 279.599L232.221 270.234L230.407 266.221V262.207L262.157 240.803H288.464L297.536 242.141V243.478L299.35 232.776L315.679 235.452ZM-28.1286 272.91V244.816L-18.15 230.1L9.97143 232.776L12.6929 246.154L19.0429 244.816L15.4143 271.572L14.5071 279.599L-15.4286 283.612L-29.9429 282.274L-39.0143 279.599L-28.1286 272.91ZM385.529 232.776L391.879 231.438H395.507H400.043L401.857 232.776L402.764 240.803H395.507L397.321 250.167H406.393H408.207L405.486 266.221L385.529 276.923L380.086 268.896L355.593 272.91L351.964 263.545L364.664 248.829L371.921 251.505V242.141L372.829 240.803L384.621 232.776H385.529ZM413.65 239.465L417.279 236.789L420 248.829V266.221V279.599L418.186 264.883L410.929 278.261L412.743 266.221V250.167L413.65 239.465Z" fill="#2C271C"/>
<path fill-rule="evenodd" clip-rule="evenodd" d="M92.5214 244.816L89.8 236.789L109.757 239.465L115.2 243.478V244.816H92.5214ZM78.9143 238.127L84.3571 244.816L76.1929 248.829L78.9143 238.127ZM73.4714 239.465L74.3786 248.829L68.0286 250.167L73.4714 239.465Z" fill="#F7AA7C"/>
<path fill-rule="evenodd" clip-rule="evenodd" d="M383.714 240.803L395.507 250.167H384.621L383.714 240.803ZM405.486 243.478L402.764 240.803H395.507L397.321 250.167H406.393L405.486 243.478ZM171.443 248.829V242.141H161.464L159.65 248.829H171.443ZM206.821 250.167L212.264 244.816L204.1 242.141L206.821 250.167ZM254.9 254.181H267.6L266.693 242.141L254.9 254.181ZM271.229 254.181H285.743L273.043 242.141L271.229 254.181Z" fill="#F7AA7C"/>
<path fill-rule="evenodd" clip-rule="evenodd" d="M311.143 246.154L312.05 242.141L314.771 243.478V254.181L311.143 246.154ZM326.564 255.518L344.707 254.181L330.193 243.478L326.564 255.518Z" fill="#E36830"/>
<path fill-rule="evenodd" clip-rule="evenodd" d="M364.664 248.829L371.921 242.141V251.505L364.664 248.829ZM374.643 251.505L380.993 250.167L375.55 242.141L374.643 251.505ZM289.371 244.816L297.536 252.843V243.478L289.371 244.816Z" fill="#F7AA7C"/>
<path d="M314.771 244.816V243.478L315.679 254.181L314.771 244.816Z" fill="#47464D"/>
<path d="M42.6286 244.816H50.7929V259.532L47.1643 246.154L41.7214 258.194L42.6286 244.816ZM314.771 254.181V244.816L315.679 254.181H314.771Z" fill="#F7AA7C"/>
<path d="M166.907 248.829H171.443H175.979H188.679L212.264 256.856L218.614 263.545L216.8 266.221L217.707 271.572L220.429 282.274L230.407 276.923L224.057 287.625L234.036 306.355L234.943 347.826L232.221 357.191L202.286 365.217L208.636 370.569L201.379 373.244L209.543 374.582L144.229 387.96L75.2857 385.284L103.407 371.906L100.686 342.475L90.7071 337.124L92.5214 301.003L93.4286 290.301V287.625V284.95L96.15 279.599H107.943L131.529 278.261L135.157 266.221L142.414 252.843L158.743 250.167L166.907 248.829Z" fill="#2C271C"/>
<path d="M325.657 262.208L346.521 267.559L347.429 275.585L324.75 278.261L325.657 262.208Z" fill="#F7AA7C"/>
<path fill-rule="evenodd" clip-rule="evenodd" d="M218.614 262.208H230.407V266.221H216.8L218.614 263.545V262.208ZM346.521 267.559L351.964 263.545L355.593 272.91L380.086 268.896L385.529 276.923L405.486 266.221H412.743L410.929 278.261L418.186 264.883L420 279.599V266.221L467.171 263.545V309.03L452.657 310.368L437.236 311.706L357.407 319.733L204.1 381.271L269.414 400H-88V338.462L66.2143 362.542L90.7072 337.124L100.686 342.475L103.407 371.907L75.2857 385.284L144.229 387.96L209.543 374.582L201.379 373.244L208.636 370.569L202.286 365.218L232.221 357.191L234.943 347.826L234.036 306.355L224.057 287.626L230.407 276.923L220.429 282.274L217.707 271.572L232.221 270.234L237.664 279.599L272.136 276.923L286.65 286.288L317.493 275.585L315.679 287.626H324.75V278.261L347.429 275.585L346.521 267.559ZM119.736 276.923L126.993 266.221H135.157L131.529 278.261L119.736 276.923Z" fill="#E36830"/>
<path d="M217.707 271.572L216.8 266.221H230.407L232.221 270.234L217.707 271.572Z" fill="#47464D"/>
<path fill-rule="evenodd" clip-rule="evenodd" d="M-13.6143 270.234L4.52856 278.261H-13.6143V270.234ZM85.2643 276.923H110.664L78.0071 275.585L85.2643 276.923ZM-88 292.977L92.5214 301.003L93.4286 290.301L40.8143 287.625L3.62142 286.288L-8.17143 284.95L-52.6214 283.612L-58.9714 282.274H-84.3714L-76.2071 280.936H-54.4357L-48.0857 282.274H-29.9429L-39.0143 279.599L-28.1286 272.91L-88 275.585V292.977Z" fill="#E36830"/>
<path d="M28.1143 282.274H20.8572L25.3929 276.923L37.1857 279.599L28.1143 282.274ZM87.0786 284.95L85.2643 276.923H110.664H119.736L131.529 278.261L107.943 279.599H96.15L93.4286 284.95H87.0786Z" fill="#47464D"/>
<path d="M-52.6214 283.612L-48.0857 282.274H-29.9428L-15.4285 283.612L33.5572 284.95H40.8143V286.288V287.625L3.62146 286.288L-8.1714 284.95L-52.6214 283.612Z" fill="#47464D"/>
<path d="M40.8143 284.95H64.4L55.3286 286.288H40.8143V284.95Z" fill="#E36830"/>
<path d="M55.3286 286.288L64.4 284.95H78.9143L69.8428 286.288H55.3286Z" fill="#2C271C"/>
<path d="M69.8429 286.288L78.9143 284.95H87.0786H93.4286V287.625L69.8429 286.288Z" fill="#E36830"/>
<path d="M40.8143 287.626V286.288H55.3286H69.8429L93.4286 287.626V290.301L40.8143 287.626ZM-88 338.462V292.977L92.5214 301.003L90.7072 337.124L66.2143 362.542L-88 338.462Z" fill="#F5DCCE"/>
<path d="M437.236 311.706L452.657 310.368H467.171V346.488L338.357 333.11L365.571 321.07L437.236 311.706Z" fill="#E36830"/>
<path d="M357.407 319.732L437.236 311.706L365.571 321.07L357.407 319.732Z" fill="#47464D"/>
<path d="M269.414 400L204.1 381.271L357.407 319.732L365.571 321.07L338.357 333.11L467.171 346.488V400H269.414Z" fill="#F5DCCE"/>
<path fill-rule="evenodd" clip-rule="evenodd" d="M210.45 341.137H220.429L222.243 355.853L204.1 354.515L210.45 341.137ZM143.321 347.826L154.207 357.191L122.457 365.217L124.271 353.177L143.321 347.826ZM166.907 349.164L176.886 355.853L165.093 357.191L166.907 349.164Z" fill="#E36830"/>
</g>
<defs>
<clipPath id="clip0_14_2">
<rect width="381" height="381" fill="white"/>
</clipPath>
</defs>
</svg>
