<svg width="200" height="200" viewBox="0 0 176 180" fill="none" xmlns="http://www.w3.org/2000/svg">
<g clip-path="url(#clip0_49_37)">
<path d="M175.52 100.018C175.52 88.3904 160.959 77.3712 138.634 70.5379C143.786 47.784 141.496 29.681 131.407 23.8852C129.082 22.5257 126.363 21.8817 123.393 21.8817V29.8599C125.039 29.8599 126.363 30.1819 127.472 30.7901C132.338 33.5807 134.448 44.2063 132.803 57.873C132.409 61.236 131.765 64.7779 130.978 68.3913C123.966 66.674 116.31 65.3503 108.26 64.4916C103.43 57.873 98.4214 51.8625 93.3769 46.6033C105.04 35.763 115.988 29.8241 123.429 29.8241V21.8459C113.591 21.8459 100.711 28.8582 87.6885 41.0222C74.6658 28.9297 61.7862 21.9891 51.9476 21.9891V29.9672C59.3534 29.9672 70.3368 35.8704 82 46.6391C76.9912 51.8983 71.9825 57.873 67.2242 64.4916C59.1387 65.3503 51.4825 66.674 44.4703 68.4271C43.6475 64.8494 43.0392 61.3791 42.6099 58.0519C40.9284 44.3852 43.0035 33.7596 47.8333 30.9332C48.9066 30.2892 50.3019 30.003 51.9476 30.003V22.0248C48.9424 22.0248 46.2234 22.6688 43.8621 24.0283C33.8089 29.8241 31.555 47.8913 36.7426 70.5737C14.4895 77.4428 0 88.4262 0 100.018C0 111.645 14.5611 122.664 36.8857 129.498C31.7338 152.252 34.0236 170.355 44.1126 176.15C46.438 177.51 49.1571 178.154 52.1623 178.154C62.0009 178.154 74.8804 171.142 87.9031 158.978C100.926 171.07 113.805 178.011 123.644 178.011C126.649 178.011 129.368 177.367 131.729 176.007C141.783 170.211 144.037 152.144 138.849 129.462C161.03 122.629 175.52 111.609 175.52 100.018ZM128.939 76.1548C127.615 80.77 125.969 85.5283 124.109 90.2866C122.642 87.4244 121.104 84.5623 119.422 81.7002C117.777 78.8381 116.024 76.0475 114.27 73.3285C119.351 74.0798 124.252 75.01 128.939 76.1548ZM112.553 114.257C109.763 119.087 106.9 123.666 103.931 127.924C98.6003 128.389 93.1981 128.639 87.76 128.639C82.3577 128.639 76.9555 128.389 71.6605 127.959C68.6911 123.702 65.7932 119.158 63.0026 114.364C60.2836 109.677 57.815 104.919 55.5611 100.125C57.7792 95.3311 60.2836 90.537 62.9668 85.8503C65.7574 81.0204 68.6195 76.441 71.589 72.1836C76.9197 71.7185 82.322 71.4681 87.76 71.4681C93.1623 71.4681 98.5645 71.7185 103.859 72.1478C106.829 76.4053 109.727 80.9489 112.517 85.7429C115.236 90.4297 117.705 95.188 119.959 99.982C117.705 104.776 115.236 109.57 112.553 114.257ZM124.109 109.606C126.041 114.4 127.687 119.194 129.046 123.845C124.359 124.99 119.422 125.956 114.306 126.707C116.059 123.952 117.812 121.126 119.458 118.228C121.104 115.366 122.642 112.468 124.109 109.606ZM87.8316 147.78C84.5043 144.345 81.1771 140.517 77.8857 136.331C81.1056 136.474 84.397 136.581 87.7242 136.581C91.0872 136.581 94.4145 136.51 97.6701 136.331C94.4502 140.517 91.123 144.345 87.8316 147.78ZM61.2138 126.707C56.1335 125.956 51.2321 125.026 46.5454 123.881C47.8691 119.266 49.5148 114.507 51.3752 109.749C52.842 112.611 54.3804 115.473 56.0619 118.335C57.7434 121.198 59.4607 123.988 61.2138 126.707ZM87.6527 52.2561C90.9799 55.6906 94.3071 59.5187 97.5986 63.7046C94.3787 63.5615 91.0872 63.4541 87.76 63.4541C84.397 63.4541 81.0698 63.5257 77.8141 63.7046C81.034 59.5187 84.3612 55.6906 87.6527 52.2561ZM61.178 73.3285C59.4249 76.0833 57.6719 78.9096 56.0262 81.8075C54.3804 84.6696 52.842 87.5318 51.3752 90.3939C49.4433 85.5998 47.7975 80.8058 46.438 76.1548C51.1248 75.0457 56.0619 74.0798 61.178 73.3285ZM28.8002 118.121C16.1353 112.718 7.9424 105.635 7.9424 100.018C7.9424 94.4009 16.1353 87.2813 28.8002 81.9148C31.877 80.5911 35.24 79.4105 38.7103 78.3014C40.7495 85.3136 43.4328 92.6121 46.76 100.089C43.4686 107.531 40.8211 114.794 38.8176 121.77C35.2757 120.661 31.9127 119.444 28.8002 118.121ZM48.048 169.246C43.1824 166.455 41.0715 155.829 42.7173 142.163C43.1108 138.8 43.7548 135.258 44.5419 131.644C51.5541 133.362 59.2103 134.685 67.26 135.544C72.0899 142.163 77.0986 148.173 82.1431 153.432C70.4799 164.273 59.5323 170.211 52.0907 170.211C50.4808 170.176 49.1213 169.854 48.048 169.246ZM132.91 141.984C134.592 155.65 132.517 166.276 127.687 169.102C126.613 169.746 125.218 170.033 123.572 170.033C116.167 170.033 105.183 164.129 93.5201 153.361C98.5288 148.102 103.537 142.127 108.296 135.508C116.381 134.65 124.037 133.326 131.05 131.573C131.873 135.186 132.517 138.657 132.91 141.984ZM146.684 118.121C143.607 119.444 140.244 120.625 136.774 121.734C134.735 114.722 132.051 107.424 128.724 99.9463C132.016 92.5047 134.663 85.2421 136.667 78.2656C140.209 79.3747 143.572 80.5911 146.72 81.9148C159.385 87.3171 167.578 94.4009 167.578 100.018C167.542 105.635 159.349 112.754 146.684 118.121Z" fill="#47464D"/>
<path d="M87.7242 116.368C96.754 116.368 104.074 109.048 104.074 100.018C104.074 90.9881 96.754 83.668 87.7242 83.668C78.6944 83.668 71.3743 90.9881 71.3743 100.018C71.3743 109.048 78.6944 116.368 87.7242 116.368Z" fill="#47464D"/>
</g>
<defs>
<clipPath id="clip0_49_37">
<rect width="175.52" height="200" fill="white"/>
</clipPath>
</defs>
</svg>
