<svg width="381" height="381" viewBox="0 0 381 381" fill="none" xmlns="http://www.w3.org/2000/svg">
<path d="M0 381V0H381V32.004L357.759 52.959L339.09 83.058L257.175 57.531L222.885 40.767L208.026 36.576L167.259 24.765L155.829 26.289L139.446 22.86L140.97 18.669L137.922 21.717L128.778 20.574L118.491 27.051L115.443 20.574L116.967 28.575L112.395 31.242L103.632 42.291L102.108 57.15L107.061 69.723L124.968 95.25L129.921 95.631L149.733 81.534L152.781 85.725L151.638 90.678V94.488L145.161 99.06L145.923 103.251L136.779 111.252L135.255 125.349L128.016 152.4L126.873 174.117L134.874 172.593L133.35 179.832L134.493 191.262L129.159 196.215L128.016 203.073L124.206 203.454L124.587 209.55L118.872 213.36L116.586 221.361L110.109 212.598L107.061 230.505L108.585 227.457L109.728 230.505L110.871 222.123L111.252 240.411L108.966 236.982L113.538 247.65H109.728L110.109 263.652L110.49 273.939L100.584 295.275L83.439 323.85L86.487 328.422L83.058 335.28L85.725 344.043L83.82 349.758L118.872 381H0Z" fill="#47464D"/>
<path d="M118.491 27.0509L128.778 20.5739L137.922 21.7169L140.97 18.6689L139.446 22.8599L155.829 26.2889L153.543 27.8129L158.115 35.4329L160.782 45.339L158.115 47.625L165.354 44.577L169.164 47.2439L171.831 36.5759L181.356 40.7669L190.119 52.959L199.263 54.102L204.216 49.911L197.358 57.15L169.926 76.2L155.829 88.392L154.305 92.964L151.638 90.678L152.781 85.725L149.733 81.534L129.921 95.631L124.968 95.25L107.061 69.723L102.108 57.15H102.87L113.919 78.867L116.967 80.391L121.158 74.676L123.444 76.581L124.968 83.058L121.92 87.249L125.73 94.488L130.683 93.726L128.778 89.916L133.35 83.439L140.208 82.677L138.684 80.772L143.256 76.581L149.352 78.867L147.828 67.818H145.542L145.161 67.056L140.97 58.674L146.685 51.054L146.304 48.387L144.018 49.149L143.256 51.054L138.684 46.482L147.828 42.2909L152.019 36.5759L139.446 38.4809L136.017 43.0529L137.541 44.958L131.064 50.673L134.112 49.911L134.493 58.674L130.683 57.15L129.54 59.817H128.016V55.245L126.111 57.531L123.444 52.578L122.301 48.768L125.349 45.7199L122.301 40.0049L124.968 35.8139L120.015 32.3849L118.491 27.0509Z" fill="#2C271C"/>
<path d="M112.395 31.242L116.967 28.575L115.443 20.574L118.491 27.051L120.015 32.385L124.968 35.814L122.301 40.005L125.349 45.72L122.301 48.768L123.444 52.578L113.157 44.196L110.871 39.624L112.395 31.242ZM155.829 26.289L167.259 24.765L208.026 36.576L206.883 45.72L171.831 36.195L173.355 30.861L169.545 35.052L158.115 35.433L153.543 27.813L155.829 26.289Z" fill="#2C271C"/>
<path d="M158.115 35.433L169.545 35.052L173.355 30.861L171.831 36.195V36.576L169.164 47.244L165.354 44.577L158.115 47.625L160.782 45.339L158.115 35.433Z" fill="#E36830"/>
<path d="M102.108 57.1499L103.632 42.2909L112.395 31.2419L110.871 39.6239L113.157 44.1959L104.013 43.4339L102.87 57.1499H102.108Z" fill="#F7AA7C"/>
<path d="M222.885 40.767L257.175 57.531L339.09 83.058L357.759 52.959L381 32.004V36.195L361.569 55.626L344.043 84.582L356.235 86.868L381 78.486V82.677L362.331 89.154L381 91.44V98.298L348.996 94.107L338.328 99.441L320.04 146.685L300.609 175.641L320.04 169.926L338.709 158.877L381 118.11V126.873L349.758 158.115L331.47 171.45L312.039 179.832L291.846 182.88L276.606 194.31L257.556 200.025L249.174 200.406L250.698 196.977H248.412L248.793 202.311L247.269 201.93L240.792 198.12L246.507 190.5L248.793 189.357L254.889 188.595V192.405H259.842L266.7 182.499L255.27 179.832L254.889 181.737L245.364 178.308V172.974L250.317 171.45L251.841 167.259L260.604 160.401L254.127 166.878L254.508 172.974L270.891 175.641L300.228 126.873L333.375 97.917L336.042 89.916L250.698 62.484L219.837 48.387L222.885 40.767Z" fill="#2C271C"/>
<path d="M171.831 36.1949L206.883 45.7199L208.788 46.4819L204.216 49.9109L199.263 54.1019L190.119 52.9589L181.356 40.7669L171.831 36.5759V36.1949ZM134.112 49.9109L131.064 50.6729L137.541 44.9579L136.017 43.0529L139.446 38.4809L152.019 36.5759L147.828 42.2909L138.684 46.4819L134.112 49.9109ZM381 78.486L356.235 86.868L344.043 84.582L361.569 55.6259L381 36.1949V78.486Z" fill="#47464D"/>
<path d="M206.883 45.72L208.026 36.576L222.885 40.767L219.837 48.3871L213.741 47.2441L213.36 57.1501H201.168H199.644H197.358L204.216 49.911L208.788 46.482L206.883 45.72Z" fill="#E36830"/>
<path d="M102.87 57.15L104.013 43.434L113.157 44.196L123.444 52.578L126.111 57.531L128.016 55.245V59.817L126.873 71.628L133.35 83.439L128.778 89.916L130.683 93.726L125.73 94.488L121.92 87.249L124.968 83.058L123.444 76.581L121.158 74.676L116.967 80.391L113.919 78.867L102.87 57.15Z" fill="#F5DCCE"/>
<path d="M134.112 49.9111L138.684 46.4821L143.256 51.0541L144.018 49.1491L146.685 51.0541L140.97 58.6741L145.161 67.0561L133.35 73.9141L132.588 73.5331L132.969 64.0081L128.778 63.6271L129.54 59.8171L130.683 57.1501L134.493 58.6741L134.112 49.9111Z" fill="#E36830"/>
<path d="M213.36 57.15L213.741 47.244L219.837 48.387L250.698 62.484L336.042 89.916L333.375 97.917L300.228 126.873L270.891 175.641L254.508 172.974L254.127 166.878L260.604 160.401L249.936 156.21L251.079 153.924L245.745 147.447L247.65 143.637L236.982 120.777L228.6 84.963L215.265 62.103L213.36 57.15Z" fill="#47464D"/>
<path d="M144.018 49.149L146.304 48.387L146.685 51.054L144.018 49.149Z" fill="#F7AA7C"/>
<path d="M174.498 50.673L179.451 51.816L177.165 56.769H173.355L174.498 50.673Z" fill="#E36830"/>
<path d="M154.305 92.964L155.829 88.392L169.926 76.2L197.358 57.15H199.644L178.689 75.438H184.404L174.498 78.867L172.593 78.486L174.498 75.057L166.497 83.058L163.068 85.725L157.734 88.392L156.591 93.726L156.21 90.678L144.018 108.585L146.685 108.966L153.162 99.06L153.924 103.251L151.638 107.823L153.543 110.871L151.257 110.49L153.543 112.014H150.495L153.543 113.538L150.114 113.157L153.543 114.681L148.59 113.919L153.543 115.443H147.447L153.924 116.967L141.732 114.681L145.161 113.157L141.732 112.395L142.875 108.204L138.684 113.157V116.205L151.257 119.634L138.684 116.967L137.541 112.014L154.305 92.964Z" fill="#E36830"/>
<path d="M166.497 83.058L174.498 75.057L172.593 78.486L174.498 78.867L184.404 75.438H178.689L199.644 57.15H201.168L196.596 62.484L198.12 64.77L200.406 62.865L203.073 67.818L207.645 62.865L208.026 68.961L204.978 75.057L200.025 72.009L197.358 73.533L206.502 80.772L202.692 83.82L199.263 86.487L200.406 83.058L192.024 77.724L199.644 82.677L196.977 75.438L185.166 77.724L198.882 86.106L196.977 88.392L200.787 93.726L198.12 96.012L190.119 94.488L188.214 92.964L191.262 91.821L188.976 91.059L191.262 86.487L185.166 84.201L178.308 81.534L176.784 84.963L166.497 83.058Z" fill="#2C271C"/>
<path d="M208.026 68.961L207.645 62.865L203.073 67.818L200.406 62.865L198.12 64.77L196.596 62.484L201.168 57.15H213.36L215.265 62.103L208.026 68.961Z" fill="#F7AA7C"/>
<path d="M129.54 59.817L128.778 63.627L128.397 73.533L131.445 68.199L128.778 74.295L130.302 76.581L132.588 73.533L133.35 73.914L132.207 79.629L145.542 67.818H147.828L149.352 78.867L143.256 76.581L138.684 80.772L140.208 82.677L133.35 83.439L126.873 71.628L128.016 59.817H129.54ZM208.026 68.961L215.265 62.103L228.6 84.963L236.982 120.777L247.65 143.637L245.745 147.447L251.079 153.924L249.936 156.21L250.317 161.925L244.602 163.068L241.173 160.02L239.268 155.448L241.935 149.733L237.363 145.923L236.601 134.874L232.41 134.493L227.838 125.349L229.362 115.443L216.027 112.395L220.218 102.108L215.646 92.202L220.98 97.155L215.646 86.487L207.645 81.153L212.217 87.63L208.407 89.535L202.692 83.82L206.502 80.772L204.978 75.057L208.026 68.961Z" fill="#2C271C"/>
<path d="M132.588 73.533L130.302 76.581L128.778 74.295L131.445 68.199L128.397 73.533L128.778 63.627L132.969 64.008L132.588 73.533ZM133.35 73.914L145.161 67.056L145.542 67.818L132.207 79.629L133.35 73.914ZM206.502 80.772L197.358 73.533L200.025 72.009L204.978 75.057L206.502 80.772ZM198.882 86.106L185.166 77.724L196.977 75.438L199.644 82.677L192.024 77.724L200.406 83.058L199.263 86.487L198.882 86.106ZM212.217 87.63L207.645 81.153L215.646 86.487L220.98 97.155L215.646 92.202L212.217 87.63ZM176.784 84.963L178.308 81.534L185.166 84.201H182.499L185.547 86.868L184.404 91.44L183.642 94.869L180.975 94.488L183.642 95.25L178.689 106.299L181.356 110.109L177.927 109.728L176.784 120.396L168.783 121.92L169.164 118.491L164.973 119.634L168.783 115.824L164.211 116.205L169.164 114.3H164.211L169.164 112.776H164.211L169.545 111.252L164.211 111.633L169.545 109.728L164.592 110.109L169.926 108.585L164.592 108.204L170.307 107.442L164.592 107.823L170.307 106.299L164.973 105.156L170.688 104.775L164.973 103.632L171.069 102.87L161.544 103.251L171.45 101.727H161.544L172.212 100.203L165.735 99.06L172.593 98.298L165.735 97.917L173.355 97.155L166.116 96.774L173.736 96.012L166.497 95.25L173.736 93.345L166.878 93.726L174.879 92.583L167.64 90.678H174.879L168.021 89.535L175.641 89.916L168.783 88.011L176.403 87.63L169.926 85.725L176.784 84.963ZM381 91.44L362.331 89.154L381 82.677V91.44Z" fill="#2C271C"/>
<path d="M163.068 85.725L166.497 83.058L176.784 84.963L169.926 85.725L176.403 87.63L168.783 88.011L175.641 89.916L168.021 89.535L174.879 90.678H167.64L174.879 92.583L166.878 93.726L160.782 89.154L163.068 85.725Z" fill="#2C271C"/>
<path d="M199.263 86.4869L202.692 83.8199L208.407 89.5349L209.931 91.4399L207.645 93.7259L211.455 102.87L206.883 93.3449L203.835 94.1069L199.263 86.4869Z" fill="#F7AA7C"/>
<path d="M184.404 91.4401L185.547 86.868L182.499 84.201H185.166L191.262 86.487L188.976 91.0591L191.262 91.8211L188.214 92.9641L184.404 91.4401Z" fill="#2C271C"/>
<path d="M153.924 103.251L153.162 99.06L146.685 108.966L144.018 108.585L156.21 90.678L156.591 93.726L157.734 88.392L163.068 85.725L160.782 89.154L166.878 93.726L173.736 93.345L166.497 95.25L173.736 96.012L166.116 96.774L173.355 97.155L165.735 97.917L172.593 98.298L165.735 99.06L172.212 100.203L161.544 101.727H171.45L161.544 103.251H158.115L157.734 110.49L158.115 92.583L154.305 104.013L153.924 103.251Z" fill="#2C271C"/>
<path d="M190.119 94.488L198.12 96.012L200.787 93.726L196.977 88.392L198.882 86.106L199.263 86.487L203.835 94.107L209.169 104.394V105.918L201.549 129.159L196.977 127.635L199.644 129.54L198.12 138.684H195.453L196.977 145.542L203.454 142.875L202.692 139.065L206.502 140.589L207.264 136.017L203.073 129.159L205.74 124.587L203.454 124.206L210.693 106.299L207.264 124.968L211.074 124.206L212.217 126.873L214.122 123.825L220.599 124.587L218.313 136.017L219.837 131.064L230.505 134.874L226.314 135.636L225.933 138.684L228.981 139.446L225.552 140.589L228.219 142.113L225.552 143.637L228.6 144.018H225.552L228.219 145.161L225.552 146.685L229.743 157.734L234.315 158.115L230.886 158.877L236.22 164.211L232.791 169.164L229.362 167.259L228.981 171.069L220.98 154.305L216.789 131.445L207.264 150.495L199.644 148.209L195.453 153.162L201.93 166.497L202.692 157.353L206.121 156.972L217.932 177.546L232.41 186.69L231.648 191.643L213.741 179.451L205.359 163.83L204.978 171.069L209.169 190.119L214.503 199.644L232.791 201.168L233.934 204.978L221.742 206.121L233.934 210.312L236.22 207.645L238.506 212.979L238.125 214.122L235.458 218.694V213.741L195.453 198.882L196.215 195.834L211.455 200.406L206.121 190.119L202.692 166.878L197.739 168.402L200.406 174.498L195.834 176.022L201.168 190.5L196.596 191.262L196.977 188.976L195.072 190.5L191.643 187.071L188.976 184.785L184.785 183.642H189.738L185.166 182.88L189.357 182.118L185.928 181.737L186.69 172.212L173.736 172.593L177.927 174.498L172.593 175.26L176.784 176.022L173.736 178.308H168.402L168.783 172.974L164.592 173.736L164.211 184.023L160.782 184.785L163.068 192.405L158.496 195.834L162.306 205.74L161.925 206.121L158.115 200.787L157.734 209.55L155.829 208.026L156.972 200.025L153.543 202.692L155.067 208.407L155.829 211.836L153.162 205.74L147.066 209.931L140.208 205.74L139.446 209.55L134.112 212.598L136.398 221.742L124.968 216.408L121.92 217.932L128.016 223.647L123.444 222.504L122.301 219.456L120.777 224.028L120.015 221.742L116.586 221.361L118.872 213.36L124.587 209.55L124.206 203.454L128.016 203.073L129.159 196.215L134.493 191.262L133.35 179.832L134.493 178.689L136.779 186.309L137.922 178.308L140.589 176.403L148.209 179.07L153.924 169.926L141.732 168.402L131.064 163.068L129.159 154.686H131.826L144.78 161.163L160.02 158.496L162.306 161.163L168.402 159.258H164.973L165.735 150.114H161.925L165.354 148.971L165.735 139.065L162.306 139.446L164.592 138.303L163.83 126.873L158.877 127.635L160.782 122.682L157.734 110.49L158.115 103.251H161.544L171.069 102.87L164.973 103.632L170.688 104.775L164.973 105.156L170.307 106.299L164.592 107.823L170.307 107.442L164.592 108.204L169.926 108.585L164.592 110.109L169.545 109.728L164.211 111.633L169.545 111.252L164.211 112.776H169.164L164.211 114.3H169.164L164.211 116.205L168.783 115.824L164.973 119.634L169.164 118.491L168.783 121.92L176.784 120.396L177.927 121.92L169.926 125.73L174.117 126.873L169.926 129.159L172.974 129.54L172.593 132.588L169.164 132.969L172.974 133.731L169.164 134.874L188.976 133.35L183.642 132.207L186.309 130.302L193.167 121.92L192.405 114.681L183.261 109.728L190.5 108.966L188.976 105.156L191.262 103.251L186.309 102.489L190.119 94.488Z" fill="#2C271C"/>
<path d="M208.407 89.535L212.217 87.63L215.646 92.202L220.218 102.108L216.027 112.395L229.362 115.443L227.838 125.349L232.41 134.493L230.505 134.874L219.837 131.064L218.313 136.017L220.599 124.587L214.122 123.825L216.027 113.157L212.217 113.919L213.36 104.013L209.169 105.918V104.394L216.027 99.441L209.931 91.44L208.407 89.535Z" fill="#2C271C"/>
<path d="M135.255 125.349L136.779 111.252L145.923 103.251L145.161 99.06L151.638 94.488V90.678L154.305 92.964L137.541 112.014L138.684 116.967L151.257 119.634L138.684 116.205V113.157L142.875 108.204L141.732 112.395L145.161 113.157L141.732 114.681L153.924 116.967L147.447 115.443H153.543L148.59 113.919L153.543 114.681L150.114 113.157L153.543 113.538L150.495 112.014H153.543L151.257 110.49L153.543 110.871L151.638 107.823L153.924 103.251L154.305 104.013L156.972 127.635L156.21 128.016L155.829 126.492L149.733 125.73L155.829 124.968L150.114 124.587L155.448 123.825L150.114 123.063L154.305 120.396L138.684 117.348L136.398 119.634L136.017 125.349L141.732 128.397L143.256 129.54L135.636 126.111L135.255 125.349Z" fill="#2C271C"/>
<path d="M203.835 94.1069L206.883 93.3449L211.455 102.87L207.645 93.7259L209.931 91.4399L216.027 99.4409L209.169 104.394L203.835 94.1069Z" fill="#F5DCCE"/>
<path d="M176.784 120.396L177.927 109.728L181.356 110.109L178.689 106.299L183.642 95.2499L180.975 94.4879L183.642 94.8689L184.404 91.4399L188.214 92.9639L190.119 94.4879L186.309 102.489L191.262 103.251L188.976 105.156L190.5 108.966L183.261 109.728L192.405 114.681L193.167 121.92L186.309 130.302L184.404 130.683L185.547 120.777L177.927 121.92L176.784 120.396Z" fill="#E36830"/>
<path d="M154.305 104.013L158.115 92.583L157.734 110.49L160.782 122.682L158.877 127.635H156.972L154.305 104.013ZM381 118.11L338.709 158.877L320.04 169.926L300.609 175.641L320.04 146.685L338.328 99.441L348.996 94.107L381 98.298V118.11ZM209.169 105.918L213.36 104.013L212.217 113.919L207.264 124.968L210.693 106.299L203.454 124.206L202.311 129.54H199.644L196.977 127.635L201.549 129.159L209.169 105.918ZM329.565 105.156L318.516 138.303L304.8 163.83L292.227 176.403L274.701 176.022L301.371 131.445L329.565 105.156Z" fill="#47464D"/>
<path d="M212.217 113.919L216.027 113.157L214.122 123.825L212.217 126.873L211.074 124.206L207.264 124.968L212.217 113.919Z" fill="#E36830"/>
<path d="M136.398 119.634L138.684 117.348L154.305 120.396L150.114 123.063L155.448 123.825L150.114 124.587L155.829 124.968L149.733 125.73L155.829 126.492L147.066 127.254L137.922 120.396L142.113 120.015L136.398 119.634Z" fill="#F5DCCE"/>
<path d="M136.398 119.634L142.113 120.015L137.922 120.396L147.066 127.254L155.829 126.492L156.21 128.016L141.732 128.397L136.017 125.349L136.398 119.634Z" fill="#2C271C"/>
<path d="M177.927 121.92L185.547 120.777L184.404 130.683L186.309 130.302L183.642 132.207L188.976 133.35L169.164 134.874L172.974 133.731L169.164 132.969L172.593 132.588L172.974 129.54L169.926 129.159L174.117 126.873L169.926 125.73L177.927 121.92Z" fill="#F7AA7C"/>
<path d="M199.644 129.54H202.311L203.454 124.206L205.74 124.587L203.073 129.159L207.264 136.017L206.502 140.589L202.692 139.065L203.454 142.875L196.977 145.542L195.453 138.684H198.12L199.644 129.54ZM128.016 152.4L135.255 125.349L135.636 126.111L140.97 131.445L136.017 128.778L141.351 132.969L139.065 133.731L138.303 136.017L142.494 138.303L134.874 134.874L131.064 139.065L132.207 144.78L142.875 150.114L150.114 152.781L161.163 150.495L161.925 150.114H165.735L164.973 159.258H168.402L162.306 161.163L160.02 158.496L144.78 161.163L131.826 154.686L128.016 152.4Z" fill="#E36830"/>
<path d="M139.065 133.731L141.351 132.969L136.017 128.778L140.97 131.445L135.636 126.111L143.256 129.54L156.21 131.445L151.257 132.588L158.877 131.445L151.257 133.35L158.877 132.969L151.638 134.493L158.115 135.255L151.257 135.636L158.496 136.779L150.876 137.541L158.877 137.922H150.114L158.496 139.827L150.495 139.065L139.065 133.731Z" fill="#F7AA7C"/>
<path d="M158.877 127.635L163.83 126.873L164.592 138.303L162.306 139.446L165.735 139.065L165.354 148.971L161.925 150.114L161.163 150.495L161.925 144.399L159.258 146.304L138.303 139.827L134.874 134.874L142.494 138.303L150.495 139.065L158.496 139.827L150.114 137.922H158.877L150.876 137.541L158.496 136.779L151.257 135.636L158.115 135.255L151.638 134.493L158.877 132.969L151.257 133.35L158.877 131.445L151.257 132.588L156.21 131.445L143.256 129.54L141.732 128.397L156.21 128.016L156.972 127.635H158.877Z" fill="#F7AA7C"/>
<path d="M257.556 200.025L276.606 194.31L291.846 182.88L312.039 179.832L331.47 171.45L349.758 158.115L381 126.873V174.117L336.804 187.071L270.891 211.455L256.794 212.979L255.651 208.026L254.889 201.168L257.556 200.025ZM207.264 150.495L216.789 131.445L220.98 154.305L228.981 171.069L232.41 186.69L217.932 177.546L206.121 156.972L207.264 150.495Z" fill="#47464D"/>
<path d="M142.494 138.303L138.303 136.017L139.065 133.731L150.495 139.065L142.494 138.303Z" fill="#2C271C"/>
<path d="M232.41 134.493L236.601 134.874L237.363 145.923L241.935 149.733L239.268 155.448L241.173 160.02L244.602 163.068L250.317 161.925L249.936 156.21L260.604 160.401L251.841 167.259L236.22 164.211L230.886 158.877L234.315 158.115L229.743 157.734L225.552 146.685L228.219 145.161L225.552 144.018H228.6L225.552 143.637L228.219 142.113L225.552 140.589L228.981 139.446L225.933 138.684L226.314 135.636L230.505 134.874L232.41 134.493Z" fill="#E36830"/>
<path d="M142.875 150.114L132.207 144.78L131.064 139.065L134.874 134.874L138.303 139.827L159.258 146.304L151.257 147.447L158.496 149.733L150.876 148.59L158.877 150.876L147.828 149.733L138.684 145.542L133.731 137.922L139.446 140.97L132.969 137.541V144.018L142.875 150.114ZM182.499 136.017H185.166L184.785 142.113L187.071 141.732L183.642 144.78H187.833L174.498 147.447L170.307 144.78L174.117 142.875L170.307 142.113L174.879 141.732L170.307 141.351L175.26 140.208L173.736 138.303L182.499 136.017Z" fill="#F7AA7C"/>
<path d="M142.875 150.114L132.969 144.018V137.541L139.446 140.97L133.731 137.922L138.684 145.542L147.828 149.733L158.877 150.876L150.876 148.59L158.496 149.733L151.257 147.447L159.258 146.304L161.925 144.399L161.163 150.495L150.114 152.781L142.875 150.114Z" fill="#2C271C"/>
<path d="M179.451 148.209L185.547 148.59L184.404 155.067L188.976 155.448L172.974 158.877L175.641 157.353L171.45 156.21L175.641 155.829L174.498 150.876L179.451 150.114L175.26 148.59L179.451 148.209Z" fill="#E36830"/>
<path d="M206.121 156.972L202.692 157.353L201.93 166.497L195.453 153.162L199.644 148.209L207.264 150.495L206.121 156.972Z" fill="#2C271C"/>
<path d="M145.542 152.019L155.448 155.067L149.352 155.829L157.353 156.21L148.59 156.972L156.21 157.734L148.209 158.115L155.067 159.639L142.113 157.734L135.255 152.4L145.542 152.019Z" fill="#F7AA7C"/>
<path d="M133.35 179.832L134.874 172.593L126.873 174.117L128.016 152.4L131.826 154.686H129.159L131.064 163.068L141.732 168.402L153.924 169.926L148.209 179.07L140.589 176.403L137.922 178.308L136.398 171.831L134.493 178.689L133.35 179.832Z" fill="#2C271C"/>
<path d="M131.826 158.496L155.067 163.83L148.209 165.735L152.019 166.878L143.637 166.497L131.826 158.496ZM181.356 159.258L185.547 160.02L184.785 169.164L189.738 169.545L184.785 170.688L190.119 171.069L172.212 170.307L176.403 168.402L172.974 167.259H176.784L172.593 164.592L177.546 164.973L172.974 163.83L178.308 162.687L174.498 161.544L181.356 159.258ZM163.83 161.163L168.402 162.687L168.021 172.212L162.687 173.355L163.83 161.163ZM232.791 201.168L214.503 199.644L209.169 190.119L204.978 171.069L205.359 163.83L213.741 179.451L231.648 191.643L234.696 195.834L232.791 201.168Z" fill="#E1652C"/>
<path d="M228.981 171.069L229.362 167.259L232.791 169.164L236.22 164.211L251.841 167.259L250.317 171.45L245.364 172.974V178.308L254.889 181.737V188.595L248.793 189.357L243.84 177.927L233.172 172.593L241.935 180.975L246.507 190.5L240.792 198.12L234.696 195.834L231.648 191.643L232.41 186.69L228.981 171.069Z" fill="#2C271C"/>
<path fill-rule="evenodd" clip-rule="evenodd" d="M196.596 191.262L201.168 190.5L195.834 176.022L200.406 174.498L197.739 168.402L202.692 166.878L206.121 190.119L211.455 200.406L196.215 195.834L196.596 191.262ZM173.736 178.308L176.784 176.022L172.593 175.26L177.927 174.498L173.736 172.593L186.69 172.212L185.928 181.737L189.357 182.118L185.166 182.88L189.738 183.642H184.785L188.976 184.785L173.355 182.499L175.641 182.118L172.593 180.594L175.26 180.213L173.736 178.308ZM134.493 178.689L136.398 171.831L137.922 178.308L136.779 186.309L134.493 178.689ZM231.648 172.212L236.982 179.07L230.505 178.308L231.648 172.212ZM246.507 190.5L241.935 180.975L233.172 172.593L243.84 177.927L248.793 189.357L246.507 190.5ZM164.211 184.023L164.592 173.736L168.783 172.974L168.402 178.308L168.021 184.023H164.211Z" fill="#F5DCCE"/>
<path d="M255.651 208.026L256.794 212.979L270.891 211.455L336.804 187.071L381 174.117V178.308L273.177 214.503L257.175 216.408L259.08 225.552L256.413 224.409V230.505L249.555 228.6L248.031 219.837L249.174 218.694L252.984 217.932L249.936 209.55L255.651 208.026Z" fill="#2C271C"/>
<path d="M168.402 178.308H173.736L175.26 180.213L172.593 180.594L175.641 182.118L173.355 182.499L188.976 184.785L191.643 187.071L179.07 195.453L180.213 200.025L177.927 199.644L169.164 194.691L164.211 187.452L163.83 192.786L167.64 198.501L163.068 192.405L160.782 184.785L164.211 184.023H168.021L168.402 178.308Z" fill="#2C271C"/>
<path fill-rule="evenodd" clip-rule="evenodd" d="M256.413 230.505V224.409L259.08 225.552L257.175 216.408L273.177 214.503L381 178.308V222.885L339.09 235.839L307.848 240.792L269.748 239.649L256.413 237.363L256.032 233.553L256.413 230.505ZM232.029 179.832L239.268 180.594L236.601 182.88L239.649 183.642H237.363L239.268 185.928L234.315 185.166L232.029 179.832ZM254.889 181.737L255.27 179.832L266.7 182.499L259.842 192.405H254.889V181.737ZM270.51 182.499L283.845 183.261L276.225 188.976L263.652 192.405L270.51 182.499Z" fill="#47464D"/>
<path d="M180.213 200.025L179.07 195.453L191.643 187.071L195.072 190.5L196.977 188.976L196.596 191.262L196.215 195.834L195.453 198.882L193.167 200.787L201.168 214.503L186.69 212.598V212.217L180.213 200.025Z" fill="#E36830"/>
<path d="M163.068 192.405L167.64 198.501L163.83 192.786L164.211 187.452L169.164 194.691L177.927 199.644L176.022 204.597L179.07 209.931L179.451 212.979L175.641 211.074L163.068 203.073L177.927 216.789L169.545 213.741L162.306 205.74L158.496 195.834L163.068 192.405Z" fill="#F5DCCE"/>
<path d="M232.791 201.168L234.696 195.834L240.792 198.12L247.269 201.93L240.792 203.454L244.221 207.264L240.03 209.169L242.697 212.979H238.506L236.22 207.645L233.934 210.312L221.742 206.121L233.934 204.978L232.791 201.168ZM248.793 202.311L248.412 196.977H250.698L249.174 200.406L257.556 200.025L254.889 201.168L255.651 208.026L249.936 209.55L252.984 217.932L249.174 218.694L248.793 202.311Z" fill="#F7AA7C"/>
<path d="M186.69 212.598L201.168 214.503L193.167 200.787L195.453 198.882L235.458 213.741V218.694L235.839 224.409L226.695 230.505L195.453 220.98L185.166 216.027L186.69 212.598Z" fill="#47464D"/>
<path d="M179.07 209.931L176.022 204.597L177.927 199.644L180.213 200.025L186.69 212.217L181.356 214.884L179.07 209.931Z" fill="#F7AA7C"/>
<path d="M155.067 208.407L153.543 202.692L156.972 200.025L155.829 208.026L155.067 208.407ZM157.734 209.55L158.115 200.787L161.925 206.121L162.306 207.264L154.305 225.171L143.256 243.84L144.78 247.65H142.875L136.779 246.126L144.018 236.22L141.732 235.458L157.734 209.55Z" fill="#E36830"/>
<path d="M238.506 212.979H242.697L240.03 209.169L244.221 207.264L240.792 203.454L247.269 201.93L248.793 202.311L249.174 218.694L248.031 219.837L238.125 214.122L238.506 212.979Z" fill="#2C271C"/>
<path d="M177.927 216.789L163.068 203.073L175.641 211.074L177.927 216.789Z" fill="#E36830"/>
<path d="M136.398 221.742L134.112 212.598L139.446 209.55L140.208 205.74L147.066 209.931L153.162 205.74L155.829 211.836L155.067 208.407L155.829 208.026L157.734 209.55L141.732 235.458L133.731 244.983L136.779 246.126L142.875 247.65L142.494 257.175L146.685 256.413L141.732 259.461H145.923L139.065 265.557L133.731 264.033L133.35 257.937L130.302 256.794L132.588 249.555L129.921 245.364L121.92 241.173L123.444 247.65H113.538L108.966 236.982L111.252 240.411L110.871 222.123L109.728 230.505L108.585 227.457L107.061 230.505L110.109 212.598L116.586 221.361L120.015 221.742L120.396 228.219L123.444 222.504L128.016 223.647L134.112 225.552L136.398 221.742ZM161.925 206.121L162.306 205.74L169.545 213.741L177.927 216.789L175.641 211.074L179.451 212.979L179.07 209.931L181.356 214.884V216.408L179.07 217.551L182.88 224.409L187.833 222.123H188.976L190.119 224.79L189.738 228.6L177.165 236.601L171.069 232.41L160.02 235.839L162.306 249.555H166.497L156.972 259.461L152.4 263.271V269.748L149.733 272.415L150.114 266.7L147.066 268.986L150.114 265.176V254.508L151.638 251.46L152.019 256.032L155.067 252.984H152.4L155.067 239.268L152.781 234.315L144.399 242.697L144.78 247.65L143.256 243.84L154.305 225.171L162.306 224.028L161.163 222.123L166.497 216.789L169.545 218.694L168.021 216.789L170.688 215.265L162.306 207.264L161.925 206.121Z" fill="#2C271C"/>
<path d="M154.305 225.171L162.306 207.264L170.688 215.265L168.021 216.789L169.545 218.694L166.497 216.789L161.163 222.123L162.306 224.028L154.305 225.171Z" fill="#2C271C"/>
<path d="M148.59 209.931L151.257 214.884L147.828 218.694L145.923 212.979L148.59 209.931Z" fill="#E36830"/>
<path d="M181.356 214.884L186.69 212.217V212.598L185.166 216.027L195.453 220.98L226.695 230.505L235.839 224.409L246.126 230.886L244.602 236.601L246.888 238.887L256.032 233.553L256.413 237.363L269.748 239.649L307.848 240.792L339.09 235.839L381 222.885V227.457L344.043 239.268L310.896 244.983L283.083 245.364L255.27 241.554L252.222 254.508L246.888 259.08L227.838 251.46L225.933 234.315L188.976 222.123H187.833L181.356 216.408V214.884Z" fill="#2C271C"/>
<path d="M235.458 218.694L238.125 214.122L248.031 219.837L249.555 228.6L246.126 230.886L235.839 224.409L235.458 218.694Z" fill="#E36830"/>
<path d="M187.833 222.123L182.88 224.409L179.07 217.551L181.356 216.408L187.833 222.123Z" fill="#47464D"/>
<path d="M128.016 223.647L121.92 217.932L124.968 216.408L136.398 221.742L134.112 225.552L128.016 223.647Z" fill="#F7AA7C"/>
<path d="M176.403 217.932L180.975 225.171L175.26 227.838L173.355 222.123L176.403 217.932ZM120.015 221.742L120.777 224.028L122.301 219.456L123.444 222.504L120.396 228.219L120.015 221.742ZM141.351 219.456L143.637 227.838L140.208 229.743L137.922 224.028L141.351 219.456ZM188.976 222.123L225.933 234.315L227.838 251.46L246.888 259.08L252.222 254.508L255.27 241.554L283.083 245.364L310.896 244.983L344.043 239.268L381 227.457V381H196.596L184.785 357.759L185.166 346.71L174.498 336.804L175.641 331.47L173.355 332.613L171.45 324.231L173.736 321.564L171.45 316.611L173.736 313.182L172.593 305.181L181.737 327.66L195.072 346.71L207.645 358.521L216.789 358.902L201.168 350.52L180.975 321.183L169.926 286.131L173.355 280.416L172.593 262.89L191.262 287.655L209.169 298.323L224.028 327.66L250.317 360.426L274.32 375.666L294.894 379.095L290.322 377.571L294.894 376.428L278.892 374.523L260.604 364.236L232.41 334.518L214.503 300.609L247.65 316.992L261.747 328.422L267.843 338.328L264.795 331.47L269.748 337.947L267.081 332.994L272.415 334.899L245.364 311.658L210.693 294.894L187.833 231.648L191.262 228.219L190.119 224.79L188.976 222.123ZM136.779 224.028L140.208 231.648L136.398 232.791L134.493 229.362L136.779 224.028Z" fill="#47464D"/>
<path d="M156.972 259.461L166.497 249.555H162.306L160.02 235.839L171.069 232.41L177.165 236.601L189.738 228.6L190.119 224.79L191.262 228.219L187.833 231.648L210.693 294.894L245.364 311.658L272.415 334.899L267.081 332.994L269.748 337.947L264.795 331.47L267.843 338.328L261.747 328.422L247.65 316.992L214.503 300.609L232.41 334.518L260.604 364.236L278.892 374.523L294.894 376.428L290.322 377.571L294.894 379.095L274.32 375.666L250.317 360.426L224.028 327.66L209.169 298.323L191.262 287.655L172.593 262.89L173.355 280.416L169.926 286.131L180.975 321.183L201.168 350.52L216.789 358.902L207.645 358.521L195.072 346.71L181.737 327.66L172.593 305.181L173.736 313.182L171.45 316.611L173.736 321.564L171.45 324.231L173.355 332.613L175.641 331.47L174.498 336.804L171.831 348.996L163.83 356.235L158.496 356.616L161.925 356.235L156.972 353.568L158.877 346.71L166.497 342.519H162.687L165.354 340.233L160.02 334.899L164.592 334.137L165.354 322.707L161.925 314.706L162.687 289.941L165.354 282.321L163.068 275.844L159.258 275.082L158.496 274.32L153.924 275.463L161.163 270.891L155.448 272.034L159.639 268.224L155.829 268.605L158.877 266.7L156.591 266.319L160.401 264.414L156.21 263.652L159.639 260.604L155.067 261.747L156.972 259.461Z" fill="#2C271C"/>
<path d="M246.126 230.886L249.555 228.6L256.413 230.505L256.032 233.553L246.888 238.887L244.602 236.601L246.126 230.886Z" fill="#2C271C"/>
<path d="M144.78 247.65L144.399 242.697L152.781 234.315L155.067 239.268L152.4 252.984H155.067L152.019 256.032L151.638 251.46L150.114 254.508L149.352 249.555L142.494 257.175L142.875 247.65H144.78Z" fill="#E36830"/>
<path d="M185.547 233.934L206.502 292.608L186.69 278.13L173.736 258.318L177.165 254.889L175.641 244.983L185.547 233.934Z" fill="#47464D"/>
<path d="M136.779 246.126L133.731 244.983L141.732 235.458L144.018 236.22L136.779 246.126Z" fill="#F7AA7C"/>
<path d="M112.776 237.744L118.11 239.649V243.459L114.3 246.126L112.776 237.744Z" fill="#47464D"/>
<path d="M113.538 247.65H123.444L121.92 241.173L129.921 245.364L132.588 249.555L130.302 256.794L133.35 257.937L133.731 264.033L139.065 265.557L143.637 264.033L140.208 268.224L144.018 266.319L140.208 272.415L144.399 270.129L139.827 276.225L144.78 274.32L141.732 276.225L130.302 278.511L134.112 295.275H130.683L124.968 277.368L121.158 274.32L123.444 264.795L110.109 263.652L109.728 247.65H113.538Z" fill="#2C271C"/>
<path d="M142.494 257.175L149.352 249.555L150.114 254.508V265.176L147.066 268.986L150.114 266.7L149.733 272.415L149.352 274.32H144.78L139.827 276.225L144.399 270.129L140.208 272.415L144.018 266.319L140.208 268.224L143.637 264.033L139.065 265.557L145.923 259.461H141.732L146.685 256.413L142.494 257.175ZM152.4 269.748V263.271L156.972 259.461L155.067 261.747L159.639 260.604L156.21 263.652L160.401 264.414L156.591 266.319L158.877 266.7L155.829 268.605L159.639 268.224L155.448 272.034L161.163 270.891L153.924 275.463L158.496 274.32L152.019 277.368L152.4 269.748Z" fill="#F7AA7C"/>
<path d="M110.109 263.652L123.444 264.795L121.158 274.32L119.253 275.844L127.635 295.275H120.015L116.586 292.227L123.825 291.846L118.491 289.56L125.349 289.941L120.015 286.893H124.206L120.396 285.75L123.444 285.369L119.253 276.606L117.348 278.892L112.014 277.368L104.013 295.275H101.727H100.584L110.49 273.939L110.109 263.652Z" fill="#2C271C"/>
<path d="M149.733 272.415L152.4 269.748L152.019 277.368L158.496 274.32L159.258 275.082L155.067 284.226L160.401 285.369L162.687 289.941L161.925 314.706L148.209 312.42L152.4 311.277L148.59 308.229L153.543 307.848L148.971 306.324L149.352 302.895L152.019 292.227L148.209 284.607L149.352 274.32L149.733 272.415Z" fill="#E36830"/>
<path d="M144.78 274.32H149.352L148.209 284.607L147.828 286.512L141.732 283.845L139.827 298.704L144.018 299.085H146.304L144.018 300.609L145.542 303.657L142.875 306.705L145.161 307.086L142.875 308.229L144.399 311.658L142.494 316.992H139.827L140.208 326.517L137.16 310.896L139.065 288.036L141.732 276.987L144.399 275.844L141.732 276.225L144.78 274.32Z" fill="#F7AA7C"/>
<path d="M159.258 275.082L163.068 275.844L165.354 282.321L162.687 289.941L160.401 285.369L155.067 284.226L159.258 275.082Z" fill="#2C271C"/>
<path d="M127.635 295.275L119.253 275.844L121.158 274.32L124.968 277.368L130.683 295.275L132.969 312.039L127.635 295.275ZM141.732 276.225L144.399 275.844L141.732 276.987L139.065 288.036L137.16 310.896L140.208 326.517L139.827 316.992H142.494L143.637 320.421L142.875 338.328L138.303 332.613L134.112 295.275L130.302 278.511L141.732 276.225ZM117.348 278.892L119.253 276.606L123.444 285.369L120.396 285.75L124.206 286.893H120.015L125.349 289.941L118.491 289.56L123.825 291.846L116.586 292.227L120.015 295.275L115.443 294.513L119.253 296.799L114.3 295.656L118.11 297.561H113.157L115.062 299.847L110.871 300.99L113.919 303.276L108.966 302.514L112.395 305.181L107.823 304.419L110.871 307.467L106.68 305.943L101.727 311.277L97.917 324.612L101.727 330.327L96.393 328.803L102.489 332.232L97.536 330.327L94.869 328.803L92.964 331.47L89.154 324.612L90.297 332.994L84.582 323.85L101.727 295.275H104.013L91.821 324.231L117.348 278.892Z" fill="#F5DCCE"/>
<path d="M104.013 295.275L112.014 277.368L117.348 278.892L91.821 324.231L104.013 295.275Z" fill="#2C271C"/>
<path d="M144.018 299.085L139.827 298.704L141.732 283.845L147.828 286.512L146.685 297.18L144.018 299.085Z" fill="#E1652C"/>
<path d="M147.828 286.512L148.209 284.607L152.019 292.227L149.352 302.895L145.542 303.657L144.018 300.609L146.304 299.085H144.018L146.685 297.18L147.828 286.512ZM115.062 299.847L113.157 297.561H118.11L114.3 295.656L119.253 296.799L115.443 294.513L120.015 295.275H127.635L132.969 312.039V323.088L130.683 314.325L127.254 328.422L118.11 340.233L119.253 337.185L114.681 337.947L112.014 333.375L113.919 321.945L107.442 318.135L109.347 310.896L113.538 312.801L119.634 313.182L122.682 306.705V302.133L116.586 301.371L115.062 299.847Z" fill="#2C271C"/>
<path d="M118.872 381L83.82 349.758L85.725 344.043L83.058 335.28L86.487 328.422L83.439 323.85L100.584 295.275H101.727L84.582 323.85L90.297 332.994L89.154 324.612L92.964 331.47L94.869 328.803L97.536 330.327L101.346 335.28L96.393 333.756L101.346 336.804L94.107 335.28L100.203 342.138L104.775 341.376L106.299 344.805L108.585 342.9L106.68 346.71L93.726 350.901L85.725 345.567L84.582 349.377L86.868 350.901L102.108 360.426L120.777 381H118.872Z" fill="#E36830"/>
<path d="M132.969 312.039L130.683 295.275H134.112L138.303 332.613L142.875 338.328L143.637 320.421L148.59 320.802L147.828 314.325L153.543 315.468L144.399 311.658L142.875 308.229L145.161 307.086L142.875 306.705L145.542 303.657L149.352 302.895L148.971 306.324L153.543 307.848L148.59 308.229L152.4 311.277L148.209 312.42L161.925 314.706L165.354 322.707L164.592 334.137L160.02 334.899L165.354 340.233L162.687 342.519H166.497L158.877 346.71L154.686 345.948L152.019 336.423L154.686 332.994L146.685 331.47L145.923 345.567L147.447 341.376L152.019 340.995L153.924 347.091H145.923L142.875 346.71V343.281L132.588 334.899L132.969 323.088V312.039Z" fill="#2C271C"/>
<path d="M97.917 324.612L101.727 311.277L106.68 305.943L110.871 307.467L107.823 304.419L112.395 305.181L108.966 302.514L113.919 303.276L110.871 300.99L115.062 299.847L116.586 301.371L116.967 304.419L112.776 305.562L114.681 310.134L111.252 309.372L113.538 312.801L109.347 310.896L107.442 318.135L111.252 322.326L109.728 324.993L105.537 320.421L97.917 324.612Z" fill="#E36830"/>
<path d="M113.538 312.801L111.252 309.372L114.681 310.134L112.776 305.562L116.967 304.419L116.586 301.371L122.682 302.133V306.705L119.634 313.182L113.538 312.801Z" fill="#2C271C"/>
<path d="M142.494 316.992L144.399 311.658L153.543 315.468L147.828 314.325L148.59 320.802L143.637 320.421L142.494 316.992Z" fill="#2C271C"/>
<path d="M118.11 340.233L127.254 328.422L130.683 314.325L132.969 323.088L132.588 334.899L142.875 343.281V346.71L146.304 381H144.399L133.731 367.284L132.588 366.141L122.682 354.711L123.063 345.567L114.681 341.376L118.11 340.233Z" fill="#47464D"/>
<path d="M97.917 324.612L105.537 320.421L109.728 324.993L111.252 322.326L107.442 318.135L113.919 321.945L112.014 333.375L114.681 337.947L119.253 337.185L118.11 340.233L114.681 341.376L123.063 345.567L122.682 354.711L119.634 355.473L121.92 365.76L124.968 366.522L123.825 370.332L132.588 366.141L133.731 367.284L132.207 381H125.349L116.205 367.665L118.872 366.903L117.729 363.474L115.443 364.236L117.348 362.331L114.681 363.093L116.967 360.426L113.538 361.95L115.824 354.711L112.395 355.092L115.062 351.663L110.871 352.425L114.681 350.139L110.109 352.044L113.538 349.377L104.775 348.615L106.68 346.71L108.585 342.9L106.299 344.805L104.775 341.376L100.203 342.138L94.107 335.28L101.346 336.804L96.393 333.756L101.346 335.28L97.536 330.327L102.489 332.232L96.393 328.803L101.727 330.327L97.917 324.612Z" fill="#2C271C"/>
<path d="M152.019 340.995L147.447 341.376L145.923 345.567L146.685 331.47L154.686 332.994L152.019 336.423V340.995Z" fill="#E36830"/>
<path d="M152.019 340.995V336.423L154.686 345.948L158.877 346.71L156.972 353.568L161.925 356.235L158.496 356.616L147.828 352.806L145.923 347.091H153.924L152.019 340.995Z" fill="#F7AA7C"/>
<path d="M171.831 348.996L174.498 336.804L185.166 346.71L184.785 357.759L178.308 368.046L184.404 370.332L183.642 377.571L186.69 381H173.736L169.926 367.665L172.593 355.854L169.545 353.187L171.831 348.996Z" fill="#E36830"/>
<path d="M93.726 343.281L97.917 348.234L89.535 347.853V344.805L93.726 343.281Z" fill="#2C271C"/>
<path d="M86.868 350.901L84.582 349.377L85.725 345.567L93.726 350.901L106.68 346.71L104.775 348.615L113.538 349.377L110.109 352.044L114.681 350.139L110.871 352.425L115.062 351.663L112.395 355.092L115.824 354.711L113.538 361.95L116.967 360.426L114.681 363.093L117.348 362.331L115.443 364.236L117.729 363.474L118.872 366.903L116.205 367.665L125.349 381H122.682L106.299 362.331L102.108 350.901L97.536 352.806L86.868 350.901Z" fill="#E1652C"/>
<path d="M146.304 381L142.875 346.71L145.923 347.091L147.828 352.806L147.066 356.616V356.997L149.352 381H146.304Z" fill="#2C271C"/>
<path d="M171.831 348.996L169.545 353.187L161.544 358.14L162.687 363.474L156.591 356.616L149.352 354.33L151.257 358.521L147.066 356.616L147.828 352.806L158.496 356.616L163.83 356.235L171.831 348.996Z" fill="#47464D"/>
<path d="M86.868 350.901L97.536 352.806L102.108 350.901L106.299 362.331L122.682 381H120.777L102.108 360.426L86.868 350.901Z" fill="#2C271C"/>
<path d="M147.066 356.616L151.257 358.521L149.352 354.33L156.591 356.616L162.687 363.474L161.544 358.14L169.545 353.187L172.593 355.854L169.926 367.665L163.83 369.189L163.449 371.856L169.926 381H166.497L155.067 362.331L147.066 356.997V356.616Z" fill="#2C271C"/>
<path d="M132.588 366.141L123.825 370.332L124.968 366.522L121.92 365.76L119.634 355.473L122.682 354.711L132.588 366.141Z" fill="#2C271C"/>
<path d="M149.352 381L147.066 356.997L155.067 362.331L166.497 381H149.352Z" fill="#47464D"/>
<path d="M186.69 381L183.642 377.571L184.404 370.332L178.308 368.046L184.785 357.759L196.596 381H186.69ZM132.207 381L133.731 367.284L144.399 381H132.207ZM169.926 381L163.449 371.856L163.83 369.189L169.926 367.665L173.736 381H169.926Z" fill="#2C271C"/>
</svg>
