<svg width="200" height="200" viewBox="0 0 200 200" fill="none" xmlns="http://www.w3.org/2000/svg">
<path d="M0 100V0H200V200H0" fill="#47464D"/>
<path d="M43.85 100.35V108.5H69.85V182.5H88.3V108.5H114.3V100.5C114.3 95.9999 114.3 92.3499 114.1 92.2499C114.1 92.0999 98.25 92.0499 79 92.0499L44 92.1999V100.4L43.85 100.35ZM160.7 91.9999C165.8 93.1999 169.7 95.4999 173.2 99.1499C175.05 101.15 177.8 104.65 178 105.55C178 105.85 169.35 111.7 164.1 114.95C163.9 115.1 163.1 114.25 162.3 112.95C159.7 109.25 157.05 107.65 152.9 107.35C146.9 106.95 142.9 110.1 142.9 115.35C142.9 116.95 143.2 117.85 143.8 119.15C145.15 121.9 147.65 123.55 155.4 126.95C169.7 133.1 175.9 137.15 179.65 142.95C183.9 149.45 184.85 159.65 182 167.3C178.8 175.65 171 181.3 159.85 183.15C156.35 183.75 148.35 183.65 144.6 183C136.6 181.5 128.95 177.5 124.25 172.35C122.4 170.35 118.85 165 119.05 164.65L120.95 163.45L128.45 159.1L134.1 155.8L135.4 157.55C137.05 160.15 140.75 163.65 142.9 164.85C149.4 168.2 158.1 167.75 162.4 163.85C164.25 162.15 165.05 160.35 165.05 157.85C165.05 155.55 164.7 154.5 163.55 152.75C161.95 150.55 158.75 148.75 149.75 144.75C139.4 140.35 135 137.55 130.9 133.25C128.55 130.65 126.4 126.6 125.4 123.25C124.65 120.35 124.4 113.25 125.1 110.4C127.25 100.4 134.8 93.3999 145.6 91.3999C149.1 90.6999 157.35 90.9999 160.8 91.8999L160.7 91.9999Z" fill="#F3F3F3"/>
</svg>
