<svg width="185" height="190" viewBox="0 0 195 200" fill="none" xmlns="http://www.w3.org/2000/svg">
<g clip-path="url(#clip0_64_15)">
<path d="M126.875 99.7811L161.781 39.5074L178.648 99.7811L161.78 160.04L126.875 99.7811ZM109.862 109.569L144.773 169.833L83.9735 154.257L40.0502 109.569H109.862ZM144.765 29.7115L109.862 89.9853H40.0502L83.9735 45.2941L144.765 29.7115V29.7115ZM194.595 79.2687L173.3 0.0456543L93.8172 21.2774L82.0514 41.9632L58.1768 41.7921L0 99.7865L58.1768 157.767H58.1791L82.0438 157.591L93.8264 178.277L173.3 199.504L194.594 120.297L182.501 99.7819L194.594 79.2702L194.595 79.2687Z" fill="#2C271C"/>
</g>
<defs>
<clipPath id="clip0_64_15">
<rect width="194.64" height="200" fill="white"/>
</clipPath>
</defs>
</svg>
